<svg width="78" height="14" viewBox="0 0 78 14" fill="none" xmlns="http://www.w3.org/2000/svg">
<path fill-rule="evenodd" clip-rule="evenodd" d="M7.28487 0.817998C7.57523 1.1134 7.57115 1.58825 7.27575 1.87862L3.0829 6H12.75C13.1642 6 13.5 6.33579 13.5 6.75C13.5 7.16421 13.1642 7.5 12.75 7.5H3.09051L7.2742 11.5886C7.57044 11.8781 7.5759 12.353 7.28639 12.6492C6.99688 12.9454 6.52204 12.9509 6.2258 12.6614L0.7258 7.28639C0.581673 7.14554 0.500293 6.95261 0.500001 6.75109C0.499709 6.54956 0.580529 6.3564 0.724248 6.21513L6.22425 0.808881C6.51965 0.518516 6.9945 0.522598 7.28487 0.817998Z" fill="#F1F3F4"/>
<path fill-rule="evenodd" clip-rule="evenodd" d="M38.7151 0.817998C38.4248 1.1134 38.4288 1.58825 38.7242 1.87862L42.9171 6H33.25C32.8358 6 32.5 6.33579 32.5 6.75C32.5 7.16421 32.8358 7.5 33.25 7.5H42.9095L38.7258 11.5886C38.4296 11.8781 38.4241 12.353 38.7136 12.6492C39.0031 12.9454 39.478 12.9509 39.7742 12.6614L45.2742 7.28639C45.4183 7.14554 45.4997 6.95261 45.5 6.75109C45.5003 6.54956 45.4195 6.3564 45.2758 6.21513L39.7758 0.808881C39.4804 0.518516 39.0055 0.522598 38.7151 0.817998Z" fill="#86888A"/>
<path d="M66 7C66 4.23858 68.2386 2 71 2C72.5073 2 73.8594 2.6667 74.7768 3.7232L72.5 6H78V0.5L75.8394 2.66063C74.65 1.33512 72.9228 0.5 71 0.5C67.4101 0.5 64.5 3.41015 64.5 7C64.5 10.5899 67.4101 13.5 71 13.5C73.5781 13.5 75.8042 11.999 76.8547 9.8265C77.0351 9.45359 76.8789 9.00512 76.506 8.8248C76.1331 8.64448 75.6847 8.8006 75.5043 9.1735C74.6947 10.8478 72.9812 12 71 12C68.2386 12 66 9.76142 66 7Z" fill="#F1F3F4"/>
</svg>
