<svg width="16" height="16" viewBox="0 0 16 16" fill="none" xmlns="http://www.w3.org/2000/svg">
<path d="M13.3666 7.08703L10.2533 5.74703L9.55996 5.4537C9.45329 5.40036 9.35996 5.26036 9.35996 5.14036V3.10036C9.35996 2.46036 8.88662 1.70036 8.31329 1.40703C8.11329 1.30703 7.87329 1.30703 7.67329 1.40703C7.10663 1.70036 6.63329 2.46703 6.63329 3.10703V5.14703C6.63329 5.26703 6.53996 5.40703 6.43329 5.46036L2.63329 7.0937C2.21329 7.26703 1.87329 7.7937 1.87329 8.24703V9.12703C1.87329 9.6937 2.29996 9.9737 2.82662 9.74703L6.16662 8.30703C6.42662 8.1937 6.63996 8.3337 6.63996 8.62036V9.36036V10.5604C6.63996 10.7137 6.55329 10.9337 6.44662 11.0404L4.89996 12.5937C4.73996 12.7537 4.66662 13.067 4.73996 13.2937L5.03996 14.2004C5.15996 14.5937 5.60662 14.7804 5.97329 14.5937L7.55996 13.2604C7.79996 13.0537 8.19329 13.0537 8.43329 13.2604L10.02 14.5937C10.3866 14.7737 10.8333 14.5937 10.9666 14.2004L11.2666 13.2937C11.34 13.0737 11.2666 12.7537 11.1066 12.5937L9.55996 11.0404C9.44663 10.9337 9.35996 10.7137 9.35996 10.5604V8.62036C9.35996 8.3337 9.56663 8.20036 9.83329 8.30703L13.1733 9.74703C13.7 9.9737 14.1266 9.6937 14.1266 9.12703V8.24703C14.1266 7.7937 13.7866 7.26703 13.3666 7.08703Z" fill="#313131"/>
</svg>
