<svg width="16" height="16" viewBox="0 0 16 16" fill="none" xmlns="http://www.w3.org/2000/svg">
<path d="M14.6666 12.6667V14.6667H1.33325V12.6667C1.33325 12.3 1.63325 12 1.99992 12H13.9999C14.3666 12 14.6666 12.3 14.6666 12.6667Z" fill="#292D32" stroke="#292D32" stroke-width="1.5" stroke-miterlimit="10" stroke-linecap="round" stroke-linejoin="round"/>
<path d="M4.66659 7.33301H3.33325V11.9997H4.66659V7.33301Z" fill="#292D32"/>
<path d="M7.33333 7.33301H6V11.9997H7.33333V7.33301Z" fill="#292D32"/>
<path d="M10.0001 7.33301H8.66675V11.9997H10.0001V7.33301Z" fill="#292D32"/>
<path d="M12.6666 7.33301H11.3333V11.9997H12.6666V7.33301Z" fill="#292D32"/>
<path d="M15.3334 15.167H0.666748C0.393415 15.167 0.166748 14.9403 0.166748 14.667C0.166748 14.3937 0.393415 14.167 0.666748 14.167H15.3334C15.6067 14.167 15.8334 14.3937 15.8334 14.667C15.8334 14.9403 15.6067 15.167 15.3334 15.167Z" fill="#292D32"/>
<path d="M14.2466 3.83355L8.24659 1.43355C8.11325 1.38022 7.88659 1.38022 7.75325 1.43355L1.75325 3.83355C1.51992 3.92689 1.33325 4.20022 1.33325 4.45355V6.66689C1.33325 7.03355 1.63325 7.33355 1.99992 7.33355H13.9999C14.3666 7.33355 14.6666 7.03355 14.6666 6.66689V4.45355C14.6666 4.20022 14.4799 3.92689 14.2466 3.83355ZM7.99992 5.66689C7.44659 5.66689 6.99992 5.22022 6.99992 4.66689C6.99992 4.11355 7.44659 3.66689 7.99992 3.66689C8.55325 3.66689 8.99992 4.11355 8.99992 4.66689C8.99992 5.22022 8.55325 5.66689 7.99992 5.66689Z" fill="#292D32"/>
</svg>
