<svg width="16" height="16" viewBox="0 0 16 16" fill="none" xmlns="http://www.w3.org/2000/svg">
<path d="M10.7933 1.33301H5.20659C2.77992 1.33301 1.33325 2.77967 1.33325 5.20634V10.7863C1.33325 13.2197 2.77992 14.6663 5.20659 14.6663H10.7866C13.2133 14.6663 14.6599 13.2197 14.6599 10.793V5.20634C14.6666 2.77967 13.2199 1.33301 10.7933 1.33301ZM7.66659 11.4997C7.66659 11.7397 7.42659 11.8997 7.20659 11.8063C6.39992 11.4597 5.34659 11.1397 4.61325 11.0463L4.48659 11.033C4.07992 10.9797 3.74659 10.5997 3.74659 10.1863V5.05301C3.74659 4.53967 4.15992 4.15967 4.66659 4.19967C5.49992 4.26634 6.73325 4.66634 7.50659 5.10634C7.61325 5.16634 7.66659 5.27967 7.66659 5.39301V11.4997ZM12.2533 10.1797C12.2533 10.593 11.9199 10.973 11.5133 11.0263L11.3733 11.0397C10.6466 11.1397 9.59992 11.453 8.79325 11.793C8.57325 11.8863 8.33325 11.7263 8.33325 11.4863V5.38634C8.33325 5.26634 8.39325 5.15301 8.49992 5.09301C9.27325 4.65967 10.4799 4.27301 11.2999 4.19967H11.3266C11.8399 4.19967 12.2533 4.61301 12.2533 5.12634V10.1797Z" fill="#313131"/>
</svg>
