<svg width="20" height="20" viewBox="0 0 20 20" fill="none" xmlns="http://www.w3.org/2000/svg">
<path opacity="0.6" d="M8.42495 3.33325C8.35828 3.58325 8.33329 3.85825 8.33329 4.16659V6.66659H4.16663V4.99992C4.16663 4.08325 4.91663 3.33325 5.83329 3.33325H8.42495Z" fill="#E2C529"/>
<path d="M8.33329 15.8334V6.66675H4.16663C2.49996 6.66675 1.66663 7.50008 1.66663 9.16675V15.8334C1.66663 17.5001 2.49996 18.3334 4.16663 18.3334H10.8333C9.16663 18.3334 8.33329 17.5001 8.33329 15.8334ZM5.62496 14.1667C5.62496 14.5084 5.34163 14.7917 4.99996 14.7917C4.65829 14.7917 4.37496 14.5084 4.37496 14.1667V10.8334C4.37496 10.4917 4.65829 10.2084 4.99996 10.2084C5.34163 10.2084 5.62496 10.4917 5.62496 10.8334V14.1667Z" fill="#E2C529"/>
<path opacity="0.4" d="M11.6667 18.3334H10.8334C9.16671 18.3334 8.33337 17.5001 8.33337 15.8334V4.16675C8.33337 2.50008 9.16671 1.66675 10.8334 1.66675H15.8334C17.5 1.66675 18.3334 2.50008 18.3334 4.16675V15.8334C18.3334 17.5001 17.5 18.3334 15.8334 18.3334H15" fill="#E2C529"/>
<path d="M15 15.0001V18.3334H11.6666V15.0001C11.6666 14.5417 12.0416 14.1667 12.5 14.1667H14.1666C14.625 14.1667 15 14.5417 15 15.0001Z" fill="#E2C529"/>
<path d="M11.6666 11.4584C11.325 11.4584 11.0416 11.1751 11.0416 10.8334V6.66675C11.0416 6.32508 11.325 6.04175 11.6666 6.04175C12.0083 6.04175 12.2916 6.32508 12.2916 6.66675V10.8334C12.2916 11.1751 12.0083 11.4584 11.6666 11.4584Z" fill="#E2C529"/>
<path d="M15 11.4584C14.6583 11.4584 14.375 11.1751 14.375 10.8334V6.66675C14.375 6.32508 14.6583 6.04175 15 6.04175C15.3417 6.04175 15.625 6.32508 15.625 6.66675V10.8334C15.625 11.1751 15.3417 11.4584 15 11.4584Z" fill="#E2C529"/>
</svg>
