<svg width="30" height="30" viewBox="0 0 30 30" fill="none" xmlns="http://www.w3.org/2000/svg">
<path opacity="0.6" d="M12.6375 5C12.5375 5.375 12.5 5.7875 12.5 6.25V10H6.25V7.5C6.25 6.125 7.375 5 8.75 5H12.6375Z" fill="#787878"/>
<path d="M12.5 23.75V10H6.25C3.75 10 2.5 11.25 2.5 13.75V23.75C2.5 26.25 3.75 27.5 6.25 27.5H16.25C13.75 27.5 12.5 26.25 12.5 23.75ZM8.4375 21.25C8.4375 21.7625 8.0125 22.1875 7.5 22.1875C6.9875 22.1875 6.5625 21.7625 6.5625 21.25V16.25C6.5625 15.7375 6.9875 15.3125 7.5 15.3125C8.0125 15.3125 8.4375 15.7375 8.4375 16.25V21.25Z" fill="#787878"/>
<path opacity="0.4" d="M17.5 27.5H16.25C13.75 27.5 12.5 26.25 12.5 23.75V6.25C12.5 3.75 13.75 2.5 16.25 2.5H23.75C26.25 2.5 27.5 3.75 27.5 6.25V23.75C27.5 26.25 26.25 27.5 23.75 27.5H22.5" fill="#787878"/>
<path d="M22.5 22.5V27.5H17.5V22.5C17.5 21.8125 18.0625 21.25 18.75 21.25H21.25C21.9375 21.25 22.5 21.8125 22.5 22.5Z" fill="#787878"/>
<path d="M17.5 17.1875C16.9875 17.1875 16.5625 16.7625 16.5625 16.25V10C16.5625 9.4875 16.9875 9.0625 17.5 9.0625C18.0125 9.0625 18.4375 9.4875 18.4375 10V16.25C18.4375 16.7625 18.0125 17.1875 17.5 17.1875Z" fill="#787878"/>
<path d="M22.5 17.1875C21.9875 17.1875 21.5625 16.7625 21.5625 16.25V10C21.5625 9.4875 21.9875 9.0625 22.5 9.0625C23.0125 9.0625 23.4375 9.4875 23.4375 10V16.25C23.4375 16.7625 23.0125 17.1875 22.5 17.1875Z" fill="#787878"/>
</svg>
