<svg width="40" height="40" viewBox="0 0 40 40" fill="none" xmlns="http://www.w3.org/2000/svg">
<path opacity="0.6" d="M16.85 6.66699C16.7167 7.16699 16.6667 7.71699 16.6667 8.33366V13.3337H8.33337V10.0003C8.33337 8.16699 9.83337 6.66699 11.6667 6.66699H16.85Z" fill="#787878"/>
<path d="M16.6667 31.6663V13.333H8.33337C5.00004 13.333 3.33337 14.9997 3.33337 18.333V31.6663C3.33337 34.9997 5.00004 36.6663 8.33337 36.6663H21.6667C18.3334 36.6663 16.6667 34.9997 16.6667 31.6663ZM11.25 28.333C11.25 29.0163 10.6834 29.583 10 29.583C9.31671 29.583 8.75004 29.0163 8.75004 28.333V21.6663C8.75004 20.983 9.31671 20.4163 10 20.4163C10.6834 20.4163 11.25 20.983 11.25 21.6663V28.333Z" fill="#787878"/>
<path opacity="0.4" d="M23.3333 36.6663H21.6666C18.3333 36.6663 16.6666 34.9997 16.6666 31.6663V8.33301C16.6666 4.99967 18.3333 3.33301 21.6666 3.33301H31.6666C35 3.33301 36.6666 4.99967 36.6666 8.33301V31.6663C36.6666 34.9997 35 36.6663 31.6666 36.6663H30" fill="#787878"/>
<path d="M30 29.9997V36.6663H23.3334V29.9997C23.3334 29.083 24.0834 28.333 25 28.333H28.3334C29.25 28.333 30 29.083 30 29.9997Z" fill="#787878"/>
<path d="M23.3334 22.9163C22.65 22.9163 22.0834 22.3497 22.0834 21.6663V13.333C22.0834 12.6497 22.65 12.083 23.3334 12.083C24.0167 12.083 24.5834 12.6497 24.5834 13.333V21.6663C24.5834 22.3497 24.0167 22.9163 23.3334 22.9163Z" fill="#787878"/>
<path d="M30 22.9163C29.3167 22.9163 28.75 22.3497 28.75 21.6663V13.333C28.75 12.6497 29.3167 12.083 30 12.083C30.6833 12.083 31.25 12.6497 31.25 13.333V21.6663C31.25 22.3497 30.6833 22.9163 30 22.9163Z" fill="#787878"/>
</svg>
