<svg width="16" height="16" viewBox="0 0 16 16" fill="none" xmlns="http://www.w3.org/2000/svg">
<path d="M2.66663 9.00033V12.6003C2.66663 13.7337 3.59329 14.667 4.73329 14.667H11.2666C12.4 14.667 13.3333 13.7403 13.3333 12.6003V9.00033C13.3333 8.81366 13.1866 8.66699 13 8.66699H2.99996C2.81329 8.66699 2.66663 8.81366 2.66663 9.00033ZM5.91996 12.2537C5.76663 12.4137 5.55329 12.5003 5.33329 12.5003C5.27996 12.5003 5.22663 12.4937 5.17329 12.487C5.11996 12.4737 5.06663 12.4603 5.01329 12.4337C4.96663 12.4137 4.91329 12.387 4.87329 12.3603C4.82663 12.327 4.77996 12.2937 4.74663 12.2537C4.58663 12.1003 4.49996 11.887 4.49996 11.667C4.49996 11.447 4.58663 11.2337 4.74663 11.0803C4.77996 11.0403 4.82663 11.007 4.87329 10.9737C4.91329 10.947 4.96663 10.9203 5.01329 10.9003C5.06663 10.8737 5.11996 10.8603 5.17329 10.847C5.43996 10.7937 5.72663 10.887 5.91996 11.0803C6.07996 11.2337 6.16663 11.447 6.16663 11.667C6.16663 11.887 6.07996 12.1003 5.91996 12.2537ZM11.2533 12.2537C11.22 12.2937 11.1733 12.327 11.1266 12.3603C11.0866 12.387 11.0333 12.4137 10.9866 12.4337C10.9333 12.4603 10.88 12.4737 10.8333 12.487C10.7733 12.4937 10.72 12.5003 10.6666 12.5003C10.6133 12.5003 10.56 12.4937 10.5066 12.487C10.4533 12.4737 10.4 12.4603 10.3466 12.4337C10.3 12.4137 10.2466 12.387 10.2066 12.3603C10.16 12.327 10.1133 12.2937 10.08 12.2537C9.91996 12.1003 9.83329 11.887 9.83329 11.667C9.83329 11.447 9.91996 11.2337 10.08 11.0803C10.1133 11.0403 10.16 11.007 10.2066 10.9737C10.2466 10.947 10.3 10.9203 10.3466 10.9003C10.4 10.8737 10.4533 10.8603 10.5066 10.847C10.6133 10.827 10.72 10.827 10.8333 10.847C10.88 10.8603 10.9333 10.8737 10.9866 10.9003C11.0333 10.9203 11.0866 10.947 11.1266 10.9737C11.1733 11.007 11.22 11.0403 11.2533 11.0803C11.4133 11.2337 11.5 11.447 11.5 11.667C11.5 11.887 11.4133 12.1003 11.2533 12.2537Z" fill="#313131"/>
<path d="M11.2666 1.33301H4.73329C3.59329 1.33301 2.66663 2.25967 2.66663 3.39967V4.99967C2.66663 5.18634 2.81329 5.33301 2.99996 5.33301H13C13.1866 5.33301 13.3333 5.18634 13.3333 4.99967V3.39967C13.3333 2.25967 12.4066 1.33301 11.2666 1.33301ZM9.66663 3.83301H6.33329C6.05996 3.83301 5.83329 3.60634 5.83329 3.33301C5.83329 3.05967 6.05996 2.83301 6.33329 2.83301H9.66663C9.93996 2.83301 10.1666 3.05967 10.1666 3.33301C10.1666 3.60634 9.93996 3.83301 9.66663 3.83301Z" fill="#313131"/>
<path d="M13 8H2.99996C2.81329 8 2.66663 7.85333 2.66663 7.66667V6.33333C2.66663 6.14667 2.81329 6 2.99996 6H13C13.1866 6 13.3333 6.14667 13.3333 6.33333V7.66667C13.3333 7.85333 13.1866 8 13 8Z" fill="#313131"/>
</svg>
