<svg width="16" height="16" viewBox="0 0 16 16" fill="none" xmlns="http://www.w3.org/2000/svg">
<path d="M14.5 5.33339C14.5 5.60672 14.2733 5.83339 14 5.83339H2C1.72667 5.83339 1.5 5.60672 1.5 5.33339C1.5 5.06005 1.72667 4.83339 2 4.83339H2.68L2.93333 3.62672C3.17333 2.46005 3.67333 1.38672 5.66 1.38672H10.34C12.3267 1.38672 12.8267 2.46005 13.0667 3.62672L13.32 4.83339H14C14.2733 4.83339 14.5 5.06005 14.5 5.33339Z" fill="#313131"/>
<path d="M14.7866 9.10634C14.6866 8.00634 14.3933 6.83301 12.2533 6.83301H3.74664C1.60664 6.83301 1.31998 8.00634 1.21331 9.10634L0.839976 13.1663C0.793309 13.673 0.959976 14.1797 1.30664 14.5597C1.65998 14.9463 2.15998 15.1663 2.69331 15.1663H3.94664C5.02664 15.1663 5.23331 14.5463 5.36664 14.1397L5.49998 13.7397C5.65331 13.2797 5.69331 13.1663 6.29331 13.1663H9.70664C10.3066 13.1663 10.3266 13.233 10.5 13.7397L10.6333 14.1397C10.7666 14.5463 10.9733 15.1663 12.0533 15.1663H13.3066C13.8333 15.1663 14.34 14.9463 14.6933 14.5597C15.04 14.1797 15.2066 13.673 15.16 13.1663L14.7866 9.10634ZM5.99998 10.4997H3.99998C3.72664 10.4997 3.49998 10.273 3.49998 9.99967C3.49998 9.72634 3.72664 9.49967 3.99998 9.49967H5.99998C6.27331 9.49967 6.49998 9.72634 6.49998 9.99967C6.49998 10.273 6.27331 10.4997 5.99998 10.4997ZM12 10.4997H9.99998C9.72664 10.4997 9.49998 10.273 9.49998 9.99967C9.49998 9.72634 9.72664 9.49967 9.99998 9.49967H12C12.2733 9.49967 12.5 9.72634 12.5 9.99967C12.5 10.273 12.2733 10.4997 12 10.4997Z" fill="#313131"/>
</svg>
