<svg width="40" height="40" viewBox="0 0 40 40" fill="none" xmlns="http://www.w3.org/2000/svg">
<path opacity="0.4" d="M27.0667 6.08301H12.9334C8.81673 6.08301 5.4834 9.43301 5.4834 13.533V29.2163C5.4834 33.3163 8.8334 36.6663 12.9334 36.6663H27.0501C31.1667 36.6663 34.5001 33.3163 34.5001 29.2163V13.533C34.5167 9.41634 31.1667 6.08301 27.0667 6.08301Z" fill="white"/>
<path d="M23.9167 3.33301H16.0833C14.35 3.33301 12.9333 4.73301 12.9333 6.46634V8.03301C12.9333 9.76634 14.3333 11.1663 16.0667 11.1663H23.9167C25.65 11.1663 27.05 9.76634 27.05 8.03301V6.46634C27.0667 4.73301 25.65 3.33301 23.9167 3.33301Z" fill="white"/>
<path d="M18.0166 28.2504C17.6999 28.2504 17.3833 28.1337 17.1333 27.8837L14.6333 25.3837C14.1499 24.9004 14.1499 24.1004 14.6333 23.6171C15.1166 23.1337 15.9166 23.1337 16.3999 23.6171L18.0166 25.2337L23.7999 19.4504C24.2833 18.9671 25.0833 18.9671 25.5666 19.4504C26.0499 19.9337 26.0499 20.7337 25.5666 21.2171L18.8999 27.8837C18.6666 28.1337 18.3333 28.2504 18.0166 28.2504Z" fill="white"/>
</svg>
