<svg width="1038" height="537" viewBox="0 0 1038 537" fill="none" xmlns="http://www.w3.org/2000/svg">
<g clip-path="url(#clip0_261_204369)">
<rect width="1038" height="537" rx="10" fill="#131317"/>
<g filter="url(#filter0_f_261_204369)">
<path d="M259 734.5C259 820.38 182.665 890 88.5 890C-5.66454 890 -82 820.38 -82 734.5C-82 648.62 -5.66454 579 88.5 579C182.665 579 259 648.62 259 734.5Z" fill="black"/>
</g>
<g filter="url(#filter1_f_261_204369)">
<path d="M1735 734.5C1735 820.38 1658.89 890 1565 890C1471.11 890 1395 820.38 1395 734.5C1395 648.62 1471.11 579 1565 579C1658.89 579 1735 648.62 1735 734.5Z" fill="#355FF4"/>
</g>
<g filter="url(#filter2_f_261_204369)">
<path d="M534.657 -24.9853C519.059 -39.8048 253.606 -37.1739 272.015 -47H-82V854H1958V604.646H1924.78L1709.13 616.448C1675.99 618.262 1642.81 613.985 1611.22 603.83L1473.05 559.41C1456.39 554.055 1439.31 550.05 1421.81 549.67C1318.59 547.429 1137.29 585.529 1124.35 585.529C1112.74 585.529 1043.94 524.378 959.631 497.242L957.357 496.511C922.028 485.144 886.147 473.6 855.637 452.517L827.051 432.763C798.024 412.705 762.275 404.862 727.517 410.925L622.378 429.267C595.018 434.04 569.969 412.983 569.969 385.209C569.969 381.129 569.411 377.069 568.31 373.14L539.534 270.469C535.261 255.225 533.095 239.468 533.095 223.636V217.364C533.095 206.272 531.632 195.228 528.745 184.518L521.337 157.044C516.131 137.733 519.905 117.104 531.612 100.887L549.465 76.1569C560.833 60.4101 557.436 38.4511 541.842 26.8751L535.505 22.1713C523.165 13.0105 520.654 -4.45192 529.914 -16.7182C532.016 -19.5018 537.186 -22.583 534.657 -24.9853Z" fill="#0F0F0F"/>
</g>
<ellipse cx="515.5" cy="194.545" rx="18.5" ry="18" fill="#45B732" fill-opacity="0.6"/>
<circle cx="582.413" cy="109.91" r="5.17886" fill="#FF4264" fill-opacity="0.8"/>
<path d="M582.046 117.672C586.187 117.672 589.438 114.137 589.438 109.91C589.438 105.684 586.187 102.149 582.046 102.149C577.906 102.149 574.655 105.684 574.655 109.91C574.655 114.137 577.906 117.672 582.046 117.672Z" stroke="#979797" stroke-opacity="0.6" stroke-width="2.20587"/>
<circle cx="614.968" cy="226.066" r="5.17886" fill="#FF4264" fill-opacity="0.8"/>
<path d="M614.599 234.567C619.142 234.567 622.73 230.707 622.73 226.065C622.73 221.424 619.142 217.564 614.599 217.564C610.055 217.564 606.467 221.424 606.467 226.065C606.467 230.707 610.055 234.567 614.599 234.567Z" stroke="#979797" stroke-opacity="0.6" stroke-width="2.20587"/>
<circle cx="822.492" cy="364.044" r="6.28862" fill="#FF4264" fill-opacity="0.8"/>
<path d="M822.495 373.656C827.442 373.656 831.366 369.469 831.366 364.415C831.366 359.36 827.442 355.173 822.495 355.173C817.548 355.173 813.624 359.36 813.624 364.415C813.624 369.469 817.548 373.656 822.495 373.656Z" stroke="#979797" stroke-opacity="0.6" stroke-width="2.20587"/>
<circle cx="878.351" cy="187.594" r="5.17886" fill="#FF4264" fill-opacity="0.8"/>
<circle cx="877.612" cy="187.594" r="7.76147" stroke="#979797" stroke-opacity="0.6" stroke-width="2.20587"/>
<ellipse cx="997.829" cy="71.4388" rx="3.32927" ry="2.95935" fill="#FF4264" fill-opacity="0.8"/>
<circle cx="997.462" cy="71.439" r="5.54196" stroke="#979797" stroke-opacity="0.6" stroke-width="2.20587"/>
<ellipse cx="724.091" cy="121.008" rx="14.4268" ry="14.0569" fill="#6B09CD" fill-opacity="0.6"/>
<g clip-path="url(#clip1_261_204369)">
<path fill-rule="evenodd" clip-rule="evenodd" d="M723.718 114.439C722.652 114.439 721.601 114.501 720.567 114.621C719.736 114.718 719.141 115.431 719.141 116.247V125.676C719.141 125.814 719.209 125.943 719.323 126.02C719.438 126.098 719.583 126.113 719.711 126.062L721.638 125.292L723.564 126.062C723.663 126.102 723.774 126.102 723.873 126.062L725.799 125.292L727.725 126.062C727.854 126.113 727.999 126.098 728.113 126.02C728.228 125.943 728.296 125.814 728.296 125.676V116.247C728.296 115.431 727.701 114.718 726.87 114.621C725.836 114.501 724.784 114.439 723.718 114.439ZM725.677 118.479C725.84 118.317 725.84 118.053 725.677 117.891C725.515 117.728 725.251 117.728 725.089 117.891L721.759 121.22C721.597 121.382 721.597 121.646 721.759 121.808C721.922 121.971 722.185 121.971 722.348 121.808L725.677 118.479ZM721.846 118.601C721.846 118.256 722.125 117.977 722.47 117.977C722.815 117.977 723.094 118.256 723.094 118.601C723.094 118.946 722.815 119.225 722.47 119.225C722.125 119.225 721.846 118.946 721.846 118.601ZM724.967 120.474C724.622 120.474 724.343 120.753 724.343 121.098C724.343 121.443 724.622 121.722 724.967 121.722C725.312 121.722 725.591 121.443 725.591 121.098C725.591 120.753 725.312 120.474 724.967 120.474Z" fill="#A95AF9"/>
</g>
<circle cx="663.295" cy="343.784" r="14.5529" fill="#D6684D" fill-opacity="0.6"/>
<path fill-rule="evenodd" clip-rule="evenodd" d="M508.437 187.045C507.575 187.045 506.875 187.744 506.875 188.607V199.545C506.875 200.926 507.994 202.045 509.375 202.045H521.875C520.494 202.045 519.375 200.926 519.375 199.545V188.607C519.375 187.744 518.675 187.045 517.812 187.045H508.437ZM515 192.67C514.655 192.67 514.375 192.95 514.375 193.295C514.375 193.64 514.655 193.92 515 193.92H516.25C516.595 193.92 516.875 193.64 516.875 193.295C516.875 192.95 516.595 192.67 516.25 192.67H515ZM514.375 190.795C514.375 190.45 514.655 190.17 515 190.17H516.25C516.595 190.17 516.875 190.45 516.875 190.795C516.875 191.14 516.595 191.42 516.25 191.42H515C514.655 191.42 514.375 191.14 514.375 190.795ZM510 195.17C509.655 195.17 509.375 195.45 509.375 195.795C509.375 196.14 509.655 196.42 510 196.42H516.25C516.595 196.42 516.875 196.14 516.875 195.795C516.875 195.45 516.595 195.17 516.25 195.17H510ZM509.375 198.295C509.375 197.95 509.655 197.67 510 197.67H516.25C516.595 197.67 516.875 197.95 516.875 198.295C516.875 198.64 516.595 198.92 516.25 198.92H510C509.655 198.92 509.375 198.64 509.375 198.295ZM510 190.17C509.655 190.17 509.375 190.45 509.375 190.795V193.295C509.375 193.64 509.655 193.92 510 193.92H512.5C512.845 193.92 513.125 193.64 513.125 193.295V190.795C513.125 190.45 512.845 190.17 512.5 190.17H510Z" fill="#5DE747"/>
<path d="M520.625 190.17H522.187C522.705 190.17 523.125 190.59 523.125 191.107V199.545C523.125 200.235 522.565 200.795 521.875 200.795C521.185 200.795 520.625 200.235 520.625 199.545V190.17Z" fill="#5DE747"/>
<circle cx="997.831" cy="250.85" r="15.1667" fill="#329FB7" fill-opacity="0.6"/>
<path fill-rule="evenodd" clip-rule="evenodd" d="M994.48 246.896C994.48 245.045 995.981 243.544 997.832 243.544C999.683 243.544 1001.18 245.045 1001.18 246.896C1001.18 248.748 999.683 250.249 997.832 250.249C995.981 250.249 994.48 248.748 994.48 246.896Z" fill="#54D7F3"/>
<path fill-rule="evenodd" clip-rule="evenodd" d="M1001.18 249.578C1001.18 248.097 1002.39 246.896 1003.87 246.896C1005.35 246.896 1006.55 248.097 1006.55 249.578C1006.55 251.059 1005.35 252.26 1003.87 252.26C1002.39 252.26 1001.18 251.059 1001.18 249.578Z" fill="#54D7F3"/>
<path fill-rule="evenodd" clip-rule="evenodd" d="M989.116 249.578C989.116 248.097 990.317 246.896 991.798 246.896C993.279 246.896 994.48 248.097 994.48 249.578C994.48 251.059 993.279 252.26 991.798 252.26C990.317 252.26 989.116 251.059 989.116 249.578Z" fill="#54D7F3"/>
<path fill-rule="evenodd" clip-rule="evenodd" d="M992.745 254.377C993.816 252.702 995.694 251.59 997.832 251.59C999.97 251.59 1001.85 252.702 1002.92 254.377C1003.66 255.535 1003.98 256.931 1003.83 258.293C1003.81 258.505 1003.68 258.694 1003.5 258.801C1001.83 259.758 999.893 260.306 997.832 260.306C995.771 260.306 993.836 259.758 992.167 258.801C991.981 258.694 991.858 258.505 991.834 258.293C991.684 256.931 992.005 255.535 992.745 254.377Z" fill="#54D7F3"/>
<path d="M991.648 253.604C991.637 253.621 991.626 253.638 991.616 253.654C990.753 255.004 990.358 256.611 990.479 258.195C989.935 258.113 989.408 257.98 988.902 257.802L988.799 257.765C988.611 257.699 988.48 257.529 988.465 257.331L988.456 257.222C988.449 257.134 988.445 257.044 988.445 256.953C988.445 255.152 989.866 253.683 991.648 253.604Z" fill="#54D7F3"/>
<path d="M1005.19 258.195C1005.31 256.611 1004.91 255.004 1004.05 253.655C1004.04 253.638 1004.03 253.621 1004.02 253.604C1005.8 253.683 1007.22 255.152 1007.22 256.953C1007.22 257.044 1007.22 257.134 1007.21 257.222L1007.2 257.331C1007.18 257.529 1007.05 257.699 1006.87 257.765L1006.76 257.802C1006.26 257.98 1005.73 258.113 1005.19 258.195Z" fill="#54D7F3"/>
<circle cx="474.028" cy="381.061" r="4.80894" fill="#FF4264" fill-opacity="0.8"/>
<circle cx="473.659" cy="381.431" r="7.76147" stroke="#979797" stroke-opacity="0.6" stroke-width="2.20587"/>
<path fill-rule="evenodd" clip-rule="evenodd" d="M660.688 339.545V340.045H659.446C658.846 340.045 658.343 340.528 658.28 341.164L657.491 349.164C657.418 349.902 657.961 350.545 658.656 350.545H668.344C669.04 350.545 669.583 349.902 669.51 349.164L668.72 341.164C668.658 340.528 668.155 340.045 667.555 340.045H666.313V339.545C666.313 337.888 665.054 336.545 663.5 336.545C661.947 336.545 660.688 337.888 660.688 339.545ZM663.5 337.545C662.465 337.545 661.625 338.44 661.625 339.545V340.045H665.375V339.545C665.375 338.44 664.536 337.545 663.5 337.545ZM661.625 343.045C661.625 344.149 662.465 345.045 663.5 345.045C664.536 345.045 665.375 344.149 665.375 343.045V342.545C665.375 342.269 665.585 342.045 665.844 342.045C666.103 342.045 666.313 342.269 666.313 342.545V343.045C666.313 344.702 665.054 346.045 663.5 346.045C661.947 346.045 660.688 344.702 660.688 343.045V342.545C660.688 342.269 660.898 342.045 661.157 342.045C661.415 342.045 661.625 342.269 661.625 342.545V343.045Z" fill="#FF8374"/>
</g>
<defs>
<filter id="filter0_f_261_204369" x="-1025.21" y="-364.213" width="2227.43" height="2197.43" filterUnits="userSpaceOnUse" color-interpolation-filters="sRGB">
<feFlood flood-opacity="0" result="BackgroundImageFix"/>
<feBlend mode="normal" in="SourceGraphic" in2="BackgroundImageFix" result="shape"/>
<feGaussianBlur stdDeviation="471.607" result="effect1_foregroundBlur_261_204369"/>
</filter>
<filter id="filter1_f_261_204369" x="451.787" y="-364.213" width="2226.43" height="2197.43" filterUnits="userSpaceOnUse" color-interpolation-filters="sRGB">
<feFlood flood-opacity="0" result="BackgroundImageFix"/>
<feBlend mode="normal" in="SourceGraphic" in2="BackgroundImageFix" result="shape"/>
<feGaussianBlur stdDeviation="471.607" result="effect1_foregroundBlur_261_204369"/>
</filter>
<filter id="filter2_f_261_204369" x="-186.801" y="-151.801" width="2249.6" height="1110.6" filterUnits="userSpaceOnUse" color-interpolation-filters="sRGB">
<feFlood flood-opacity="0" result="BackgroundImageFix"/>
<feBlend mode="normal" in="SourceGraphic" in2="BackgroundImageFix" result="shape"/>
<feGaussianBlur stdDeviation="52.4007" result="effect1_foregroundBlur_261_204369"/>
</filter>
<clipPath id="clip0_261_204369">
<rect width="1038" height="537" rx="10" fill="white"/>
</clipPath>
<clipPath id="clip1_261_204369">
<rect width="13.3171" height="13.3171" fill="white" transform="translate(717.062 113.609)"/>
</clipPath>
</defs>
</svg>
