<svg width="14" height="14" viewBox="0 0 14 14" fill="none" xmlns="http://www.w3.org/2000/svg">
<path d="M9.08878 7.00044C9.08878 8.15544 8.15544 9.08878 7.00044 9.08878C5.84544 9.08878 4.91211 8.15544 4.91211 7.00044C4.91211 5.84544 5.84544 4.91211 7.00044 4.91211C8.15544 4.91211 9.08878 5.84544 9.08878 7.00044Z" stroke="#5F833B" stroke-linecap="round" stroke-linejoin="round"/>
<path d="M7.00089 11.8241C9.06005 11.8241 10.9792 10.6108 12.3151 8.51075C12.8401 7.68825 12.8401 6.30575 12.3151 5.48325C10.9792 3.38325 9.06005 2.16992 7.00089 2.16992C4.94172 2.16992 3.02255 3.38325 1.68672 5.48325C1.16172 6.30575 1.16172 7.68825 1.68672 8.51075C3.02255 10.6108 4.94172 11.8241 7.00089 11.8241Z" stroke="#5F833B" stroke-linecap="round" stroke-linejoin="round"/>
</svg>
