<svg width="24" height="26" viewBox="0 0 24 26" fill="none" xmlns="http://www.w3.org/2000/svg">
<g opacity="0.5">
<path d="M9.70031 14.352C9.62831 14.352 8.04431 14.352 7.32431 14.352C6.94031 14.352 6.82031 14.196 6.82031 13.806C6.82031 12.766 6.82031 11.7 6.82031 10.66C6.82031 10.244 6.96431 10.114 7.32431 10.114H9.70031C9.70031 10.036 9.70031 8.52798 9.70031 7.82598C9.70031 6.78598 9.86831 5.79798 10.3483 4.88798C10.8523 3.95198 11.5723 3.32798 12.4843 2.96398C13.0843 2.72998 13.6843 2.62598 14.3323 2.62598H16.6843C17.0203 2.62598 17.1643 2.78198 17.1643 3.14598V6.10998C17.1643 6.47398 17.0203 6.62998 16.6843 6.62998C16.0363 6.62998 15.3883 6.62998 14.7403 6.65598C14.0923 6.65598 13.7563 6.99398 13.7563 7.72198C13.7323 8.50198 13.7563 9.25598 13.7563 10.062H16.5403C16.9243 10.062 17.0683 10.218 17.0683 10.634V13.78C17.0683 14.196 16.9483 14.326 16.5403 14.326C15.6763 14.326 13.8283 14.326 13.7563 14.326V22.802C13.7563 23.244 13.6363 23.4 13.2043 23.4C12.1963 23.4 11.2123 23.4 10.2043 23.4C9.84431 23.4 9.70031 23.244 9.70031 22.854C9.70031 20.124 9.70031 14.43 9.70031 14.352Z" fill="#11112B"/>
</g>
</svg>
