<svg width="30" height="30" viewBox="0 0 30 30" fill="none" xmlns="http://www.w3.org/2000/svg">
<path d="M0 6.21818C0 2.78397 2.78397 0 6.21818 0H23.7818C27.216 0 30 2.78397 30 6.21818V23.7818C30 27.216 27.216 30 23.7818 30H6.21818C2.78397 30 0 27.216 0 23.7818V6.21818Z" fill="#E2C529"/>
<g clip-path="url(#clip0_81_18455)">
<path d="M18.6316 16.0754L19.0746 13.1894H16.3052V11.3166C16.3052 10.5272 16.692 9.75722 17.9324 9.75722H19.1912V7.30033C19.1912 7.30033 18.049 7.10547 16.9566 7.10547C14.6761 7.10547 13.1855 8.48791 13.1855 10.9901V13.1899H10.6504V16.0759H13.1855V23.0528H16.3052V16.0759L18.6316 16.0754Z" fill="white"/>
</g>
<defs>
<clipPath id="clip0_81_18455">
<rect width="15.9474" height="15.9474" fill="white" transform="translate(6.94727 7.10547)"/>
</clipPath>
</defs>
</svg>
