<svg width="24" height="24" viewBox="0 0 24 24" fill="none" xmlns="http://www.w3.org/2000/svg">
<path d="M19.7501 15.41L18.9001 14.56C19.3401 13.89 19.6001 13.1 19.6001 12.24C19.6001 9.89999 17.7001 8 15.3601 8C13.0201 8 11.1201 9.89999 11.1201 12.24C11.1201 14.58 13.0201 16.48 15.3601 16.48C16.2201 16.48 17.0201 16.22 17.6801 15.78L18.5302 16.63C18.7002 16.8 18.9201 16.88 19.1401 16.88C19.3601 16.88 19.5801 16.8 19.7501 16.63C20.0801 16.29 20.0801 15.74 19.7501 15.41Z" fill="#5F833B"/>
<path opacity="0.4" d="M5.41016 2H18.5802C19.6802 2 20.5802 2.90999 20.5802 4.01999V6.23999C20.5802 7.04999 20.0802 8.06 19.5802 8.56L15.2902 12.4C14.6902 12.91 14.2902 13.92 14.2902 14.72V19.06C14.2902 19.67 13.8902 20.47 13.3902 20.78L11.9902 21.69C10.6902 22.5 8.90021 21.59 8.90021 19.97V14.62C8.90021 13.91 8.50016 13 8.10016 12.5L4.31018 8.45999C3.81018 7.94999 3.41016 7.05 3.41016 6.44V4.12C3.42016 2.91 4.32016 2 5.41016 2Z" fill="#5F833B"/>
</svg>
