<svg width="686" height="115" viewBox="0 0 686 115" fill="none" xmlns="http://www.w3.org/2000/svg">
<path d="M619 57.5C619 60.6829 617.266 64.0616 613.35 67.6053C609.439 71.1441 603.558 74.6516 595.797 78.0495C580.29 84.8389 557.727 91.0005 529.692 96.1921C473.656 106.569 396.159 113 310.5 113C224.841 113 147.344 106.569 91.3075 96.1921C63.2728 91.0005 40.7098 84.8389 25.2028 78.0495C17.442 74.6516 11.5606 71.1441 7.65026 67.6053C3.73443 64.0616 2 60.6829 2 57.5C2 54.3171 3.73443 50.9384 7.65026 47.3947C11.5606 43.8559 17.442 40.3484 25.2028 36.9505C40.7098 30.1611 63.2728 23.9995 91.3075 18.8079C147.344 8.43077 224.841 2 310.5 2C396.159 2 473.656 8.43077 529.692 18.8079C557.727 23.9995 580.29 30.1611 595.797 36.9505C603.558 40.3484 609.439 43.8559 613.35 47.3947C617.266 50.9384 619 54.3171 619 57.5Z" stroke="url(#paint0_linear_481_12049)" stroke-width="4"/>
<defs>
<linearGradient id="paint0_linear_481_12049" x1="310.5" y1="0" x2="310.5" y2="115" gradientUnits="userSpaceOnUse">
<stop stop-color="#5F833B"/>
<stop offset="1" stop-color="#3B6115"/>
</linearGradient>
</defs>
</svg>
