<svg width="11" height="11" viewBox="0 0 11 11" fill="none" xmlns="http://www.w3.org/2000/svg">
<path fill-rule="evenodd" clip-rule="evenodd" d="M4.77636 1.38553C4.80635 1.29042 4.86589 1.20735 4.94631 1.14838C5.02674 1.08941 5.12387 1.05762 5.2236 1.05762C5.32333 1.05762 5.42046 1.08941 5.50088 1.14838C5.58131 1.20735 5.64084 1.29042 5.67084 1.38553L6.47847 3.86921H9.08373C9.18702 3.86531 9.28876 3.89533 9.37338 3.95468C9.45801 4.01404 9.52088 4.09947 9.55238 4.19792C9.58389 4.29637 9.5823 4.40243 9.54785 4.49988C9.5134 4.59734 9.448 4.68085 9.36162 4.73763L7.24702 6.2704L8.05465 8.75842C8.08659 8.8532 8.0874 8.9557 8.05695 9.05096C8.0265 9.14623 7.96639 9.22926 7.88541 9.28794C7.80442 9.34662 7.7068 9.37787 7.60679 9.37713C7.50678 9.37639 7.40963 9.34369 7.32952 9.28382L5.21057 7.73369L3.09597 9.27079C3.01586 9.33067 2.91871 9.36336 2.8187 9.3641C2.71869 9.36484 2.62107 9.33359 2.54008 9.27491C2.45909 9.21623 2.39899 9.1332 2.36854 9.03794C2.33809 8.94267 2.3389 8.84017 2.37084 8.7454L3.17847 6.25737L1.06386 4.72461C0.977491 4.66782 0.912085 4.58432 0.877638 4.48686C0.843192 4.3894 0.841599 4.28334 0.873103 4.18489C0.904607 4.08644 0.967476 4.00101 1.0521 3.94166C1.13673 3.8823 1.23846 3.85228 1.34176 3.85619H3.94702L4.77636 1.38553Z" fill="#FBAD39"/>
</svg>
