<svg width="37" height="37" viewBox="0 0 37 37" fill="none" xmlns="http://www.w3.org/2000/svg">
<rect width="37" height="37" rx="8" fill="#5F833B"/>
<g clip-path="url(#clip0_72_8012)">
<path d="M17.1799 13.6829C16.7132 11.6646 13.674 11.6588 13.2074 13.6829C12.9332 14.8671 13.6857 15.8704 14.339 16.4946C14.8174 16.9438 15.5699 16.9438 16.0482 16.4946C16.7015 15.8704 17.4482 14.8671 17.1799 13.6829ZM15.214 14.6163C14.8932 14.6163 14.6307 14.3538 14.6307 14.0329C14.6307 13.7121 14.8874 13.4496 15.2082 13.4496H15.214C15.5407 13.4496 15.7974 13.7121 15.7974 14.0329C15.7974 14.3538 15.5407 14.6163 15.214 14.6163Z" fill="white"/>
<path d="M24.7808 20.6829C24.3142 18.6646 21.2633 18.6588 20.7908 20.6829C20.5167 21.8671 21.2692 22.8704 21.9283 23.4946C22.4067 23.9438 23.165 23.9438 23.6433 23.4946C24.3025 22.8704 25.055 21.8671 24.7808 20.6829ZM22.8092 21.6163C22.4883 21.6163 22.2258 21.3538 22.2258 21.0329C22.2258 20.7121 22.4825 20.4496 22.8033 20.4496H22.8092C23.13 20.4496 23.3925 20.7121 23.3925 21.0329C23.3925 21.3538 23.13 21.6163 22.8092 21.6163Z" fill="white"/>
<path d="M19.0002 22.5212H17.4368C16.7602 22.5212 16.171 22.1128 15.9377 21.4828C15.6985 20.8528 15.8735 20.1587 16.381 19.7095L21.0418 15.632C21.3218 15.387 21.3277 15.0545 21.246 14.827C21.1585 14.5995 20.9368 14.3545 20.5635 14.3545H19.0002C18.761 14.3545 18.5627 14.1562 18.5627 13.917C18.5627 13.6778 18.761 13.4795 19.0002 13.4795H20.5635C21.2402 13.4795 21.8293 13.8878 22.0627 14.5178C22.3018 15.1478 22.1268 15.842 21.6193 16.2912L16.9585 20.3687C16.6785 20.6137 16.6727 20.9462 16.7543 21.1737C16.8418 21.4012 17.0635 21.6462 17.4368 21.6462H19.0002C19.2393 21.6462 19.4377 21.8445 19.4377 22.0837C19.4377 22.3228 19.2393 22.5212 19.0002 22.5212Z" fill="white"/>
</g>
<defs>
<clipPath id="clip0_72_8012">
<rect width="14" height="14" fill="white" transform="translate(12 11)"/>
</clipPath>
</defs>
</svg>
