<svg width="66" height="11" viewBox="0 0 66 11" fill="none" xmlns="http://www.w3.org/2000/svg">
<path fill-rule="evenodd" clip-rule="evenodd" d="M4.77636 1.38504C4.80635 1.28993 4.86589 1.20686 4.94631 1.14789C5.02674 1.08892 5.12387 1.05713 5.2236 1.05713C5.32333 1.05713 5.42046 1.08892 5.50088 1.14789C5.58131 1.20686 5.64084 1.28993 5.67084 1.38504L6.47847 3.86873H9.08373C9.18702 3.86482 9.28876 3.89484 9.37338 3.95419C9.45801 4.01355 9.52088 4.09898 9.55238 4.19743C9.58389 4.29588 9.5823 4.40194 9.54785 4.4994C9.5134 4.59686 9.448 4.68036 9.36162 4.73715L7.24702 6.26991L8.05465 8.75794C8.08659 8.85271 8.0874 8.95521 8.05695 9.05047C8.0265 9.14574 7.96639 9.22877 7.88541 9.28745C7.80442 9.34613 7.7068 9.37738 7.60679 9.37664C7.50678 9.3759 7.40963 9.3432 7.32952 9.28333L5.21057 7.7332L3.09597 9.2703C3.01586 9.33018 2.91871 9.36287 2.8187 9.36361C2.71869 9.36435 2.62107 9.3331 2.54008 9.27442C2.45909 9.21574 2.39899 9.13271 2.36854 9.03745C2.33809 8.94218 2.3389 8.83968 2.37084 8.74491L3.17847 6.25688L1.06386 4.72412C0.977491 4.66733 0.912085 4.58383 0.877638 4.48637C0.843192 4.38891 0.841599 4.28285 0.873103 4.1844C0.904607 4.08595 0.967476 4.00052 1.0521 3.94117C1.13673 3.88181 1.23846 3.85179 1.34176 3.8557H3.94702L4.77636 1.38504Z" fill="#FBAD39"/>
<path fill-rule="evenodd" clip-rule="evenodd" d="M18.6711 1.38504C18.7011 1.28993 18.7606 1.20686 18.841 1.14789C18.9215 1.08892 19.0186 1.05713 19.1183 1.05713C19.218 1.05713 19.3152 1.08892 19.3956 1.14789C19.476 1.20686 19.5356 1.28993 19.5656 1.38504L20.3732 3.86873H22.9784C23.0817 3.86482 23.1835 3.89484 23.2681 3.95419C23.3527 4.01355 23.4156 4.09898 23.4471 4.19743C23.4786 4.29588 23.477 4.40194 23.4426 4.4994C23.4081 4.59686 23.3427 4.68036 23.2563 4.73715L21.1417 6.26991L21.9494 8.75794C21.9813 8.85271 21.9821 8.95521 21.9517 9.05047C21.9212 9.14574 21.8611 9.22877 21.7801 9.28745C21.6991 9.34613 21.6015 9.37738 21.5015 9.37664C21.4015 9.3759 21.3043 9.3432 21.2242 9.28333L19.1053 7.7332L16.9907 9.2703C16.9106 9.33018 16.8134 9.36287 16.7134 9.36361C16.6134 9.36435 16.5158 9.3331 16.4348 9.27442C16.3538 9.21574 16.2937 9.13271 16.2633 9.03745C16.2328 8.94218 16.2336 8.83968 16.2656 8.74491L17.0732 6.25688L14.9586 4.72412C14.8722 4.66733 14.8068 4.58383 14.7724 4.48637C14.7379 4.38891 14.7363 4.28285 14.7678 4.1844C14.7993 4.08595 14.8622 4.00052 14.9468 3.94117C15.0314 3.88181 15.1332 3.85179 15.2365 3.8557H17.8417L18.6711 1.38504Z" fill="#FBAD39"/>
<path fill-rule="evenodd" clip-rule="evenodd" d="M46.4606 1.38504C46.4906 1.28993 46.5501 1.20686 46.6305 1.14789C46.7109 1.08892 46.8081 1.05713 46.9078 1.05713C47.0075 1.05713 47.1047 1.08892 47.1851 1.14789C47.2655 1.20686 47.325 1.28993 47.355 1.38504L48.1627 3.86873H50.7679C50.8712 3.86482 50.973 3.89484 51.0576 3.95419C51.1422 4.01355 51.2051 4.09898 51.2366 4.19743C51.2681 4.29588 51.2665 4.40194 51.2321 4.4994C51.1976 4.59686 51.1322 4.68036 51.0458 4.73715L48.9312 6.26991L49.7389 8.75794C49.7708 8.85271 49.7716 8.95521 49.7412 9.05047C49.7107 9.14574 49.6506 9.22877 49.5696 9.28745C49.4886 9.34613 49.391 9.37738 49.291 9.37664C49.191 9.3759 49.0938 9.3432 49.0137 9.28333L46.8948 7.7332L44.7802 9.2703C44.7001 9.33018 44.6029 9.36287 44.5029 9.36361C44.4029 9.36435 44.3053 9.3331 44.2243 9.27442C44.1433 9.21574 44.0832 9.13271 44.0527 9.03745C44.0223 8.94218 44.0231 8.83968 44.055 8.74491L44.8627 6.25688L42.7481 4.72412C42.6617 4.66733 42.5963 4.58383 42.5618 4.48637C42.5274 4.38891 42.5258 4.28285 42.5573 4.1844C42.5888 4.08595 42.6517 4.00052 42.7363 3.94117C42.8209 3.88181 42.9227 3.85179 43.026 3.8557H45.6312L46.4606 1.38504Z" fill="#FBAD39"/>
<path fill-rule="evenodd" clip-rule="evenodd" d="M32.5659 1.38504C32.5958 1.28993 32.6554 1.20686 32.7358 1.14789C32.8162 1.08892 32.9134 1.05713 33.0131 1.05713C33.1128 1.05713 33.2099 1.08892 33.2904 1.14789C33.3708 1.20686 33.4303 1.28993 33.4603 1.38504L34.268 3.86873H36.8732C36.9765 3.86482 37.0782 3.89484 37.1629 3.95419C37.2475 4.01355 37.3104 4.09898 37.3419 4.19743C37.3734 4.29588 37.3718 4.40194 37.3373 4.4994C37.3029 4.59686 37.2375 4.68036 37.1511 4.73715L35.0365 6.26991L35.8441 8.75794C35.8761 8.85271 35.8769 8.95521 35.8464 9.05047C35.816 9.14574 35.7559 9.22877 35.6749 9.28745C35.5939 9.34613 35.4963 9.37738 35.3963 9.37664C35.2963 9.3759 35.1991 9.3432 35.119 9.28333L33.0001 7.7332L30.8855 9.2703C30.8053 9.33018 30.7082 9.36287 30.6082 9.36361C30.5082 9.36435 30.4106 9.3331 30.3296 9.27442C30.2486 9.21574 30.1885 9.13271 30.158 9.03745C30.1276 8.94218 30.1284 8.83968 30.1603 8.74491L30.968 6.25688L28.8534 4.72412C28.767 4.66733 28.7016 4.58383 28.6671 4.48637C28.6327 4.38891 28.6311 4.28285 28.6626 4.1844C28.6941 4.08595 28.757 4.00052 28.8416 3.94117C28.9262 3.88181 29.028 3.85179 29.1312 3.8557H31.7365L32.5659 1.38504Z" fill="#FBAD39"/>
<g clip-path="url(#clip0_41_2702)">
<path fill-rule="evenodd" clip-rule="evenodd" d="M60.3553 1.38504C60.3853 1.28993 60.4449 1.20686 60.5253 1.14789C60.6057 1.08892 60.7029 1.05713 60.8026 1.05713C60.9023 1.05713 60.9994 1.08892 61.0799 1.14789C61.1603 1.20686 61.2198 1.28993 61.2498 1.38504L62.0574 3.86873H64.6627C64.766 3.86482 64.8677 3.89484 64.9524 3.95419C65.037 4.01355 65.0999 4.09898 65.1314 4.19743C65.1629 4.29588 65.1613 4.40194 65.1268 4.4994C65.0924 4.59686 65.027 4.68036 64.9406 4.73715L62.826 6.26991L63.6336 8.75794C63.6656 8.85271 63.6664 8.95521 63.6359 9.05047C63.6055 9.14574 63.5454 9.22877 63.4644 9.28745C63.3834 9.34613 63.2858 9.37738 63.1858 9.37664C63.0858 9.3759 62.9886 9.3432 62.9085 9.28333L60.7896 7.7332L58.6749 9.2703C58.5948 9.33018 58.4977 9.36287 58.3977 9.36361C58.2977 9.36435 58.2 9.3331 58.1191 9.27442C58.0381 9.21574 57.978 9.13271 57.9475 9.03745C57.9171 8.94219 57.9179 8.83968 57.9498 8.74491L58.7574 6.25688L56.6428 4.72412C56.5565 4.66733 56.4911 4.58383 56.4566 4.48637C56.4222 4.38891 56.4206 4.28285 56.4521 4.1844C56.4836 4.08595 56.5465 4.00052 56.6311 3.94117C56.7157 3.88181 56.8174 3.85179 56.9207 3.8557H59.526L60.3553 1.38504Z" stroke="#CACACA" stroke-linecap="round" stroke-linejoin="round"/>
</g>
<defs>
<clipPath id="clip0_41_2702">
<rect width="10.4211" height="10.4211" fill="white" transform="translate(55.579)"/>
</clipPath>
</defs>
</svg>
