<svg width="35" height="35" viewBox="0 0 35 35" fill="none" xmlns="http://www.w3.org/2000/svg">
<circle cx="17.5" cy="17.5" r="16" fill="white" stroke="#3C6216" stroke-width="3"/>
<path d="M27.3258 17.7148C27.3258 17.9871 27.235 18.2291 27.0534 18.4107L22.2123 23.2519C21.8492 23.6452 21.2138 23.6452 20.8507 23.2519C20.4573 22.8888 20.4573 22.2534 20.8507 21.8903L24.9959 17.7148L20.8507 13.5695C20.4573 13.2064 20.4573 12.571 20.8507 12.2079C21.2138 11.8146 21.8492 11.8146 22.2123 12.2079L27.0534 17.0491C27.235 17.2306 27.3258 17.4727 27.3258 17.7148Z" fill="#231F20"/>
<path d="M8.03276 17.7148C8.03276 17.9871 8.12353 18.2291 8.30507 18.4107L13.1463 23.2519C13.5094 23.6452 14.1448 23.6452 14.5078 23.2519C14.9012 22.8888 14.9012 22.2534 14.5078 21.8903L10.3626 17.7148L14.5078 13.5695C14.9012 13.2064 14.9012 12.571 14.5078 12.2079C14.1448 11.8146 13.5094 11.8146 13.1463 12.2079L8.30507 17.0491C8.12353 17.2306 8.03276 17.4727 8.03276 17.7148Z" fill="#231F20"/>
</svg>
