<svg width="6482" height="6407" viewBox="0 0 6482 6407" fill="none" xmlns="http://www.w3.org/2000/svg">
<path d="M6458.03 6347.53C6472.01 6344.66 6481.44 6348.2 6481.95 6350.39C6482.45 6352.58 6475.38 6357.63 6460.73 6360.5C6444.9 6363.7 6376.68 6377.34 6368.09 6379.19C6359.51 6381.04 6350.58 6380.88 6328.68 6380.54V6378.69C6328.68 6378.69 6338.28 6374.98 6350.07 6370.94C6361.86 6366.9 6366.24 6366.73 6375.67 6364.71C6385.11 6362.69 6442.54 6350.73 6458.03 6347.53Z" fill="url(#paint0_linear_216_67713)" stroke="#828993" stroke-width="0.002525" stroke-miterlimit="10"/>
<path d="M6354.79 6379.36C6354.45 6379.19 6357.99 6376.16 6364.73 6371.44C6371.47 6366.73 6382.41 6363.19 6382.41 6363.19C6379.38 6363.86 6377.02 6364.37 6375.68 6364.54C6366.24 6366.56 6361.86 6366.73 6350.08 6370.77C6338.29 6374.81 6328.69 6378.52 6328.69 6378.52V6380.37C6342.5 6380.54 6351.09 6380.71 6357.82 6380.37C6357.82 6380.37 6356.14 6379.86 6354.79 6379.36Z" fill="url(#paint1_linear_216_67713)"/>
<path d="M6346.71 6379.86C6346.71 6379.86 6355.46 6370.43 6371.13 6365.55C6368.26 6366.05 6365.74 6366.56 6362.87 6367.23C6348.73 6372.12 6341.99 6380.2 6341.99 6380.2C6342.33 6380.37 6343.67 6380.71 6343.67 6380.71C6345.53 6380.71 6347.38 6380.71 6348.9 6380.71L6346.71 6379.86Z" fill="url(#paint2_linear_216_67713)" stroke="#8D8F92" stroke-width="0.002525" stroke-miterlimit="10"/>
<path d="M6363.04 6367.23C6361.02 6367.74 6358.83 6368.24 6356.14 6368.92C6345.53 6373.3 6338.46 6380.2 6338.46 6380.2C6338.96 6380.37 6340.14 6380.54 6340.14 6380.54C6341.49 6380.54 6342.67 6380.54 6343.84 6380.54C6343.84 6380.54 6342.5 6380.2 6342.16 6380.03C6342.16 6380.03 6348.9 6371.95 6363.04 6367.23Z" fill="url(#paint3_linear_216_67713)" stroke="#8D8F92" stroke-width="0.002525" stroke-miterlimit="10"/>
<path opacity="0.3" d="M6472.85 6346.69C6472.85 6346.69 6471.68 6348.54 6461.91 6350.56C6452.14 6352.58 6432.1 6356.79 6428.56 6357.46C6425.02 6358.14 6424.01 6355.78 6409.36 6358.98C6394.71 6362.01 6398.41 6363.86 6389.15 6365.72C6379.88 6367.57 6356.98 6372.45 6350.07 6373.8C6343.17 6375.15 6328.68 6378.52 6328.68 6378.52V6380.37C6350.58 6380.71 6359.51 6380.88 6368.09 6379.02C6376.68 6377.17 6444.73 6363.53 6460.73 6360.33C6475.38 6357.3 6482.45 6352.41 6481.95 6350.22C6481.61 6349.04 6478.24 6347.36 6472.85 6346.69Z" fill="url(#paint4_linear_216_67713)"/>
<path opacity="0.3" d="M6479.26 6348.2C6479.43 6348.2 6482.12 6349.89 6478.41 6352.24C6475.55 6354.1 6472.86 6355.11 6466.96 6356.45C6461.07 6357.63 6437.66 6362.52 6434.62 6363.19C6430.75 6364.03 6429.4 6360.66 6427.38 6359.32C6426.03 6358.48 6422.16 6357.46 6407.17 6360.66C6402.29 6361.68 6392.86 6364.37 6389.15 6366.39C6383.42 6369.42 6385.11 6373.13 6382.92 6373.63C6377.36 6374.81 6370.79 6376.16 6364.56 6377.51C6358.33 6378.85 6328.52 6378.69 6328.52 6378.69V6380.54C6350.41 6380.88 6359.34 6381.04 6367.93 6379.19C6376.52 6377.34 6444.56 6363.7 6460.56 6360.5C6475.21 6357.46 6482.29 6352.58 6481.78 6350.39C6481.78 6349.72 6480.94 6348.87 6479.26 6348.2Z" fill="url(#paint5_linear_216_67713)"/>
<path d="M6449.28 6352.75C6449.28 6352.92 6449.28 6353.08 6449.11 6353.08L6448.6 6353.25C6448.44 6353.25 6448.44 6353.25 6448.27 6353.08L6448.1 6352.24C6448.1 6352.07 6448.1 6351.91 6448.27 6351.91L6448.77 6351.74C6448.94 6351.74 6448.94 6351.74 6449.11 6351.91L6449.28 6352.75Z" fill="url(#paint6_linear_216_67713)" stroke="black" stroke-width="0.001275" stroke-miterlimit="10"/>
<path d="M6447.59 6353.09C6447.59 6353.25 6447.59 6353.42 6447.42 6353.42L6446.92 6353.59C6446.75 6353.59 6446.75 6353.59 6446.58 6353.42L6446.41 6352.58C6446.41 6352.41 6446.41 6352.24 6446.58 6352.24L6447.09 6352.07C6447.26 6352.07 6447.26 6352.07 6447.42 6352.24L6447.59 6353.09Z" fill="url(#paint7_linear_216_67713)" stroke="black" stroke-width="0.001275" stroke-miterlimit="10"/>
<path d="M6445.91 6353.42C6445.91 6353.59 6445.91 6353.76 6445.74 6353.76L6445.24 6353.93C6445.07 6353.93 6445.07 6353.93 6444.9 6353.76L6444.73 6352.92C6444.73 6352.75 6444.73 6352.58 6444.9 6352.58L6445.4 6352.41C6445.57 6352.41 6445.57 6352.41 6445.74 6352.58L6445.91 6353.42Z" fill="url(#paint8_linear_216_67713)" stroke="black" stroke-width="0.001275" stroke-miterlimit="10"/>
<path d="M6444.23 6353.76C6444.23 6353.93 6444.23 6354.1 6444.06 6354.1L6443.55 6354.26C6443.38 6354.26 6443.38 6354.26 6443.22 6354.1L6443.05 6353.25C6443.05 6353.08 6443.05 6352.92 6443.22 6352.92L6443.72 6352.75C6443.89 6352.75 6443.89 6352.75 6444.06 6352.92L6444.23 6353.76Z" fill="url(#paint9_linear_216_67713)" stroke="black" stroke-width="0.001275" stroke-miterlimit="10"/>
<path d="M6442.54 6354.1C6442.54 6354.26 6442.54 6354.26 6442.37 6354.43L6441.87 6354.6C6441.7 6354.6 6441.7 6354.6 6441.53 6354.43L6441.36 6353.76C6441.36 6353.59 6441.36 6353.59 6441.53 6353.42L6442.04 6353.25C6442.2 6353.25 6442.2 6353.25 6442.37 6353.42L6442.54 6354.1Z" fill="url(#paint10_linear_216_67713)" stroke="black" stroke-width="0.001275" stroke-miterlimit="10"/>
<path d="M6441.03 6354.43C6441.03 6354.6 6441.03 6354.6 6440.86 6354.77L6440.35 6354.94C6440.18 6354.94 6440.18 6354.94 6440.18 6354.77L6440.02 6354.1C6440.02 6353.93 6440.02 6353.93 6440.18 6353.76L6440.69 6353.59C6440.86 6353.59 6440.86 6353.59 6440.86 6353.76L6441.03 6354.43Z" fill="url(#paint11_linear_216_67713)" stroke="black" stroke-width="0.001275" stroke-miterlimit="10"/>
<path d="M6439.51 6354.77C6439.51 6354.94 6439.51 6354.94 6439.34 6354.94L6438.83 6355.11C6438.67 6355.11 6438.67 6355.11 6438.67 6354.94L6438.5 6354.26C6438.5 6354.1 6438.5 6354.1 6438.67 6354.1L6439.17 6353.93C6439.34 6353.93 6439.34 6353.93 6439.34 6354.1L6439.51 6354.77Z" fill="url(#paint12_linear_216_67713)" stroke="black" stroke-width="0.001275" stroke-miterlimit="10"/>
<path d="M6437.99 6355.11C6437.99 6355.27 6437.99 6355.27 6437.83 6355.44L6437.32 6355.61C6437.15 6355.61 6437.15 6355.61 6437.15 6355.44L6436.98 6354.77C6436.98 6354.6 6436.98 6354.6 6437.15 6354.43L6437.66 6354.26C6437.83 6354.26 6437.83 6354.26 6437.83 6354.43L6437.99 6355.11Z" fill="url(#paint13_linear_216_67713)" stroke="black" stroke-width="0.001275" stroke-miterlimit="10"/>
<path d="M6436.48 6355.44C6436.48 6355.61 6436.48 6355.61 6436.31 6355.78L6435.8 6355.95C6435.64 6355.95 6435.64 6355.95 6435.64 6355.78L6435.47 6355.11C6435.47 6354.94 6435.47 6354.94 6435.64 6354.77L6436.14 6354.6C6436.31 6354.6 6436.31 6354.6 6436.31 6354.77L6436.48 6355.44Z" fill="url(#paint14_linear_216_67713)" stroke="black" stroke-width="0.001275" stroke-miterlimit="10"/>
<path d="M6435.13 6355.78C6435.13 6355.95 6435.13 6355.95 6434.96 6356.12L6434.46 6356.29C6434.29 6356.29 6434.29 6356.29 6434.29 6356.12L6434.12 6355.44C6434.12 6355.27 6434.12 6355.27 6434.29 6355.11L6434.79 6354.94C6434.96 6354.94 6434.96 6354.94 6434.96 6355.11L6435.13 6355.78Z" fill="url(#paint15_linear_216_67713)" stroke="black" stroke-width="0.001275" stroke-miterlimit="10"/>
<path d="M6433.78 6355.95C6433.78 6356.12 6433.78 6356.12 6433.62 6356.12L6433.11 6356.28C6432.94 6356.28 6432.94 6356.28 6432.94 6356.12L6432.77 6355.44C6432.77 6355.27 6432.77 6355.27 6432.94 6355.27L6433.45 6355.11C6433.62 6355.11 6433.62 6355.11 6433.62 6355.27L6433.78 6355.95Z" fill="url(#paint16_linear_216_67713)" stroke="black" stroke-width="0.001275" stroke-miterlimit="10"/>
<path d="M6432.27 6356.29C6432.27 6356.45 6432.27 6356.45 6432.1 6356.45L6431.59 6356.62C6431.42 6356.62 6431.42 6356.62 6431.42 6356.45L6431.26 6355.78C6431.26 6355.61 6431.26 6355.61 6431.42 6355.61L6431.93 6355.44C6432.1 6355.44 6432.1 6355.44 6432.1 6355.61L6432.27 6356.29Z" fill="url(#paint17_linear_216_67713)" stroke="black" stroke-width="0.001275" stroke-miterlimit="10"/>
<path d="M6431.09 6356.62C6431.09 6356.79 6431.09 6356.79 6430.92 6356.79L6430.41 6356.96C6430.25 6356.96 6430.25 6356.96 6430.25 6356.79L6430.08 6356.12C6430.08 6355.95 6430.08 6355.95 6430.25 6355.95L6430.75 6355.78C6430.92 6355.78 6430.92 6355.78 6430.92 6355.95L6431.09 6356.62Z" fill="url(#paint18_linear_216_67713)" stroke="black" stroke-width="0.001275" stroke-miterlimit="10"/>
<path d="M6450.96 6352.24C6450.96 6352.41 6450.96 6352.58 6450.79 6352.58L6450.29 6352.75C6450.12 6352.75 6450.12 6352.75 6449.95 6352.58L6449.78 6351.74C6449.78 6351.57 6449.78 6351.4 6449.95 6351.4L6450.46 6351.23C6450.63 6351.23 6450.63 6351.23 6450.79 6351.4L6450.96 6352.24Z" fill="url(#paint19_linear_216_67713)" stroke="black" stroke-width="0.001275" stroke-miterlimit="10"/>
<path d="M6424.69 6357.8C6424.69 6357.97 6424.69 6357.97 6424.52 6357.97L6424.18 6358.14C6424.01 6358.14 6424.01 6358.14 6424.01 6357.97L6423.85 6357.3C6423.85 6357.13 6423.85 6357.13 6424.01 6357.13L6424.35 6356.96C6424.52 6356.96 6424.52 6356.96 6424.52 6357.13L6424.69 6357.8Z" fill="url(#paint20_linear_216_67713)" stroke="black" stroke-width="0.001275" stroke-miterlimit="10"/>
<path d="M6423.51 6358.14C6423.51 6358.31 6423.51 6358.31 6423.34 6358.31L6423 6358.47C6422.84 6358.47 6422.84 6358.47 6422.84 6358.31L6422.67 6357.63C6422.67 6357.46 6422.67 6357.46 6422.84 6357.46L6423.17 6357.3C6423.34 6357.3 6423.34 6357.3 6423.34 6357.46L6423.51 6358.14Z" fill="url(#paint21_linear_216_67713)" stroke="black" stroke-width="0.001275" stroke-miterlimit="10"/>
<path d="M6422.33 6358.31C6422.33 6358.48 6422.33 6358.48 6422.16 6358.48L6421.83 6358.64C6421.66 6358.64 6421.66 6358.64 6421.66 6358.48L6421.49 6357.8C6421.49 6357.63 6421.49 6357.63 6421.66 6357.63L6421.99 6357.46C6422.16 6357.46 6422.16 6357.46 6422.16 6357.63L6422.33 6358.31Z" fill="url(#paint22_linear_216_67713)" stroke="black" stroke-width="0.001275" stroke-miterlimit="10"/>
<path d="M6421.15 6358.64C6421.15 6358.81 6421.15 6358.81 6420.98 6358.81H6420.65C6420.48 6358.81 6420.48 6358.81 6420.48 6358.64L6420.31 6357.97C6420.31 6357.8 6420.31 6357.8 6420.48 6357.8L6420.81 6357.63C6420.98 6357.63 6420.98 6357.63 6420.98 6357.8L6421.15 6358.64Z" fill="url(#paint23_linear_216_67713)" stroke="black" stroke-width="0.001275" stroke-miterlimit="10"/>
<path d="M6420.14 6358.81C6420.14 6358.98 6420.14 6358.98 6419.97 6358.98L6419.64 6359.15C6419.47 6359.15 6419.47 6359.15 6419.47 6358.98L6419.3 6358.31C6419.3 6358.14 6419.3 6358.14 6419.47 6358.14H6419.8C6419.97 6358.14 6419.97 6358.14 6419.97 6358.31L6420.14 6358.81Z" fill="url(#paint24_linear_216_67713)" stroke="black" stroke-width="0.001275" stroke-miterlimit="10"/>
<path d="M6418.96 6358.98C6418.96 6359.15 6418.96 6359.15 6418.79 6359.15L6418.46 6359.32C6418.29 6359.32 6418.29 6359.32 6418.29 6359.15L6418.12 6358.47C6418.12 6358.31 6418.12 6358.31 6418.29 6358.31L6418.63 6358.14C6418.79 6358.14 6418.79 6358.14 6418.79 6358.31L6418.96 6358.98Z" fill="url(#paint25_linear_216_67713)" stroke="black" stroke-width="0.001275" stroke-miterlimit="10"/>
<path d="M6417.95 6359.15C6417.95 6359.32 6417.95 6359.32 6417.78 6359.32L6417.44 6359.49C6417.28 6359.49 6417.28 6359.49 6417.28 6359.32L6417.11 6358.64C6417.11 6358.48 6417.11 6358.48 6417.28 6358.48L6417.61 6358.31C6417.78 6358.31 6417.78 6358.31 6417.78 6358.48L6417.95 6359.15Z" fill="url(#paint26_linear_216_67713)" stroke="black" stroke-width="0.001275" stroke-miterlimit="10"/>
<path d="M6416.94 6359.49C6416.94 6359.65 6416.94 6359.65 6416.77 6359.65L6416.43 6359.82C6416.27 6359.82 6416.27 6359.82 6416.27 6359.65L6416.1 6358.98C6416.1 6358.81 6416.1 6358.81 6416.27 6358.81L6416.6 6358.64C6416.77 6358.64 6416.77 6358.64 6416.77 6358.81L6416.94 6359.49Z" fill="url(#paint27_linear_216_67713)" stroke="black" stroke-width="0.001275" stroke-miterlimit="10"/>
<path d="M6415.93 6359.65C6415.93 6359.82 6415.93 6359.82 6415.76 6359.82H6415.42C6415.26 6359.82 6415.26 6359.82 6415.26 6359.65L6415.09 6358.98C6415.09 6358.81 6415.09 6358.81 6415.26 6358.81H6415.59C6415.76 6358.81 6415.76 6358.81 6415.76 6358.98L6415.93 6359.65Z" fill="url(#paint28_linear_216_67713)" stroke="black" stroke-width="0.001275" stroke-miterlimit="10"/>
<path d="M6414.92 6359.82C6414.92 6359.99 6414.92 6359.99 6414.75 6359.99H6414.41C6414.25 6359.99 6414.25 6359.99 6414.25 6359.82L6414.08 6359.15C6414.08 6358.98 6414.08 6358.98 6414.25 6358.98H6414.58C6414.75 6358.98 6414.75 6358.98 6414.75 6359.15L6414.92 6359.82Z" fill="url(#paint29_linear_216_67713)" stroke="black" stroke-width="0.001275" stroke-miterlimit="10"/>
<path d="M6413.91 6359.99C6413.91 6360.16 6413.91 6360.16 6413.74 6360.16H6413.4C6413.4 6360.16 6413.23 6360.16 6413.23 6359.99L6413.07 6359.32C6413.07 6359.15 6413.07 6359.15 6413.23 6359.15H6413.57C6413.57 6359.15 6413.74 6359.15 6413.74 6359.32L6413.91 6359.99Z" fill="url(#paint30_linear_216_67713)" stroke="black" stroke-width="0.001275" stroke-miterlimit="10"/>
<path d="M6412.9 6360.16C6412.9 6360.33 6412.9 6360.33 6412.73 6360.33H6412.39C6412.23 6360.33 6412.23 6360.33 6412.23 6360.16L6412.06 6359.48C6412.06 6359.32 6412.06 6359.32 6412.23 6359.32H6412.56C6412.56 6359.32 6412.73 6359.32 6412.73 6359.48L6412.9 6360.16Z" fill="url(#paint31_linear_216_67713)" stroke="black" stroke-width="0.001275" stroke-miterlimit="10"/>
<path d="M6412.06 6360.33C6412.06 6360.5 6412.06 6360.5 6411.89 6360.5H6411.55C6411.55 6360.5 6411.38 6360.5 6411.38 6360.33L6411.21 6359.65C6411.21 6359.49 6411.21 6359.49 6411.38 6359.49H6411.72C6411.72 6359.49 6411.89 6359.49 6411.89 6359.65L6412.06 6360.33Z" fill="url(#paint32_linear_216_67713)" stroke="black" stroke-width="0.001275" stroke-miterlimit="10"/>
<path d="M6411.05 6360.5C6411.05 6360.66 6411.05 6360.66 6410.88 6360.66H6410.54C6410.54 6360.66 6410.37 6360.66 6410.37 6360.5L6410.2 6359.82C6410.2 6359.65 6410.2 6359.65 6410.37 6359.65H6410.71C6410.71 6359.65 6410.88 6359.65 6410.88 6359.82L6411.05 6360.5Z" fill="url(#paint33_linear_216_67713)" stroke="black" stroke-width="0.001275" stroke-miterlimit="10"/>
<path d="M6406.67 6361.51C6406.67 6361.67 6406.67 6361.67 6406.5 6361.67H6406.16C6406.16 6361.67 6405.99 6361.67 6405.99 6361.51L6405.82 6360.83C6405.82 6360.66 6405.82 6360.66 6405.99 6360.66H6406.33C6406.33 6360.66 6406.5 6360.66 6406.5 6360.83L6406.67 6361.51Z" fill="url(#paint34_linear_216_67713)" stroke="black" stroke-width="0.001275" stroke-miterlimit="10"/>
<path d="M6405.83 6361.68C6405.83 6361.84 6405.83 6361.84 6405.66 6361.84H6405.32C6405.32 6361.84 6405.15 6361.84 6405.15 6361.68L6404.98 6361C6404.98 6360.83 6404.98 6360.83 6405.15 6360.83H6405.49C6405.49 6360.83 6405.66 6360.83 6405.66 6361L6405.83 6361.68Z" fill="url(#paint35_linear_216_67713)" stroke="black" stroke-width="0.001275" stroke-miterlimit="10"/>
<path d="M6404.98 6361.84C6404.98 6362.01 6404.98 6362.01 6404.82 6362.01H6404.48C6404.48 6362.01 6404.31 6362.01 6404.31 6361.84L6404.14 6361.17C6404.14 6361 6404.14 6361 6404.31 6361H6404.65C6404.65 6361 6404.82 6361 6404.82 6361.17L6404.98 6361.84Z" fill="url(#paint36_linear_216_67713)" stroke="black" stroke-width="0.001275" stroke-miterlimit="10"/>
<path d="M6404.14 6361.84C6404.14 6362.01 6404.14 6362.01 6403.97 6362.01H6403.8C6403.8 6362.01 6403.64 6362.01 6403.64 6361.84L6403.47 6361.34C6403.47 6361.17 6403.47 6361.17 6403.64 6361.17H6403.8C6403.8 6361.17 6403.97 6361.17 6403.97 6361.34L6404.14 6361.84Z" fill="url(#paint37_linear_216_67713)" stroke="black" stroke-width="0.001275" stroke-miterlimit="10"/>
<path d="M6403.3 6362.18C6403.3 6362.35 6403.3 6362.35 6403.13 6362.35H6402.96C6402.96 6362.35 6402.79 6362.35 6402.79 6362.18L6402.62 6361.67C6402.62 6361.51 6402.62 6361.51 6402.79 6361.51H6402.96C6402.96 6361.51 6403.13 6361.51 6403.13 6361.67L6403.3 6362.18Z" fill="url(#paint38_linear_216_67713)" stroke="black" stroke-width="0.001275" stroke-miterlimit="10"/>
<path d="M6402.45 6362.18C6402.45 6362.35 6402.45 6362.35 6402.29 6362.35H6402.12C6402.12 6362.35 6401.95 6362.35 6401.95 6362.18L6401.78 6361.67C6401.78 6361.51 6401.78 6361.51 6401.95 6361.51H6402.12C6402.12 6361.51 6402.29 6361.51 6402.29 6361.67L6402.45 6362.18Z" fill="url(#paint39_linear_216_67713)" stroke="black" stroke-width="0.001275" stroke-miterlimit="10"/>
<path d="M6401.62 6362.35C6401.62 6362.52 6401.62 6362.52 6401.45 6362.52H6401.28C6401.28 6362.52 6401.11 6362.52 6401.11 6362.35L6400.94 6361.84C6400.94 6361.68 6400.94 6361.68 6401.11 6361.68H6401.28C6401.28 6361.68 6401.45 6361.68 6401.45 6361.84L6401.62 6362.35Z" fill="url(#paint40_linear_216_67713)" stroke="black" stroke-width="0.001275" stroke-miterlimit="10"/>
<path d="M6400.94 6362.69C6400.94 6362.85 6400.94 6362.85 6400.77 6362.85H6400.6C6400.6 6362.85 6400.43 6362.85 6400.43 6362.69L6400.27 6362.18C6400.27 6362.01 6400.27 6362.01 6400.43 6362.01H6400.6C6400.6 6362.01 6400.77 6362.01 6400.77 6362.18L6400.94 6362.69Z" fill="url(#paint41_linear_216_67713)" stroke="black" stroke-width="0.001275" stroke-miterlimit="10"/>
<path d="M6400.1 6362.69C6400.1 6362.85 6400.1 6362.85 6399.93 6362.85H6399.76C6399.76 6362.85 6399.59 6362.85 6399.59 6362.69L6399.42 6362.18C6399.42 6362.01 6399.42 6362.01 6399.59 6362.01H6399.76C6399.76 6362.01 6399.93 6362.01 6399.93 6362.18L6400.1 6362.69Z" fill="url(#paint42_linear_216_67713)" stroke="black" stroke-width="0.001275" stroke-miterlimit="10"/>
<path d="M6399.26 6362.85C6399.26 6363.02 6399.26 6363.02 6399.09 6363.02H6398.92C6398.92 6363.02 6398.75 6363.02 6398.75 6362.85L6398.58 6362.35C6398.58 6362.18 6398.58 6362.18 6398.75 6362.18H6398.92C6398.92 6362.18 6399.09 6362.18 6399.09 6362.35L6399.26 6362.85Z" fill="url(#paint43_linear_216_67713)" stroke="black" stroke-width="0.001275" stroke-miterlimit="10"/>
<path d="M6398.58 6363.02C6398.58 6363.19 6398.58 6363.19 6398.41 6363.19H6398.25C6398.25 6363.19 6398.08 6363.19 6398.08 6363.02L6397.91 6362.52C6397.91 6362.35 6397.91 6362.35 6398.08 6362.35H6398.25C6398.25 6362.35 6398.41 6362.35 6398.41 6362.52L6398.58 6363.02Z" fill="url(#paint44_linear_216_67713)" stroke="black" stroke-width="0.001275" stroke-miterlimit="10"/>
<path d="M6397.74 6363.19C6397.74 6363.36 6397.74 6363.36 6397.57 6363.36H6397.4C6397.4 6363.36 6397.23 6363.36 6397.23 6363.19L6397.07 6362.69C6397.07 6362.52 6397.07 6362.52 6397.23 6362.52H6397.4C6397.4 6362.52 6397.57 6362.52 6397.57 6362.69L6397.74 6363.19Z" fill="url(#paint45_linear_216_67713)" stroke="black" stroke-width="0.001275" stroke-miterlimit="10"/>
<path d="M6396.22 6363.53C6396.22 6363.7 6396.22 6363.7 6396.06 6363.7H6395.89C6395.89 6363.7 6395.72 6363.7 6395.72 6363.53L6395.55 6363.02C6395.55 6362.85 6395.55 6362.85 6395.72 6362.85H6395.89C6395.89 6362.85 6396.06 6362.85 6396.06 6363.02L6396.22 6363.53Z" fill="url(#paint46_linear_216_67713)" stroke="black" stroke-width="0.001275" stroke-miterlimit="10"/>
<path d="M6394.88 6363.7C6394.88 6363.86 6394.88 6363.86 6394.71 6363.86H6394.54C6394.54 6363.86 6394.37 6363.86 6394.37 6363.7L6394.21 6363.19C6394.21 6363.02 6394.21 6363.02 6394.37 6363.02H6394.54C6394.54 6363.02 6394.71 6363.02 6394.71 6363.19L6394.88 6363.7Z" fill="url(#paint47_linear_216_67713)" stroke="black" stroke-width="0.001275" stroke-miterlimit="10"/>
<path d="M6393.53 6364.03V6364.2H6393.36C6393.36 6364.2 6393.19 6364.2 6393.19 6364.03L6393.03 6363.53C6393.03 6363.53 6393.03 6363.36 6393.19 6363.36H6393.36C6393.36 6363.36 6393.53 6363.36 6393.53 6363.53V6364.03Z" fill="url(#paint48_linear_216_67713)" stroke="black" stroke-width="0.001275" stroke-miterlimit="10"/>
<path d="M6392.69 6364.2V6364.37H6392.52C6392.52 6364.37 6392.35 6364.37 6392.35 6364.2L6392.18 6363.7C6392.18 6363.7 6392.18 6363.53 6392.35 6363.53H6392.52C6392.52 6363.53 6392.69 6363.53 6392.69 6363.7V6364.2Z" fill="url(#paint49_linear_216_67713)" stroke="black" stroke-width="0.001275" stroke-miterlimit="10"/>
<path d="M6388.48 6364.87C6388.48 6365.04 6388.48 6365.04 6388.48 6364.87L6388.14 6365.04C6388.14 6365.04 6387.97 6365.04 6387.97 6364.87L6387.8 6364.37V6364.2H6387.97C6387.97 6364.2 6388.14 6364.2 6388.14 6364.37L6388.48 6364.87Z" fill="url(#paint50_linear_216_67713)"/>
<path d="M6388.48 6364.87C6388.48 6365.04 6388.48 6365.04 6388.48 6364.87ZM6388.48 6364.87L6388.14 6365.04C6388.14 6365.04 6387.97 6365.04 6387.97 6364.87L6387.8 6364.37V6364.2H6387.97C6387.97 6364.2 6388.14 6364.2 6388.14 6364.37L6388.48 6364.87Z" stroke="black" stroke-width="0.001275" stroke-miterlimit="10"/>
<path d="M6387.8 6365.21L6387.47 6365.38C6387.47 6365.38 6387.3 6365.38 6387.3 6365.21L6387.13 6364.71V6364.54H6387.3C6387.3 6364.54 6387.47 6364.54 6387.47 6364.71L6387.8 6365.21Z" fill="url(#paint51_linear_216_67713)" stroke="black" stroke-width="0.001275" stroke-miterlimit="10"/>
<path d="M6387.13 6365.21C6387.13 6365.38 6387.13 6365.38 6387.13 6365.21L6386.79 6365.38C6386.79 6365.38 6386.63 6365.38 6386.63 6365.21L6386.46 6364.71V6364.54H6386.63C6386.63 6364.54 6386.79 6364.54 6386.79 6364.71L6387.13 6365.21Z" fill="url(#paint52_linear_216_67713)"/>
<path d="M6387.13 6365.21C6387.13 6365.38 6387.13 6365.38 6387.13 6365.21ZM6387.13 6365.21L6386.79 6365.38C6386.79 6365.38 6386.63 6365.38 6386.63 6365.21L6386.46 6364.71V6364.54H6386.63C6386.63 6364.54 6386.79 6364.54 6386.79 6364.71L6387.13 6365.21Z" stroke="black" stroke-width="0.001275" stroke-miterlimit="10"/>
<path d="M6386.46 6365.38C6386.46 6365.55 6386.46 6365.55 6386.46 6365.38L6386.12 6365.55C6386.12 6365.55 6385.95 6365.55 6385.95 6365.38L6385.78 6364.87V6364.71H6385.95C6385.95 6364.71 6386.12 6364.71 6386.12 6364.87L6386.46 6365.38Z" fill="url(#paint53_linear_216_67713)"/>
<path d="M6386.46 6365.38C6386.46 6365.55 6386.46 6365.55 6386.46 6365.38ZM6386.46 6365.38L6386.12 6365.55C6386.12 6365.55 6385.95 6365.55 6385.95 6365.38L6385.78 6364.87V6364.71H6385.95C6385.95 6364.71 6386.12 6364.71 6386.12 6364.87L6386.46 6365.38Z" stroke="black" stroke-width="0.001275" stroke-miterlimit="10"/>
<path d="M6385.78 6365.55L6385.61 6365.72C6385.61 6365.72 6385.45 6365.72 6385.45 6365.55L6385.28 6365.04V6364.88H6385.45C6385.45 6364.88 6385.61 6364.88 6385.61 6365.04L6385.78 6365.55Z" fill="url(#paint54_linear_216_67713)" stroke="black" stroke-width="0.001275" stroke-miterlimit="10"/>
<path d="M6385.11 6365.72L6384.94 6365.89C6384.94 6365.89 6384.77 6365.89 6384.77 6365.72L6384.6 6365.21V6365.04H6384.77C6384.77 6365.04 6384.94 6365.04 6384.94 6365.21L6385.11 6365.72Z" fill="url(#paint55_linear_216_67713)" stroke="black" stroke-width="0.001275" stroke-miterlimit="10"/>
<path d="M6384.6 6365.72C6384.6 6365.89 6384.6 6365.89 6384.6 6365.72L6384.43 6365.89C6384.43 6365.89 6384.27 6365.89 6384.27 6365.72L6384.1 6365.21V6365.04H6384.27C6384.27 6365.04 6384.43 6365.04 6384.43 6365.21L6384.6 6365.72Z" fill="url(#paint56_linear_216_67713)"/>
<path d="M6384.6 6365.72C6384.6 6365.89 6384.6 6365.89 6384.6 6365.72ZM6384.6 6365.72L6384.43 6365.89C6384.43 6365.89 6384.27 6365.89 6384.27 6365.72L6384.1 6365.21V6365.04H6384.27C6384.27 6365.04 6384.43 6365.04 6384.43 6365.21L6384.6 6365.72Z" stroke="black" stroke-width="0.001275" stroke-miterlimit="10"/>
<path d="M6383.93 6365.89C6383.93 6366.05 6383.93 6366.05 6383.93 6365.89L6383.76 6366.05C6383.76 6366.05 6383.59 6366.05 6383.59 6365.89L6383.42 6365.38V6365.21H6383.59C6383.59 6365.21 6383.76 6365.21 6383.76 6365.38L6383.93 6365.89Z" fill="url(#paint57_linear_216_67713)"/>
<path d="M6383.93 6365.89C6383.93 6366.05 6383.93 6366.05 6383.93 6365.89ZM6383.93 6365.89L6383.76 6366.05C6383.76 6366.05 6383.59 6366.05 6383.59 6365.89L6383.42 6365.38V6365.21H6383.59C6383.59 6365.21 6383.76 6365.21 6383.76 6365.38L6383.93 6365.89Z" stroke="black" stroke-width="0.001275" stroke-miterlimit="10"/>
<path d="M6383.43 6366.05L6383.26 6366.22C6383.26 6366.22 6383.09 6366.22 6383.09 6366.05L6382.92 6365.55V6365.38H6383.09C6383.09 6365.38 6383.26 6365.38 6383.26 6365.55L6383.43 6366.05Z" fill="url(#paint58_linear_216_67713)" stroke="black" stroke-width="0.001275" stroke-miterlimit="10"/>
<path d="M6382.75 6366.22L6382.58 6366.39C6382.58 6366.39 6382.41 6366.39 6382.41 6366.22L6382.25 6365.72V6365.55H6382.41C6382.41 6365.55 6382.58 6365.55 6382.58 6365.72L6382.75 6366.22Z" fill="url(#paint59_linear_216_67713)" stroke="black" stroke-width="0.001275" stroke-miterlimit="10"/>
<path d="M6382.25 6366.22C6382.25 6366.39 6382.25 6366.39 6382.25 6366.22L6382.08 6366.39C6382.08 6366.39 6381.91 6366.39 6381.91 6366.22L6381.74 6365.72V6365.55H6381.91C6381.91 6365.55 6382.08 6365.55 6382.08 6365.72L6382.25 6366.22Z" fill="url(#paint60_linear_216_67713)"/>
<path d="M6382.25 6366.22C6382.25 6366.39 6382.25 6366.39 6382.25 6366.22ZM6382.25 6366.22L6382.08 6366.39C6382.08 6366.39 6381.91 6366.39 6381.91 6366.22L6381.74 6365.72V6365.55H6381.91C6381.91 6365.55 6382.08 6365.55 6382.08 6365.72L6382.25 6366.22Z" stroke="black" stroke-width="0.001275" stroke-miterlimit="10"/>
<path d="M6381.74 6366.39L6381.57 6366.56C6381.57 6366.56 6381.4 6366.56 6381.4 6366.39L6381.23 6366.05V6365.89H6381.4C6381.4 6365.89 6381.57 6365.89 6381.57 6366.05L6381.74 6366.39Z" fill="url(#paint61_linear_216_67713)" stroke="black" stroke-width="0.001275" stroke-miterlimit="10"/>
<path d="M6381.07 6366.39C6381.07 6366.56 6381.23 6366.56 6381.07 6366.39L6380.9 6366.56C6380.9 6366.56 6380.73 6366.56 6380.73 6366.39V6366.05V6365.89H6380.9C6380.9 6365.89 6381.07 6365.89 6381.07 6366.05V6366.39Z" fill="url(#paint62_linear_216_67713)"/>
<path d="M6381.07 6366.39C6381.07 6366.56 6381.23 6366.56 6381.07 6366.39ZM6381.07 6366.39L6380.9 6366.56C6380.9 6366.56 6380.73 6366.56 6380.73 6366.39V6366.05V6365.89H6380.9C6380.9 6365.89 6381.07 6365.89 6381.07 6366.05V6366.39Z" stroke="black" stroke-width="0.001275" stroke-miterlimit="10"/>
<path d="M6380.56 6366.56C6380.56 6366.73 6380.56 6366.73 6380.56 6366.56L6380.39 6366.73C6380.39 6366.73 6380.22 6366.73 6380.22 6366.56V6366.05V6365.89H6380.39C6380.39 6365.89 6380.56 6365.89 6380.56 6366.05V6366.56Z" fill="url(#paint63_linear_216_67713)"/>
<path d="M6380.56 6366.56C6380.56 6366.73 6380.56 6366.73 6380.56 6366.56ZM6380.56 6366.56L6380.39 6366.73C6380.39 6366.73 6380.22 6366.73 6380.22 6366.56V6366.05V6365.89H6380.39C6380.39 6365.89 6380.56 6365.89 6380.56 6366.05V6366.56Z" stroke="black" stroke-width="0.001275" stroke-miterlimit="10"/>
<path d="M6378.03 6367.06C6378.03 6367.23 6378.03 6367.23 6378.03 6367.06L6377.87 6367.23C6377.87 6367.23 6377.7 6367.23 6377.7 6367.06L6377.53 6366.56V6366.39H6377.7C6377.7 6366.39 6377.87 6366.39 6377.87 6366.56L6378.03 6367.06Z" fill="url(#paint64_linear_216_67713)"/>
<path d="M6378.03 6367.06C6378.03 6367.23 6378.03 6367.23 6378.03 6367.06ZM6378.03 6367.06L6377.87 6367.23C6377.87 6367.23 6377.7 6367.23 6377.7 6367.06L6377.53 6366.56V6366.39H6377.7C6377.7 6366.39 6377.87 6366.39 6377.87 6366.56L6378.03 6367.06Z" stroke="black" stroke-width="0.001275" stroke-miterlimit="10"/>
<path d="M6379.72 6368.24C6379.72 6368.41 6379.72 6368.58 6379.55 6368.58L6379.05 6368.75C6378.88 6368.75 6378.71 6368.75 6378.71 6368.58C6378.71 6368.58 6378.37 6367.57 6378.2 6366.9C6378.04 6366.22 6378.04 6365.21 6378.04 6365.21C6378.04 6365.04 6378.04 6364.87 6378.2 6364.87L6378.71 6364.71C6378.88 6364.71 6379.05 6364.71 6379.05 6364.87C6379.05 6364.87 6379.05 6365.72 6379.21 6366.56C6379.38 6367.57 6379.72 6368.24 6379.72 6368.24Z" fill="url(#paint65_linear_216_67713)"/>
<path d="M6379.21 6368.75C6379.05 6368.75 6378.88 6368.92 6378.71 6368.75C6378.71 6368.75 6378.71 6368.58 6378.54 6368.58C6378.37 6367.91 6378.2 6367.4 6378.04 6366.73C6378.04 6366.39 6378.04 6366.05 6377.87 6365.72C6377.87 6365.55 6377.87 6365.21 6378.04 6365.04C6378.04 6365.04 6378.2 6365.04 6378.37 6364.87C6378.54 6364.87 6378.54 6364.87 6378.71 6364.87C6379.05 6364.71 6379.05 6365.21 6379.05 6365.38C6379.21 6366.22 6379.38 6367.23 6379.72 6368.24C6379.55 6367.74 6379.38 6367.06 6379.21 6366.56C6379.21 6366.22 6379.05 6365.72 6379.05 6365.38C6379.05 6365.21 6379.05 6365.04 6378.88 6364.87C6378.71 6364.71 6378.54 6364.87 6378.54 6364.87C6378.37 6364.87 6378.2 6364.87 6378.04 6365.04C6377.87 6365.21 6378.04 6365.38 6378.04 6365.55C6378.04 6365.89 6378.04 6366.22 6378.2 6366.56C6378.37 6367.23 6378.54 6367.91 6378.71 6368.58C6378.71 6368.75 6379.05 6368.75 6379.21 6368.75Z" fill="#8992A2"/>
<path d="M6378.71 6366.9C6378.71 6367.06 6378.71 6367.06 6378.71 6366.9L6378.54 6367.06C6378.54 6367.06 6378.37 6367.06 6378.37 6366.9L6378.21 6366.39V6366.22H6378.37C6378.37 6366.22 6378.54 6366.22 6378.54 6366.39L6378.71 6366.9Z" fill="url(#paint66_linear_216_67713)"/>
<path d="M6378.71 6366.9C6378.71 6367.06 6378.71 6367.06 6378.71 6366.9ZM6378.71 6366.9L6378.54 6367.06C6378.54 6367.06 6378.37 6367.06 6378.37 6366.9L6378.21 6366.39V6366.22H6378.37C6378.37 6366.22 6378.54 6366.22 6378.54 6366.39L6378.71 6366.9Z" stroke="black" stroke-width="0.001275" stroke-miterlimit="10"/>
<path d="M6391.51 6366.22C6391.51 6366.39 6391.34 6366.56 6391.17 6366.73L6390.5 6366.9C6390.33 6366.9 6390.16 6366.9 6390.16 6366.73C6390.16 6366.73 6389.82 6365.55 6389.65 6364.88C6389.49 6364.03 6389.49 6363.02 6389.49 6363.02C6389.49 6362.85 6389.65 6362.69 6389.82 6362.52L6390.5 6362.35C6390.67 6362.35 6390.83 6362.35 6390.83 6362.69C6390.83 6362.69 6390.83 6363.7 6391 6364.71C6391.17 6365.38 6391.51 6366.22 6391.51 6366.22Z" fill="url(#paint67_linear_216_67713)"/>
<path d="M6391.51 6366.22C6391.51 6366.39 6391.34 6366.56 6391.17 6366.73H6391C6390.83 6366.73 6390.33 6366.9 6390.16 6366.73V6366.56C6390.16 6366.39 6390.16 6366.39 6389.99 6366.22C6389.82 6365.89 6389.82 6365.55 6389.66 6365.21C6389.49 6364.54 6389.49 6363.86 6389.32 6363.19C6389.32 6363.02 6389.32 6362.85 6389.32 6362.69C6389.32 6362.35 6389.66 6362.35 6389.82 6362.35C6389.99 6362.35 6389.99 6362.35 6390.16 6362.35C6390.33 6362.35 6390.5 6362.52 6390.5 6362.69C6390.5 6363.02 6390.5 6363.53 6390.5 6363.86C6391 6364.54 6391.17 6365.38 6391.51 6366.22C6391.17 6365.04 6390.83 6363.86 6390.83 6362.52C6390.83 6362.35 6390.83 6362.18 6390.67 6362.18C6390.5 6362.18 6390.33 6362.18 6390.16 6362.18C6389.99 6362.18 6389.82 6362.18 6389.66 6362.35C6389.49 6362.52 6389.49 6362.69 6389.49 6362.85C6389.49 6363.36 6389.49 6364.03 6389.66 6364.54C6389.82 6365.04 6389.99 6365.72 6390.16 6366.22C6390.16 6366.39 6390.16 6366.39 6390.33 6366.56C6390.5 6366.73 6390.5 6366.56 6390.67 6366.56C6391 6366.73 6391.51 6366.56 6391.51 6366.22Z" fill="#8992A2"/>
<path d="M6390.33 6364.71L6389.99 6364.88C6389.99 6364.88 6389.82 6364.88 6389.82 6364.71L6389.66 6364.2V6364.03H6389.82C6389.82 6364.03 6389.99 6364.03 6389.99 6364.2L6390.33 6364.71Z" fill="url(#paint68_linear_216_67713)" stroke="black" stroke-width="0.001275" stroke-miterlimit="10"/>
<path d="M6409.53 6362.68C6409.53 6362.85 6409.36 6363.19 6409.19 6363.19L6408.35 6363.36C6408.18 6363.36 6407.84 6363.36 6407.84 6363.02C6407.84 6363.02 6407.51 6361.84 6407.34 6360.83C6407.17 6359.99 6407.17 6358.64 6407.17 6358.64C6407.17 6358.47 6407.34 6358.14 6407.51 6358.14L6408.35 6357.97C6408.52 6357.97 6408.85 6357.97 6408.85 6358.31C6408.85 6358.31 6408.69 6359.48 6409.02 6360.5C6409.19 6361.84 6409.53 6362.68 6409.53 6362.68Z" fill="url(#paint69_linear_216_67713)"/>
<path d="M6409.53 6362.69C6409.53 6363.02 6409.36 6363.19 6409.02 6363.19C6408.85 6363.19 6408.69 6363.36 6408.35 6363.36C6408.18 6363.36 6408.18 6363.36 6408.01 6363.36C6407.84 6363.36 6407.68 6363.19 6407.68 6363.02C6407.68 6362.85 6407.51 6362.69 6407.51 6362.52C6407.34 6361.84 6407.17 6361.17 6407 6360.5C6407 6359.99 6407 6359.49 6407 6358.98C6407 6358.81 6407 6358.81 6407.17 6358.64C6407.17 6358.47 6407.34 6358.47 6407.51 6358.47C6407.68 6358.47 6407.84 6358.31 6408.18 6358.31H6408.35C6408.52 6358.31 6408.85 6358.31 6408.85 6358.64C6408.85 6358.81 6408.85 6358.98 6408.85 6359.15C6408.85 6360.33 6409.02 6361.51 6409.53 6362.69C6409.02 6361.51 6408.85 6360.16 6408.85 6358.81C6408.85 6358.64 6408.85 6358.47 6408.85 6358.31C6408.85 6358.14 6408.52 6358.14 6408.35 6358.14C6408.18 6358.14 6408.01 6358.14 6407.84 6358.31C6407.68 6358.31 6407.51 6358.31 6407.34 6358.47C6407.17 6358.64 6407.17 6358.81 6407.17 6358.98C6407.17 6359.15 6407.17 6359.49 6407.17 6359.65C6407.17 6360.33 6407.34 6361 6407.51 6361.67C6407.68 6362.18 6407.68 6362.52 6407.84 6363.02C6408.01 6363.53 6408.52 6363.19 6408.85 6363.19C6409.02 6363.19 6409.53 6363.19 6409.53 6362.69Z" fill="#8992A2"/>
<path d="M6408.01 6361.17C6408.01 6361.34 6408.01 6361.34 6407.84 6361.34H6407.51C6407.51 6361.34 6407.34 6361.34 6407.34 6361.17L6407.17 6360.5C6407.17 6360.33 6407.17 6360.33 6407.34 6360.33H6407.68C6407.68 6360.33 6407.84 6360.33 6407.84 6360.5L6408.01 6361.17Z" fill="url(#paint70_linear_216_67713)" stroke="black" stroke-width="0.001275" stroke-miterlimit="10"/>
<path d="M6428.73 6358.64C6428.73 6358.81 6428.56 6359.15 6428.39 6359.15L6427.21 6359.48C6427.05 6359.48 6426.71 6359.48 6426.71 6359.15C6426.71 6359.15 6426.37 6357.97 6426.2 6357.13C6426.04 6356.28 6426.04 6355.11 6426.04 6355.11C6426.04 6354.94 6426.2 6354.6 6426.37 6354.6L6427.55 6354.26C6427.72 6354.26 6428.06 6354.26 6428.06 6354.6C6428.06 6354.6 6427.89 6355.78 6428.22 6356.79C6428.39 6357.8 6428.73 6358.64 6428.73 6358.64Z" fill="url(#paint71_linear_216_67713)"/>
<path d="M6428.73 6358.64C6428.73 6358.98 6428.56 6359.15 6428.23 6359.15C6428.06 6359.15 6427.89 6359.32 6427.55 6359.32C6427.38 6359.32 6427.21 6359.32 6427.05 6359.48C6426.88 6359.48 6426.71 6359.48 6426.54 6359.32V6359.15C6426.37 6358.64 6426.2 6357.97 6426.04 6357.46C6425.87 6356.79 6425.87 6356.12 6425.87 6355.44C6425.87 6355.27 6425.87 6355.11 6425.87 6354.94C6425.87 6354.6 6426.2 6354.6 6426.37 6354.6C6426.71 6354.43 6427.05 6354.43 6427.38 6354.26C6427.55 6354.26 6427.89 6354.26 6427.89 6354.6V6354.77C6427.89 6355.11 6427.89 6355.27 6427.89 6355.61C6427.89 6356.45 6428.06 6357.3 6428.39 6357.97C6428.56 6358.31 6428.56 6358.47 6428.73 6358.64C6428.23 6357.46 6428.06 6356.12 6428.06 6354.94C6428.06 6354.77 6428.06 6354.6 6428.06 6354.43C6428.06 6354.26 6427.72 6354.26 6427.55 6354.26C6427.21 6354.43 6426.88 6354.43 6426.54 6354.6C6426.37 6354.6 6426.2 6354.6 6426.04 6354.77C6425.87 6354.94 6425.87 6355.11 6425.87 6355.27C6425.87 6355.95 6425.87 6356.62 6426.04 6357.13C6426.2 6357.8 6426.37 6358.31 6426.54 6358.98C6426.54 6359.15 6426.54 6359.32 6426.71 6359.32C6426.88 6359.48 6427.05 6359.48 6427.21 6359.32C6427.55 6359.32 6427.89 6359.15 6428.06 6359.15C6428.39 6359.15 6428.73 6359.15 6428.73 6358.64Z" fill="#8992A2"/>
<path d="M6426.88 6357.3C6426.88 6357.46 6426.88 6357.46 6426.71 6357.46L6426.37 6357.63C6426.2 6357.63 6426.2 6357.63 6426.2 6357.46L6426.04 6356.79C6426.04 6356.62 6426.04 6356.62 6426.2 6356.62L6426.54 6356.45C6426.71 6356.45 6426.71 6356.45 6426.71 6356.62L6426.88 6357.3Z" fill="url(#paint72_linear_216_67713)" stroke="black" stroke-width="0.001275" stroke-miterlimit="10"/>
<path d="M6377.53 6367.23L6377.36 6367.4C6377.36 6367.4 6377.19 6367.4 6377.19 6367.23L6377.02 6366.73V6366.56H6377.19C6377.19 6366.56 6377.36 6366.56 6377.36 6366.73L6377.53 6367.23Z" fill="url(#paint73_linear_216_67713)" stroke="black" stroke-width="0.001275" stroke-miterlimit="10"/>
<path d="M6377.02 6367.23C6377.02 6367.4 6377.02 6367.4 6377.02 6367.23L6376.86 6367.4C6376.86 6367.4 6376.69 6367.4 6376.69 6367.23L6376.52 6366.73V6366.56H6376.69C6376.69 6366.56 6376.86 6366.56 6376.86 6366.73L6377.02 6367.23Z" fill="url(#paint74_linear_216_67713)"/>
<path d="M6377.02 6367.23C6377.02 6367.4 6377.02 6367.4 6377.02 6367.23ZM6377.02 6367.23L6376.86 6367.4C6376.86 6367.4 6376.69 6367.4 6376.69 6367.23L6376.52 6366.73V6366.56H6376.69C6376.69 6366.56 6376.86 6366.56 6376.86 6366.73L6377.02 6367.23Z" stroke="black" stroke-width="0.001275" stroke-miterlimit="10"/>
<path d="M6376.52 6367.4C6376.52 6367.57 6376.52 6367.57 6376.52 6367.4L6376.35 6367.57C6376.35 6367.57 6376.18 6367.57 6376.18 6367.4L6376.01 6366.9V6366.73H6376.18C6376.18 6366.73 6376.35 6366.73 6376.35 6366.9L6376.52 6367.4Z" fill="url(#paint75_linear_216_67713)"/>
<path d="M6376.52 6367.4C6376.52 6367.57 6376.52 6367.57 6376.52 6367.4ZM6376.52 6367.4L6376.35 6367.57C6376.35 6367.57 6376.18 6367.57 6376.18 6367.4L6376.01 6366.9V6366.73H6376.18C6376.18 6366.73 6376.35 6366.73 6376.35 6366.9L6376.52 6367.4Z" stroke="black" stroke-width="0.001275" stroke-miterlimit="10"/>
<path d="M6376.02 6367.57L6375.85 6367.74C6375.85 6367.74 6375.68 6367.74 6375.68 6367.57L6375.51 6367.06V6366.9H6375.68C6375.68 6366.9 6375.85 6366.9 6375.85 6367.06L6376.02 6367.57Z" fill="url(#paint76_linear_216_67713)" stroke="black" stroke-width="0.001275" stroke-miterlimit="10"/>
<path d="M6375.51 6367.57C6375.51 6367.74 6375.51 6367.74 6375.51 6367.57L6375.34 6367.74C6375.34 6367.74 6375.17 6367.74 6375.17 6367.57V6367.23V6367.06H6375.34C6375.34 6367.06 6375.51 6367.06 6375.51 6367.23V6367.57Z" fill="url(#paint77_linear_216_67713)"/>
<path d="M6375.51 6367.57C6375.51 6367.74 6375.51 6367.74 6375.51 6367.57ZM6375.51 6367.57L6375.34 6367.74C6375.34 6367.74 6375.17 6367.74 6375.17 6367.57V6367.23V6367.06H6375.34C6375.34 6367.06 6375.51 6367.06 6375.51 6367.23V6367.57Z" stroke="black" stroke-width="0.001275" stroke-miterlimit="10"/>
<path d="M6375 6367.74L6374.83 6367.91C6374.83 6367.91 6374.67 6367.91 6374.67 6367.74L6374.5 6367.23V6367.06H6374.67C6374.67 6367.06 6374.83 6367.06 6374.83 6367.23L6375 6367.74Z" fill="url(#paint78_linear_216_67713)" stroke="black" stroke-width="0.001275" stroke-miterlimit="10"/>
<path d="M6374.5 6367.91L6374.33 6368.07C6374.33 6368.07 6374.16 6368.07 6374.16 6367.91L6373.99 6367.4V6367.23H6374.16C6374.16 6367.23 6374.33 6367.23 6374.33 6367.4L6374.5 6367.91Z" fill="url(#paint79_linear_216_67713)" stroke="black" stroke-width="0.001275" stroke-miterlimit="10"/>
<path d="M6373.99 6367.91C6373.99 6368.07 6373.99 6368.07 6373.99 6367.91L6373.83 6368.07C6373.83 6368.07 6373.66 6368.07 6373.66 6367.91L6373.49 6367.4V6367.23H6373.66C6373.66 6367.23 6373.83 6367.23 6373.83 6367.4L6373.99 6367.91Z" fill="url(#paint80_linear_216_67713)"/>
<path d="M6373.99 6367.91C6373.99 6368.07 6373.99 6368.07 6373.99 6367.91ZM6373.99 6367.91L6373.83 6368.07C6373.83 6368.07 6373.66 6368.07 6373.66 6367.91L6373.49 6367.4V6367.23H6373.66C6373.66 6367.23 6373.83 6367.23 6373.83 6367.4L6373.99 6367.91Z" stroke="black" stroke-width="0.001275" stroke-miterlimit="10"/>
<path d="M6373.66 6368.08L6373.49 6368.24C6373.49 6368.24 6373.32 6368.24 6373.32 6368.08L6373.15 6367.74V6367.57H6373.32C6373.32 6367.57 6373.49 6367.57 6373.49 6367.74L6373.66 6368.08Z" fill="url(#paint81_linear_216_67713)" stroke="black" stroke-width="0.001275" stroke-miterlimit="10"/>
<path d="M6373.15 6368.08C6373.15 6368.24 6373.15 6368.24 6373.15 6368.08L6372.98 6368.24C6372.98 6368.24 6372.81 6368.24 6372.81 6368.08V6367.74V6367.57H6372.98C6372.98 6367.57 6373.15 6367.57 6373.15 6367.74V6368.08Z" fill="url(#paint82_linear_216_67713)"/>
<path d="M6373.15 6368.08C6373.15 6368.24 6373.15 6368.24 6373.15 6368.08ZM6373.15 6368.08L6372.98 6368.24C6372.98 6368.24 6372.81 6368.24 6372.81 6368.08V6367.74V6367.57H6372.98C6372.98 6367.57 6373.15 6367.57 6373.15 6367.74V6368.08Z" stroke="black" stroke-width="0.001275" stroke-miterlimit="10"/>
<path d="M6372.65 6368.24L6372.48 6368.41C6372.48 6368.41 6372.31 6368.41 6372.31 6368.24L6372.14 6367.74V6367.57H6372.31C6372.31 6367.57 6372.48 6367.57 6372.48 6367.74L6372.65 6368.24Z" fill="url(#paint83_linear_216_67713)" stroke="black" stroke-width="0.001275" stroke-miterlimit="10"/>
<path d="M6372.31 6368.41L6372.14 6368.58C6372.14 6368.58 6371.97 6368.58 6371.97 6368.41L6371.8 6367.91V6367.74H6371.97C6371.97 6367.74 6372.14 6367.74 6372.14 6367.91L6372.31 6368.41Z" fill="url(#paint84_linear_216_67713)" stroke="black" stroke-width="0.001275" stroke-miterlimit="10"/>
<path d="M6371.8 6368.41C6371.8 6368.58 6371.8 6368.58 6371.8 6368.41L6371.64 6368.58C6371.64 6368.58 6371.47 6368.58 6371.47 6368.41L6371.3 6367.91V6367.74H6371.47C6371.47 6367.74 6371.64 6367.74 6371.64 6367.91L6371.8 6368.41Z" fill="url(#paint85_linear_216_67713)"/>
<path d="M6371.8 6368.41C6371.8 6368.58 6371.8 6368.58 6371.8 6368.41ZM6371.8 6368.41L6371.64 6368.58C6371.64 6368.58 6371.47 6368.58 6371.47 6368.41L6371.3 6367.91V6367.74H6371.47C6371.47 6367.74 6371.64 6367.74 6371.64 6367.91L6371.8 6368.41Z" stroke="black" stroke-width="0.001275" stroke-miterlimit="10"/>
<path d="M6371.3 6368.58L6371.13 6368.75C6371.13 6368.75 6370.96 6368.75 6370.96 6368.58L6370.79 6368.07V6367.91H6370.96C6370.96 6367.91 6371.13 6367.91 6371.13 6368.07L6371.3 6368.58Z" fill="url(#paint86_linear_216_67713)" stroke="black" stroke-width="0.001275" stroke-miterlimit="10"/>
<path d="M6370.96 6368.58C6370.96 6368.75 6370.96 6368.75 6370.96 6368.58L6370.79 6368.75C6370.79 6368.75 6370.63 6368.75 6370.63 6368.58L6370.46 6368.07V6367.91H6370.63C6370.63 6367.91 6370.79 6367.91 6370.79 6368.07L6370.96 6368.58Z" fill="url(#paint87_linear_216_67713)"/>
<path d="M6370.96 6368.58C6370.96 6368.75 6370.96 6368.75 6370.96 6368.58ZM6370.96 6368.58L6370.79 6368.75C6370.79 6368.75 6370.63 6368.75 6370.63 6368.58L6370.46 6368.07V6367.91H6370.63C6370.63 6367.91 6370.79 6367.91 6370.79 6368.07L6370.96 6368.58Z" stroke="black" stroke-width="0.001275" stroke-miterlimit="10"/>
<path d="M6370.46 6368.75L6370.29 6368.92C6370.29 6368.92 6370.12 6368.92 6370.12 6368.75V6368.41V6368.24H6370.29C6370.29 6368.24 6370.46 6368.24 6370.46 6368.41V6368.75Z" fill="url(#paint88_linear_216_67713)" stroke="black" stroke-width="0.001275" stroke-miterlimit="10"/>
<path d="M6370.12 6368.75C6370.12 6368.92 6370.12 6368.92 6370.12 6368.75L6369.95 6368.92C6369.95 6368.92 6369.78 6368.92 6369.78 6368.75L6369.62 6368.41V6368.24H6369.78C6369.78 6368.24 6369.95 6368.24 6369.95 6368.41L6370.12 6368.75Z" fill="url(#paint89_linear_216_67713)"/>
<path d="M6370.12 6368.75C6370.12 6368.92 6370.12 6368.92 6370.12 6368.75ZM6370.12 6368.75L6369.95 6368.92C6369.95 6368.92 6369.78 6368.92 6369.78 6368.75L6369.62 6368.41V6368.24H6369.78C6369.78 6368.24 6369.95 6368.24 6369.95 6368.41L6370.12 6368.75Z" stroke="black" stroke-width="0.001275" stroke-miterlimit="10"/>
<path d="M6369.78 6368.92L6369.61 6369.09C6369.61 6369.09 6369.61 6369.09 6369.45 6368.92V6368.58V6368.41H6369.61C6369.61 6368.41 6369.61 6368.41 6369.78 6368.58V6368.92Z" fill="url(#paint90_linear_216_67713)" stroke="black" stroke-width="0.001275" stroke-miterlimit="10"/>
<path d="M6369.28 6368.92C6369.28 6369.09 6369.28 6369.09 6369.28 6368.92L6369.11 6369.09C6369.11 6369.09 6369.11 6369.09 6368.94 6368.92V6368.58V6368.41H6369.11C6369.11 6368.41 6369.11 6368.41 6369.28 6368.58V6368.92Z" fill="url(#paint91_linear_216_67713)"/>
<path d="M6369.28 6368.92C6369.28 6369.09 6369.28 6369.09 6369.28 6368.92ZM6369.28 6368.92L6369.11 6369.09C6369.11 6369.09 6369.11 6369.09 6368.94 6368.92V6368.58V6368.41H6369.11C6369.11 6368.41 6369.11 6368.41 6369.28 6368.58V6368.92Z" stroke="black" stroke-width="0.001275" stroke-miterlimit="10"/>
<path d="M6368.94 6369.09L6368.77 6369.25C6368.77 6369.25 6368.77 6369.25 6368.6 6369.09V6368.75V6368.58H6368.77C6368.77 6368.58 6368.77 6368.58 6368.94 6368.75V6369.09Z" fill="url(#paint92_linear_216_67713)" stroke="black" stroke-width="0.001275" stroke-miterlimit="10"/>
<path d="M6368.6 6369.09C6368.43 6369.25 6368.43 6369.25 6368.27 6369.09V6368.75V6368.58H6368.43C6368.43 6368.58 6368.43 6368.58 6368.6 6368.75V6369.09Z" fill="url(#paint93_linear_216_67713)" stroke="black" stroke-width="0.001275" stroke-miterlimit="10"/>
<path d="M6368.27 6369.08C6368.27 6369.25 6368.27 6369.25 6368.27 6369.08C6368.1 6369.25 6368.1 6369.25 6367.93 6369.08V6368.75V6368.58H6368.1C6368.1 6368.58 6368.1 6368.58 6368.27 6368.75V6369.08Z" fill="url(#paint94_linear_216_67713)"/>
<path d="M6368.27 6369.08C6368.27 6369.25 6368.27 6369.25 6368.27 6369.08ZM6368.27 6369.08C6368.1 6369.25 6368.1 6369.25 6367.93 6369.08V6368.75V6368.58H6368.1C6368.1 6368.58 6368.1 6368.58 6368.27 6368.75V6369.08Z" stroke="black" stroke-width="0.001275" stroke-miterlimit="10"/>
<path d="M6367.93 6369.25C6367.76 6369.42 6367.76 6369.42 6367.59 6369.25V6368.92V6368.75H6367.76C6367.76 6368.75 6367.76 6368.75 6367.93 6368.92V6369.25Z" fill="url(#paint95_linear_216_67713)" stroke="black" stroke-width="0.001275" stroke-miterlimit="10"/>
<path d="M6367.59 6369.25C6367.42 6369.42 6367.42 6369.42 6367.26 6369.25V6368.92V6368.75H6367.42C6367.42 6368.75 6367.42 6368.75 6367.59 6368.92V6369.25Z" fill="url(#paint96_linear_216_67713)" stroke="black" stroke-width="0.001275" stroke-miterlimit="10"/>
<path opacity="0.3" d="M6347.38 6371.95C6347.38 6371.95 6352.77 6370.1 6357.15 6368.75C6361.53 6367.4 6380.39 6363.86 6387.97 6362.35C6395.72 6360.83 6394.2 6363.36 6377.87 6366.73C6361.36 6370.1 6363.21 6369.76 6358.16 6370.77C6352.94 6371.95 6344.35 6373.3 6347.38 6371.95Z" fill="white"/>
<path opacity="0.4" d="M6424.86 6354.94C6430.58 6353.59 6452.98 6348.87 6460.73 6347.36C6464.94 6346.52 6472.69 6346.52 6472.69 6347.02C6472.52 6347.53 6467.64 6347.53 6454.16 6350.39C6437.66 6353.93 6439.51 6353.42 6434.46 6354.43C6429.23 6355.44 6420.48 6355.95 6424.86 6354.94Z" fill="white"/>
<path d="M6405.15 6371.61L6393.53 6406.98L6398.75 6405.97L6425.36 6370.6C6426.37 6369.25 6427.38 6367.91 6429.23 6366.73C6421.49 6368.41 6413.23 6370.1 6405.15 6371.61Z" fill="url(#paint97_linear_216_67713)" stroke="#828993" stroke-width="0.002525" stroke-miterlimit="10" stroke-linecap="round" stroke-linejoin="round"/>
<path opacity="0.4" d="M6418.28 6380.2L6425.53 6370.6C6426.54 6369.25 6427.55 6367.91 6429.4 6366.73C6421.48 6368.24 6413.23 6369.93 6405.32 6371.61L6401.27 6383.91C6406.83 6382.73 6412.56 6381.38 6418.28 6380.2Z" fill="url(#paint98_linear_216_67713)"/>
<path d="M6404.64 6381.55L6401.27 6382.05L6395.72 6398.9L6398.58 6397.89L6404.64 6381.55Z" fill="url(#paint99_linear_216_67713)" stroke="#828993" stroke-width="0.002525" stroke-miterlimit="10" stroke-linecap="round" stroke-linejoin="round"/>
<path opacity="0.3" d="M6404.64 6381.55L6403.46 6381.72L6397.23 6398.22L6398.58 6397.89L6404.64 6381.55Z" fill="url(#paint100_linear_216_67713)" stroke="#828993" stroke-width="0.002525" stroke-miterlimit="10" stroke-linecap="round" stroke-linejoin="round"/>
<path d="M6406.83 6386.26C6407 6386.6 6398.24 6389.97 6397.91 6389.63C6397.74 6389.3 6398.92 6387.95 6401.61 6386.94C6404.14 6386.1 6406.66 6385.93 6406.83 6386.26Z" fill="url(#paint101_linear_216_67713)" stroke="#828993" stroke-width="0.002525" stroke-miterlimit="10"/>
<path d="M6403.97 6393.67C6404.14 6394.01 6396.22 6397.21 6396.05 6396.87C6395.88 6396.54 6396.9 6395.36 6399.25 6394.35C6401.61 6393.51 6403.8 6393.34 6403.97 6393.67Z" fill="url(#paint102_linear_216_67713)" stroke="#828993" stroke-width="0.002525" stroke-miterlimit="10"/>
<path opacity="0.7" d="M6406.66 6381.72L6419.8 6378.01L6425.86 6370.26L6403.8 6376.33L6406.66 6381.72Z" fill="url(#paint103_linear_216_67713)"/>
<path d="M6431.09 6375.82C6430.41 6374.64 6429.74 6374.64 6425.02 6375.82C6420.31 6377 6419.63 6378.18 6419.63 6378.18C6419.63 6378.18 6419.13 6381.38 6421.32 6383.23C6424.69 6384.41 6430.08 6383.23 6431.42 6382.56C6432.6 6381.72 6431.59 6377 6431.09 6375.82Z" fill="url(#paint104_linear_216_67713)" stroke="#828993" stroke-width="0.002525" stroke-miterlimit="10"/>
<path opacity="0.4" d="M6430.92 6375.49C6431.59 6376.83 6432.77 6380.88 6426.21 6381.72C6420.48 6382.39 6419.64 6379.02 6419.47 6378.18C6419.47 6378.69 6419.13 6381.38 6421.15 6383.07C6424.52 6384.24 6429.91 6383.07 6431.26 6382.39C6432.61 6381.72 6431.76 6377 6431.09 6375.82C6430.92 6375.65 6430.92 6375.65 6430.92 6375.49Z" fill="url(#paint105_linear_216_67713)"/>
<path d="M6419.47 6378.18L6418.46 6379.02C6418.46 6379.02 6418.12 6380.71 6418.96 6382.39C6418.96 6382.39 6419.13 6382.73 6419.47 6382.9L6421.15 6383.06C6418.96 6381.21 6419.47 6378.18 6419.47 6378.18Z" fill="url(#paint106_linear_216_67713)" stroke="#404449" stroke-width="0.001275" stroke-miterlimit="10"/>
<path d="M6418.46 6379.02L6419.47 6378.18L6407 6381.38C6406.16 6381.55 6406.67 6382.05 6407.17 6382.05C6407.68 6381.89 6410.03 6381.55 6410.03 6381.55L6412.22 6382.22L6418.29 6380.54C6418.46 6379.53 6418.46 6379.02 6418.46 6379.02Z" fill="url(#paint107_linear_216_67713)" stroke="#828993" stroke-width="0.002525" stroke-miterlimit="10" stroke-linecap="round" stroke-linejoin="round"/>
<path d="M6418.46 6380.2L6412.39 6381.89L6418.62 6381.38C6418.46 6381.04 6418.46 6380.71 6418.46 6380.2Z" fill="url(#paint108_linear_216_67713)" stroke="#828993" stroke-width="0.002525" stroke-miterlimit="10" stroke-linecap="round" stroke-linejoin="round"/>
<path d="M6386.79 6368.75C6386.79 6368.75 6385.44 6370.43 6385.95 6372.62C6386.45 6374.81 6388.31 6375.15 6388.31 6375.15C6388.31 6375.15 6391.34 6375.15 6393.7 6375.32C6396.05 6375.32 6401.11 6375.49 6403.3 6374.98C6408.35 6373.97 6420.48 6371.78 6423.51 6370.26C6426.54 6368.75 6429.4 6366.9 6429.4 6366.9C6427.55 6365.21 6427.89 6362.85 6427.89 6362.85C6428.06 6361.84 6428.56 6360.33 6426.2 6359.49C6422.5 6358.31 6415.93 6359.82 6410.03 6361.17C6404.14 6362.18 6388.81 6365.89 6386.79 6368.75Z" fill="url(#paint109_linear_216_67713)" stroke="#828993" stroke-width="0.002525" stroke-miterlimit="10"/>
<path opacity="0.4" d="M6407.68 6364.71C6418.45 6362.52 6424.85 6358.98 6424.85 6358.98C6420.98 6358.48 6415.25 6359.82 6410.03 6360.83C6406.5 6361.51 6399.59 6363.19 6394.2 6365.04C6394.2 6365.04 6396.9 6366.9 6407.68 6364.71Z" fill="url(#paint110_linear_216_67713)"/>
<path opacity="0.4" d="M6427.89 6362.69C6427.89 6362.52 6427.89 6362.52 6427.89 6362.35C6427.04 6365.89 6424.18 6368.24 6419.97 6369.09C6415.76 6369.93 6412.05 6370.77 6406.83 6371.78C6401.61 6372.79 6399.42 6373.46 6392.85 6373.63C6385.11 6373.8 6385.61 6370.77 6385.78 6370.6C6385.61 6371.11 6385.61 6371.78 6385.78 6372.45C6386.29 6374.64 6388.14 6374.98 6388.14 6374.98C6388.14 6374.98 6391.17 6374.98 6393.53 6375.15C6395.89 6375.15 6400.94 6375.32 6403.13 6374.81C6408.18 6373.8 6420.31 6371.61 6423.34 6370.1C6426.37 6368.58 6429.23 6366.73 6429.23 6366.73C6427.55 6365.21 6427.89 6362.69 6427.89 6362.69Z" fill="url(#paint111_linear_216_67713)"/>
<g opacity="0.5">
<path d="M6407.34 6363.87C6407.34 6363.87 6407.34 6364.03 6407.34 6364.37C6407.34 6364.71 6407.51 6365.04 6407.51 6365.55C6407.51 6365.72 6407.51 6366.05 6407.67 6366.22C6407.67 6366.56 6407.84 6366.73 6407.84 6367.07C6407.84 6367.4 6408.01 6367.57 6408.01 6367.91C6408.01 6368.24 6408.18 6368.58 6408.18 6368.75C6408.18 6368.92 6408.18 6369.09 6408.35 6369.25C6408.35 6369.42 6408.52 6369.59 6408.52 6369.76C6408.52 6369.93 6408.69 6370.1 6408.69 6370.27C6408.69 6370.43 6408.85 6370.6 6408.85 6370.77C6408.85 6370.94 6409.02 6371.11 6409.02 6371.11C6409.02 6371.28 6409.19 6371.44 6409.19 6371.44C6409.19 6371.61 6409.36 6371.61 6409.36 6371.78C6409.36 6371.95 6409.53 6371.95 6409.53 6372.12C6409.7 6372.29 6409.7 6372.45 6409.7 6372.79C6409.7 6372.62 6409.53 6372.45 6409.36 6372.29C6409.36 6372.12 6409.19 6372.12 6409.19 6371.95C6409.19 6371.78 6409.02 6371.78 6409.02 6371.61C6409.02 6371.44 6408.85 6371.28 6408.85 6371.28C6408.85 6371.11 6408.69 6370.94 6408.69 6370.94C6408.69 6370.77 6408.52 6370.6 6408.52 6370.43C6408.52 6370.27 6408.35 6370.1 6408.35 6369.93C6408.35 6369.76 6408.18 6369.59 6408.18 6369.42C6408.18 6369.25 6408.18 6369.09 6408.01 6368.92C6408.01 6368.58 6407.84 6368.24 6407.84 6368.08C6407.84 6367.74 6407.67 6367.4 6407.67 6367.23C6407.67 6366.9 6407.51 6366.73 6407.51 6366.39C6407.51 6366.05 6407.51 6365.89 6407.34 6365.72C6407.34 6365.55 6407.34 6365.21 6407.34 6365.04C6407.34 6364.88 6407.34 6364.71 6407.34 6364.54C6407.34 6364.03 6407.34 6363.87 6407.34 6363.87Z" fill="#687279"/>
</g>
<g opacity="0.5">
<path d="M6397.07 6365.55C6397.07 6365.55 6397.07 6365.72 6397.07 6366.05C6397.07 6366.39 6397.23 6366.73 6397.23 6367.23C6397.23 6367.4 6397.4 6367.74 6397.4 6367.91C6397.4 6368.08 6397.4 6368.24 6397.57 6368.24C6397.57 6368.41 6397.57 6368.58 6397.74 6368.75C6397.74 6369.09 6397.91 6369.25 6397.91 6369.59C6397.91 6369.93 6398.08 6370.27 6398.25 6370.43C6398.41 6370.77 6398.41 6371.11 6398.58 6371.28C6398.75 6371.61 6398.75 6371.78 6398.92 6372.12C6398.92 6372.29 6399.09 6372.45 6399.09 6372.45C6399.09 6372.62 6399.26 6372.79 6399.26 6372.79C6399.42 6372.96 6399.42 6373.3 6399.59 6373.47C6399.76 6373.63 6399.76 6373.8 6399.93 6373.97C6399.93 6373.97 6399.93 6373.97 6399.93 6374.14C6399.93 6374.14 6399.93 6374.14 6399.93 6374.31C6399.93 6374.31 6399.93 6374.48 6400.1 6374.48C6400.1 6374.48 6400.1 6374.31 6399.93 6374.31C6399.93 6374.31 6399.93 6374.31 6399.93 6374.14C6399.93 6374.14 6399.93 6374.14 6399.93 6373.97C6399.93 6373.8 6399.76 6373.63 6399.59 6373.47C6399.42 6373.3 6399.42 6372.96 6399.26 6372.79C6399.09 6372.62 6399.09 6372.29 6398.92 6371.95C6398.75 6371.61 6398.75 6371.44 6398.58 6371.11C6398.41 6370.77 6398.41 6370.43 6398.25 6370.27C6398.25 6369.93 6398.08 6369.59 6398.08 6369.42C6398.08 6369.09 6397.91 6368.75 6397.91 6368.58C6397.91 6368.41 6397.91 6368.24 6397.74 6368.08C6397.74 6367.91 6397.74 6367.74 6397.57 6367.74C6397.57 6367.4 6397.4 6367.23 6397.4 6367.07C6397.23 6366.56 6397.23 6366.22 6397.23 6365.89C6397.07 6365.72 6397.07 6365.55 6397.07 6365.55Z" fill="#687279"/>
</g>
<path d="M6408.18 6368.92L6408.86 6368.75L6409.02 6369.25L6408.35 6369.42L6408.18 6368.92Z" fill="url(#paint112_linear_216_67713)"/>
<path d="M6409.02 6371.44L6409.87 6371.28V6371.78L6409.19 6371.95L6409.02 6371.44Z" fill="url(#paint113_linear_216_67713)"/>
<path d="M6330.87 6362.01C6329.36 6362.35 6326.83 6363.7 6326.83 6363.7L6335.59 6375.99C6339.46 6374.64 6344.52 6372.79 6349.91 6370.94C6350.41 6370.77 6350.75 6370.6 6351.25 6370.43C6347.88 6368.92 6334.92 6362.69 6334.24 6362.35C6333.57 6361.84 6332.56 6361.68 6330.87 6362.01Z" fill="url(#paint114_linear_216_67713)"/>
<path opacity="0.2" d="M6341.65 6370.26C6339.3 6368.92 6332.22 6364.71 6328.85 6362.85C6327.84 6363.36 6326.83 6363.86 6326.83 6363.86L6335.59 6376.16C6339.46 6374.81 6344.52 6372.96 6349.91 6371.11C6350.41 6370.94 6350.75 6370.77 6351.25 6370.6C6351.09 6370.43 6350.75 6370.43 6350.58 6370.26C6347.38 6371.44 6344.35 6371.78 6341.65 6370.26Z" fill="url(#paint115_linear_216_67713)"/>
<path d="M6334.07 6377C6334.07 6377 6341.82 6375.32 6343.51 6374.98C6345.02 6374.64 6345.86 6373.97 6346.37 6373.46C6346.37 6373.46 6345.36 6373.8 6342.83 6372.29C6340.31 6370.94 6326.16 6362.01 6326.16 6362.01C6326.16 6362.01 6323.97 6361.34 6320.94 6363.02L6334.07 6377Z" fill="url(#paint116_linear_216_67713)" stroke="#828993" stroke-width="0.002525" stroke-miterlimit="10" stroke-linecap="round" stroke-linejoin="round"/>
<path opacity="0.2" d="M6345.02 6373.3C6344.18 6373.63 6343 6374.14 6340.98 6374.48C6335.59 6375.49 6335.08 6374.48 6332.56 6372.62C6330.03 6370.6 6321.95 6362.69 6321.95 6362.69C6321.61 6362.85 6321.27 6363.02 6321.1 6363.19L6334.24 6377C6334.24 6377 6341.99 6375.32 6343.67 6374.98C6345.19 6374.64 6346.03 6373.97 6346.54 6373.46C6346.37 6373.46 6346.03 6373.63 6345.02 6373.3Z" fill="url(#paint117_linear_216_67713)" stroke="#828993" stroke-width="0.002525" stroke-miterlimit="10" stroke-linecap="round" stroke-linejoin="round"/>
<path opacity="0.6" d="M6342.83 6372.29C6342.33 6371.95 6341.49 6371.44 6340.31 6370.77L6330.2 6372.79L6334.07 6376.83C6334.07 6376.83 6341.82 6375.15 6343.51 6374.81C6345.02 6374.47 6345.86 6373.8 6346.37 6373.3C6346.37 6373.46 6345.36 6373.8 6342.83 6372.29Z" fill="url(#paint118_linear_216_67713)"/>
<path d="M6334.92 6380.54L6333.06 6393.17L6337.44 6392.5L6346.37 6380.71C6343.17 6380.71 6339.3 6380.54 6334.92 6380.54Z" fill="url(#paint119_linear_216_67713)" stroke="#828993" stroke-width="0.002525" stroke-miterlimit="10" stroke-linecap="round" stroke-linejoin="round"/>
<path opacity="0.2" d="M6335.59 6385.09C6336.26 6382.05 6337.61 6381.89 6340.64 6381.89C6342.33 6381.89 6344.35 6381.72 6345.7 6381.72L6346.37 6380.71C6343 6380.71 6339.3 6380.71 6334.92 6380.54L6333.06 6393.17L6333.91 6393C6334.41 6390.98 6335.09 6387.28 6335.59 6385.09Z" fill="url(#paint120_linear_216_67713)" stroke="#828993" stroke-width="0.002525" stroke-miterlimit="10" stroke-linecap="round" stroke-linejoin="round"/>
<path opacity="0.8" d="M6341.82 6386.94L6346.54 6380.71C6343.17 6380.71 6339.47 6380.71 6335.09 6380.54L6334.24 6386.43C6336.6 6386.77 6339.13 6386.77 6341.82 6386.94Z" fill="url(#paint121_linear_216_67713)"/>
<path d="M6414.75 6352.58C6411.89 6350.05 6371.46 6318.9 6371.46 6318.9L6366.41 6319.23L6377.36 6332.03L6376.18 6332.54L6391.34 6353.09L6392.01 6352.75L6400.1 6365.04C6414.24 6363.53 6424.86 6358.98 6424.86 6358.98C6422.67 6358.81 6417.78 6355.27 6414.75 6352.58Z" fill="url(#paint122_linear_216_67713)" stroke="#828993" stroke-width="0.002525" stroke-miterlimit="10" stroke-linecap="round" stroke-linejoin="round"/>
<path opacity="0.7" d="M6414.75 6352.58C6414.41 6352.24 6413.57 6351.57 6412.39 6350.73L6393.19 6354.77L6399.93 6365.04C6414.08 6363.53 6424.69 6358.98 6424.69 6358.98C6422.67 6358.81 6417.78 6355.27 6414.75 6352.58Z" fill="url(#paint123_linear_216_67713)"/>
<path opacity="0.4" d="M6397.91 6352.92L6410.04 6349.55L6399.26 6340.96C6399.26 6340.96 6393.02 6345.51 6393.19 6346.01C6393.36 6347.19 6397.91 6352.92 6397.91 6352.92Z" fill="url(#paint124_linear_216_67713)"/>
<path d="M6378.37 6331.7L6377.36 6332.03L6376.18 6332.54L6391.17 6352.92L6391.84 6352.58L6395.55 6350.39L6378.37 6331.7Z" fill="url(#paint125_linear_216_67713)" stroke="#828993" stroke-width="0.002525" stroke-miterlimit="10" stroke-linecap="round" stroke-linejoin="round"/>
<path opacity="0.3" d="M6378.37 6331.7L6377.53 6331.86L6394.03 6351.23L6395.55 6350.39L6378.37 6331.7Z" fill="url(#paint126_linear_216_67713)" stroke="#828993" stroke-width="0.002525" stroke-miterlimit="10" stroke-linecap="round" stroke-linejoin="round"/>
<path d="M6414.75 6352.58C6411.89 6350.05 6371.46 6318.9 6371.46 6318.9L6366.41 6319.23L6366.58 6319.4L6371.46 6319.23C6371.46 6319.23 6409.87 6349.21 6415.59 6354.1C6420.31 6358.14 6423.84 6358.98 6424.86 6358.98C6422.67 6358.81 6417.78 6355.27 6414.75 6352.58Z" fill="url(#paint127_linear_216_67713)" stroke="#828993" stroke-width="0.002525" stroke-miterlimit="10" stroke-linecap="round" stroke-linejoin="round"/>
<path d="M6387.46 6337.25C6387.63 6337.42 6379.72 6339.78 6379.55 6339.61C6379.38 6339.44 6379.55 6338.6 6382.75 6337.59C6385.95 6336.41 6387.3 6336.92 6387.46 6337.25Z" fill="url(#paint128_linear_216_67713)" stroke="#828993" stroke-width="0.002525" stroke-miterlimit="10"/>
<path d="M6396.22 6345.67C6396.39 6346.01 6386.79 6349.21 6386.45 6348.87C6386.12 6348.54 6387.63 6347.02 6390.5 6346.18C6393.36 6345.34 6396.05 6345.34 6396.22 6345.67Z" fill="url(#paint129_linear_216_67713)" stroke="#828993" stroke-width="0.002525" stroke-miterlimit="10"/>
<path d="M6424.35 6347.19C6423.68 6346.01 6421.82 6346.18 6417.11 6347.36C6412.39 6348.54 6410.88 6349.55 6410.88 6349.55C6410.88 6349.55 6410.37 6352.75 6412.56 6354.6C6415.93 6355.78 6423.34 6354.6 6424.69 6353.93C6425.87 6352.92 6424.86 6348.37 6424.35 6347.19Z" fill="url(#paint130_linear_216_67713)" stroke="#828993" stroke-width="0.002525" stroke-miterlimit="10"/>
<path d="M6410.71 6349.38L6409.7 6350.22C6409.7 6350.22 6409.36 6351.91 6410.2 6353.59C6410.2 6353.59 6410.37 6353.93 6410.71 6354.1L6412.39 6354.26C6410.37 6352.58 6410.71 6349.38 6410.71 6349.38Z" fill="url(#paint131_linear_216_67713)" stroke="#404449" stroke-width="0.001275" stroke-miterlimit="10"/>
<path d="M6409.7 6350.39L6410.71 6349.55L6398.25 6352.75C6397.4 6352.92 6397.91 6353.42 6398.41 6353.42C6398.92 6353.25 6401.28 6352.92 6401.28 6352.92L6403.47 6353.59L6409.53 6351.91C6409.7 6350.9 6409.7 6350.39 6409.7 6350.39Z" fill="url(#paint132_linear_216_67713)" stroke="#828993" stroke-width="0.002525" stroke-miterlimit="10" stroke-linecap="round" stroke-linejoin="round"/>
<path d="M6409.7 6351.57L6403.63 6353.25L6409.87 6352.75C6409.87 6352.41 6409.7 6351.91 6409.7 6351.57Z" fill="url(#paint133_linear_216_67713)" stroke="#828993" stroke-width="0.002525" stroke-miterlimit="10" stroke-linecap="round" stroke-linejoin="round"/>
<path opacity="0.4" d="M6424.52 6347.19C6424.35 6347.02 6424.35 6346.85 6424.18 6346.69C6425.36 6348.87 6424.69 6352.24 6418.62 6353.09C6411.04 6354.1 6410.88 6349.38 6410.88 6349.38C6410.88 6349.38 6410.37 6352.58 6412.56 6354.43C6415.93 6355.61 6423.34 6354.43 6424.69 6353.76C6426.03 6353.09 6425.02 6348.54 6424.52 6347.19Z" fill="url(#paint134_linear_216_67713)"/>
<defs>
<linearGradient id="paint0_linear_216_67713" x1="6403.71" y1="6357.6" x2="6406.61" y2="6371.5" gradientUnits="userSpaceOnUse">
<stop stop-color="#E7EEF3"/>
<stop offset="0.00727966" stop-color="#E7EEF3"/>
<stop offset="0.3469" stop-color="#F2F7FB"/>
<stop offset="0.4879" stop-color="#C9CFD5"/>
<stop offset="0.7874" stop-color="#757D86"/>
<stop offset="1" stop-color="#7B8386"/>
</linearGradient>
<linearGradient id="paint1_linear_216_67713" x1="6355.58" y1="6368.21" x2="6355.51" y2="6380.5" gradientUnits="userSpaceOnUse">
<stop stop-color="#4DA9E6"/>
<stop offset="1" stop-color="#265CA4"/>
</linearGradient>
<linearGradient id="paint2_linear_216_67713" x1="6362.92" y1="6365.39" x2="6351.23" y2="6379.3" gradientUnits="userSpaceOnUse">
<stop stop-color="#FCF278"/>
<stop offset="1" stop-color="#E7B149"/>
</linearGradient>
<linearGradient id="paint3_linear_216_67713" x1="6357.6" y1="6367.86" x2="6342.85" y2="6380.26" gradientUnits="userSpaceOnUse">
<stop stop-color="#B7D053"/>
<stop offset="1" stop-color="#64B257"/>
</linearGradient>
<linearGradient id="paint4_linear_216_67713" x1="6406.25" y1="6371.24" x2="6404.14" y2="6357.76" gradientUnits="userSpaceOnUse">
<stop stop-color="#808C93"/>
<stop offset="0.1506" stop-color="#8C969D"/>
<stop offset="0.4194" stop-color="#AAB2B7"/>
<stop offset="0.7728" stop-color="#DCDFE1"/>
<stop offset="1" stop-color="white"/>
</linearGradient>
<linearGradient id="paint5_linear_216_67713" x1="6406.61" y1="6371.51" x2="6403.75" y2="6357.75" gradientUnits="userSpaceOnUse">
<stop stop-color="#808C98"/>
<stop offset="1" stop-color="white"/>
</linearGradient>
<linearGradient id="paint6_linear_216_67713" x1="6448.22" y1="6352.58" x2="6449.25" y2="6352.32" gradientUnits="userSpaceOnUse">
<stop stop-color="#4C4D4F"/>
<stop offset="1" stop-color="#1A1818"/>
</linearGradient>
<linearGradient id="paint7_linear_216_67713" x1="6446.47" y1="6352.95" x2="6447.5" y2="6352.68" gradientUnits="userSpaceOnUse">
<stop stop-color="#4C4D4F"/>
<stop offset="1" stop-color="#1A1818"/>
</linearGradient>
<linearGradient id="paint8_linear_216_67713" x1="6444.79" y1="6353.34" x2="6445.82" y2="6353.07" gradientUnits="userSpaceOnUse">
<stop stop-color="#4C4D4F"/>
<stop offset="1" stop-color="#1A1818"/>
</linearGradient>
<linearGradient id="paint9_linear_216_67713" x1="6443.15" y1="6353.69" x2="6444.18" y2="6353.43" gradientUnits="userSpaceOnUse">
<stop stop-color="#4C4D4F"/>
<stop offset="1" stop-color="#1A1818"/>
</linearGradient>
<linearGradient id="paint10_linear_216_67713" x1="6441.53" y1="6354" x2="6442.51" y2="6353.74" gradientUnits="userSpaceOnUse">
<stop stop-color="#4C4D4F"/>
<stop offset="1" stop-color="#1A1818"/>
</linearGradient>
<linearGradient id="paint11_linear_216_67713" x1="6440.04" y1="6354.28" x2="6440.99" y2="6354.04" gradientUnits="userSpaceOnUse">
<stop stop-color="#4C4D4F"/>
<stop offset="1" stop-color="#1A1818"/>
</linearGradient>
<linearGradient id="paint12_linear_216_67713" x1="6438.54" y1="6354.65" x2="6439.41" y2="6354.43" gradientUnits="userSpaceOnUse">
<stop stop-color="#4C4D4F"/>
<stop offset="1" stop-color="#1A1818"/>
</linearGradient>
<linearGradient id="paint13_linear_216_67713" x1="6436.99" y1="6354.96" x2="6437.95" y2="6354.71" gradientUnits="userSpaceOnUse">
<stop stop-color="#4C4D4F"/>
<stop offset="1" stop-color="#1A1818"/>
</linearGradient>
<linearGradient id="paint14_linear_216_67713" x1="6435.55" y1="6355.27" x2="6436.5" y2="6355.03" gradientUnits="userSpaceOnUse">
<stop stop-color="#4C4D4F"/>
<stop offset="1" stop-color="#1A1818"/>
</linearGradient>
<linearGradient id="paint15_linear_216_67713" x1="6434.14" y1="6355.58" x2="6435.08" y2="6355.34" gradientUnits="userSpaceOnUse">
<stop stop-color="#4C4D4F"/>
<stop offset="1" stop-color="#1A1818"/>
</linearGradient>
<linearGradient id="paint16_linear_216_67713" x1="6432.85" y1="6355.89" x2="6433.75" y2="6355.66" gradientUnits="userSpaceOnUse">
<stop stop-color="#4C4D4F"/>
<stop offset="1" stop-color="#1A1818"/>
</linearGradient>
<linearGradient id="paint17_linear_216_67713" x1="6431.42" y1="6356.14" x2="6432.31" y2="6355.91" gradientUnits="userSpaceOnUse">
<stop stop-color="#4C4D4F"/>
<stop offset="1" stop-color="#1A1818"/>
</linearGradient>
<linearGradient id="paint18_linear_216_67713" x1="6430.09" y1="6356.44" x2="6430.98" y2="6356.21" gradientUnits="userSpaceOnUse">
<stop stop-color="#4C4D4F"/>
<stop offset="1" stop-color="#1A1818"/>
</linearGradient>
<linearGradient id="paint19_linear_216_67713" x1="6449.96" y1="6352.13" x2="6450.99" y2="6351.87" gradientUnits="userSpaceOnUse">
<stop stop-color="#4C4D4F"/>
<stop offset="1" stop-color="#1A1818"/>
</linearGradient>
<linearGradient id="paint20_linear_216_67713" x1="6423.89" y1="6357.66" x2="6424.68" y2="6357.46" gradientUnits="userSpaceOnUse">
<stop stop-color="#4C4D4F"/>
<stop offset="1" stop-color="#1A1818"/>
</linearGradient>
<linearGradient id="paint21_linear_216_67713" x1="6422.67" y1="6357.94" x2="6423.46" y2="6357.74" gradientUnits="userSpaceOnUse">
<stop stop-color="#4C4D4F"/>
<stop offset="1" stop-color="#1A1818"/>
</linearGradient>
<linearGradient id="paint22_linear_216_67713" x1="6421.53" y1="6358.17" x2="6422.32" y2="6357.97" gradientUnits="userSpaceOnUse">
<stop stop-color="#4C4D4F"/>
<stop offset="1" stop-color="#1A1818"/>
</linearGradient>
<linearGradient id="paint23_linear_216_67713" x1="6420.44" y1="6358.41" x2="6421.18" y2="6358.22" gradientUnits="userSpaceOnUse">
<stop stop-color="#4C4D4F"/>
<stop offset="1" stop-color="#1A1818"/>
</linearGradient>
<linearGradient id="paint24_linear_216_67713" x1="6419.34" y1="6358.65" x2="6420.09" y2="6358.46" gradientUnits="userSpaceOnUse">
<stop stop-color="#4C4D4F"/>
<stop offset="1" stop-color="#1A1818"/>
</linearGradient>
<linearGradient id="paint25_linear_216_67713" x1="6418.26" y1="6358.88" x2="6419.01" y2="6358.69" gradientUnits="userSpaceOnUse">
<stop stop-color="#4C4D4F"/>
<stop offset="1" stop-color="#1A1818"/>
</linearGradient>
<linearGradient id="paint26_linear_216_67713" x1="6417.19" y1="6359.06" x2="6417.94" y2="6358.86" gradientUnits="userSpaceOnUse">
<stop stop-color="#4C4D4F"/>
<stop offset="1" stop-color="#1A1818"/>
</linearGradient>
<linearGradient id="paint27_linear_216_67713" x1="6416.18" y1="6359.26" x2="6416.93" y2="6359.07" gradientUnits="userSpaceOnUse">
<stop stop-color="#4C4D4F"/>
<stop offset="1" stop-color="#1A1818"/>
</linearGradient>
<linearGradient id="paint28_linear_216_67713" x1="6415.18" y1="6359.44" x2="6415.88" y2="6359.25" gradientUnits="userSpaceOnUse">
<stop stop-color="#4C4D4F"/>
<stop offset="1" stop-color="#1A1818"/>
</linearGradient>
<linearGradient id="paint29_linear_216_67713" x1="6414.2" y1="6359.66" x2="6414.87" y2="6359.48" gradientUnits="userSpaceOnUse">
<stop stop-color="#4C4D4F"/>
<stop offset="1" stop-color="#1A1818"/>
</linearGradient>
<linearGradient id="paint30_linear_216_67713" x1="6413.26" y1="6359.87" x2="6413.87" y2="6359.71" gradientUnits="userSpaceOnUse">
<stop stop-color="#4C4D4F"/>
<stop offset="1" stop-color="#1A1818"/>
</linearGradient>
<linearGradient id="paint31_linear_216_67713" x1="6412.3" y1="6360.03" x2="6412.92" y2="6359.87" gradientUnits="userSpaceOnUse">
<stop stop-color="#4C4D4F"/>
<stop offset="1" stop-color="#1A1818"/>
</linearGradient>
<linearGradient id="paint32_linear_216_67713" x1="6411.36" y1="6360.21" x2="6411.97" y2="6360.05" gradientUnits="userSpaceOnUse">
<stop stop-color="#4C4D4F"/>
<stop offset="1" stop-color="#1A1818"/>
</linearGradient>
<linearGradient id="paint33_linear_216_67713" x1="6410.41" y1="6360.39" x2="6411.02" y2="6360.24" gradientUnits="userSpaceOnUse">
<stop stop-color="#4C4D4F"/>
<stop offset="1" stop-color="#1A1818"/>
</linearGradient>
<linearGradient id="paint34_linear_216_67713" x1="6406.02" y1="6361.29" x2="6406.61" y2="6361.14" gradientUnits="userSpaceOnUse">
<stop stop-color="#4C4D4F"/>
<stop offset="1" stop-color="#1A1818"/>
</linearGradient>
<linearGradient id="paint35_linear_216_67713" x1="6405.15" y1="6361.46" x2="6405.73" y2="6361.31" gradientUnits="userSpaceOnUse">
<stop stop-color="#4C4D4F"/>
<stop offset="1" stop-color="#1A1818"/>
</linearGradient>
<linearGradient id="paint36_linear_216_67713" x1="6404.32" y1="6361.63" x2="6404.9" y2="6361.48" gradientUnits="userSpaceOnUse">
<stop stop-color="#4C4D4F"/>
<stop offset="1" stop-color="#1A1818"/>
</linearGradient>
<linearGradient id="paint37_linear_216_67713" x1="6403.52" y1="6361.78" x2="6404.07" y2="6361.64" gradientUnits="userSpaceOnUse">
<stop stop-color="#4C4D4F"/>
<stop offset="1" stop-color="#1A1818"/>
</linearGradient>
<linearGradient id="paint38_linear_216_67713" x1="6402.68" y1="6361.98" x2="6403.22" y2="6361.84" gradientUnits="userSpaceOnUse">
<stop stop-color="#4C4D4F"/>
<stop offset="1" stop-color="#1A1818"/>
</linearGradient>
<linearGradient id="paint39_linear_216_67713" x1="6401.86" y1="6362.12" x2="6402.41" y2="6361.98" gradientUnits="userSpaceOnUse">
<stop stop-color="#4C4D4F"/>
<stop offset="1" stop-color="#1A1818"/>
</linearGradient>
<linearGradient id="paint40_linear_216_67713" x1="6401.09" y1="6362.29" x2="6401.63" y2="6362.15" gradientUnits="userSpaceOnUse">
<stop stop-color="#4C4D4F"/>
<stop offset="1" stop-color="#1A1818"/>
</linearGradient>
<linearGradient id="paint41_linear_216_67713" x1="6400.29" y1="6362.49" x2="6400.83" y2="6362.35" gradientUnits="userSpaceOnUse">
<stop stop-color="#4C4D4F"/>
<stop offset="1" stop-color="#1A1818"/>
</linearGradient>
<linearGradient id="paint42_linear_216_67713" x1="6399.51" y1="6362.62" x2="6400.06" y2="6362.48" gradientUnits="userSpaceOnUse">
<stop stop-color="#4C4D4F"/>
<stop offset="1" stop-color="#1A1818"/>
</linearGradient>
<linearGradient id="paint43_linear_216_67713" x1="6398.74" y1="6362.78" x2="6399.29" y2="6362.64" gradientUnits="userSpaceOnUse">
<stop stop-color="#4C4D4F"/>
<stop offset="1" stop-color="#1A1818"/>
</linearGradient>
<linearGradient id="paint44_linear_216_67713" x1="6397.99" y1="6362.94" x2="6398.53" y2="6362.8" gradientUnits="userSpaceOnUse">
<stop stop-color="#4C4D4F"/>
<stop offset="1" stop-color="#1A1818"/>
</linearGradient>
<linearGradient id="paint45_linear_216_67713" x1="6397.23" y1="6363.08" x2="6397.76" y2="6362.95" gradientUnits="userSpaceOnUse">
<stop stop-color="#4C4D4F"/>
<stop offset="1" stop-color="#1A1818"/>
</linearGradient>
<linearGradient id="paint46_linear_216_67713" x1="6395.78" y1="6363.35" x2="6396.27" y2="6363.23" gradientUnits="userSpaceOnUse">
<stop stop-color="#4C4D4F"/>
<stop offset="1" stop-color="#1A1818"/>
</linearGradient>
<linearGradient id="paint47_linear_216_67713" x1="6394.37" y1="6363.59" x2="6394.86" y2="6363.47" gradientUnits="userSpaceOnUse">
<stop stop-color="#4C4D4F"/>
<stop offset="1" stop-color="#1A1818"/>
</linearGradient>
<linearGradient id="paint48_linear_216_67713" x1="6392.98" y1="6363.88" x2="6393.44" y2="6363.76" gradientUnits="userSpaceOnUse">
<stop stop-color="#4C4D4F"/>
<stop offset="1" stop-color="#1A1818"/>
</linearGradient>
<linearGradient id="paint49_linear_216_67713" x1="6392.27" y1="6364.06" x2="6392.74" y2="6363.94" gradientUnits="userSpaceOnUse">
<stop stop-color="#4C4D4F"/>
<stop offset="1" stop-color="#1A1818"/>
</linearGradient>
<linearGradient id="paint50_linear_216_67713" x1="6387.99" y1="6364.83" x2="6388.41" y2="6364.72" gradientUnits="userSpaceOnUse">
<stop stop-color="#4C4D4F"/>
<stop offset="1" stop-color="#1A1818"/>
</linearGradient>
<linearGradient id="paint51_linear_216_67713" x1="6387.3" y1="6365.01" x2="6387.72" y2="6364.9" gradientUnits="userSpaceOnUse">
<stop stop-color="#4C4D4F"/>
<stop offset="1" stop-color="#1A1818"/>
</linearGradient>
<linearGradient id="paint52_linear_216_67713" x1="6386.64" y1="6365.13" x2="6387.06" y2="6365.02" gradientUnits="userSpaceOnUse">
<stop stop-color="#4C4D4F"/>
<stop offset="1" stop-color="#1A1818"/>
</linearGradient>
<linearGradient id="paint53_linear_216_67713" x1="6385.99" y1="6365.3" x2="6386.4" y2="6365.19" gradientUnits="userSpaceOnUse">
<stop stop-color="#4C4D4F"/>
<stop offset="1" stop-color="#1A1818"/>
</linearGradient>
<linearGradient id="paint54_linear_216_67713" x1="6385.34" y1="6365.42" x2="6385.73" y2="6365.32" gradientUnits="userSpaceOnUse">
<stop stop-color="#4C4D4F"/>
<stop offset="1" stop-color="#1A1818"/>
</linearGradient>
<linearGradient id="paint55_linear_216_67713" x1="6384.69" y1="6365.55" x2="6385.09" y2="6365.45" gradientUnits="userSpaceOnUse">
<stop stop-color="#4C4D4F"/>
<stop offset="1" stop-color="#1A1818"/>
</linearGradient>
<linearGradient id="paint56_linear_216_67713" x1="6384.11" y1="6365.65" x2="6384.51" y2="6365.55" gradientUnits="userSpaceOnUse">
<stop stop-color="#4C4D4F"/>
<stop offset="1" stop-color="#1A1818"/>
</linearGradient>
<linearGradient id="paint57_linear_216_67713" x1="6383.53" y1="6365.8" x2="6383.93" y2="6365.7" gradientUnits="userSpaceOnUse">
<stop stop-color="#4C4D4F"/>
<stop offset="1" stop-color="#1A1818"/>
</linearGradient>
<linearGradient id="paint58_linear_216_67713" x1="6382.95" y1="6365.89" x2="6383.35" y2="6365.79" gradientUnits="userSpaceOnUse">
<stop stop-color="#4C4D4F"/>
<stop offset="1" stop-color="#1A1818"/>
</linearGradient>
<linearGradient id="paint59_linear_216_67713" x1="6382.41" y1="6366.02" x2="6382.79" y2="6365.92" gradientUnits="userSpaceOnUse">
<stop stop-color="#4C4D4F"/>
<stop offset="1" stop-color="#1A1818"/>
</linearGradient>
<linearGradient id="paint60_linear_216_67713" x1="6381.85" y1="6366.13" x2="6382.25" y2="6366.03" gradientUnits="userSpaceOnUse">
<stop stop-color="#4C4D4F"/>
<stop offset="1" stop-color="#1A1818"/>
</linearGradient>
<linearGradient id="paint61_linear_216_67713" x1="6381.29" y1="6366.23" x2="6381.66" y2="6366.13" gradientUnits="userSpaceOnUse">
<stop stop-color="#4C4D4F"/>
<stop offset="1" stop-color="#1A1818"/>
</linearGradient>
<linearGradient id="paint62_linear_216_67713" x1="6380.74" y1="6366.35" x2="6381.12" y2="6366.25" gradientUnits="userSpaceOnUse">
<stop stop-color="#4C4D4F"/>
<stop offset="1" stop-color="#1A1818"/>
</linearGradient>
<linearGradient id="paint63_linear_216_67713" x1="6380.21" y1="6366.51" x2="6380.59" y2="6366.41" gradientUnits="userSpaceOnUse">
<stop stop-color="#4C4D4F"/>
<stop offset="1" stop-color="#1A1818"/>
</linearGradient>
<linearGradient id="paint64_linear_216_67713" x1="6377.6" y1="6366.97" x2="6377.94" y2="6366.88" gradientUnits="userSpaceOnUse">
<stop stop-color="#4C4D4F"/>
<stop offset="1" stop-color="#1A1818"/>
</linearGradient>
<linearGradient id="paint65_linear_216_67713" x1="6378.32" y1="6364.65" x2="6380.15" y2="6371.77" gradientUnits="userSpaceOnUse">
<stop stop-color="#EFF7FC"/>
<stop offset="1" stop-color="#8C9BA6"/>
</linearGradient>
<linearGradient id="paint66_linear_216_67713" x1="6378.29" y1="6366.84" x2="6378.62" y2="6366.75" gradientUnits="userSpaceOnUse">
<stop stop-color="#4C4D4F"/>
<stop offset="1" stop-color="#1A1818"/>
</linearGradient>
<linearGradient id="paint67_linear_216_67713" x1="6390.1" y1="6362.99" x2="6391.81" y2="6369.61" gradientUnits="userSpaceOnUse">
<stop stop-color="#EFF7FC"/>
<stop offset="1" stop-color="#8C9BA6"/>
</linearGradient>
<linearGradient id="paint68_linear_216_67713" x1="6389.87" y1="6364.52" x2="6390.29" y2="6364.41" gradientUnits="userSpaceOnUse">
<stop stop-color="#4C4D4F"/>
<stop offset="1" stop-color="#1A1818"/>
</linearGradient>
<linearGradient id="paint69_linear_216_67713" x1="6407.7" y1="6358.56" x2="6409.93" y2="6367.23" gradientUnits="userSpaceOnUse">
<stop stop-color="#EFF7FC"/>
<stop offset="1" stop-color="#8C9BA6"/>
</linearGradient>
<linearGradient id="paint70_linear_216_67713" x1="6407.32" y1="6361.01" x2="6407.91" y2="6360.86" gradientUnits="userSpaceOnUse">
<stop stop-color="#4C4D4F"/>
<stop offset="1" stop-color="#1A1818"/>
</linearGradient>
<linearGradient id="paint71_linear_216_67713" x1="6426.67" y1="6354.59" x2="6428.81" y2="6362.91" gradientUnits="userSpaceOnUse">
<stop stop-color="#EFF7FC"/>
<stop offset="1" stop-color="#8C9BA6"/>
</linearGradient>
<linearGradient id="paint72_linear_216_67713" x1="6426.1" y1="6357.21" x2="6426.89" y2="6357.01" gradientUnits="userSpaceOnUse">
<stop stop-color="#4C4D4F"/>
<stop offset="1" stop-color="#1A1818"/>
</linearGradient>
<linearGradient id="paint73_linear_216_67713" x1="6377.11" y1="6367.08" x2="6377.44" y2="6367" gradientUnits="userSpaceOnUse">
<stop stop-color="#4C4D4F"/>
<stop offset="1" stop-color="#1A1818"/>
</linearGradient>
<linearGradient id="paint74_linear_216_67713" x1="6376.6" y1="6367.18" x2="6376.93" y2="6367.1" gradientUnits="userSpaceOnUse">
<stop stop-color="#4C4D4F"/>
<stop offset="1" stop-color="#1A1818"/>
</linearGradient>
<linearGradient id="paint75_linear_216_67713" x1="6376.1" y1="6367.31" x2="6376.44" y2="6367.23" gradientUnits="userSpaceOnUse">
<stop stop-color="#4C4D4F"/>
<stop offset="1" stop-color="#1A1818"/>
</linearGradient>
<linearGradient id="paint76_linear_216_67713" x1="6375.62" y1="6367.41" x2="6375.96" y2="6367.33" gradientUnits="userSpaceOnUse">
<stop stop-color="#4C4D4F"/>
<stop offset="1" stop-color="#1A1818"/>
</linearGradient>
<linearGradient id="paint77_linear_216_67713" x1="6375.13" y1="6367.51" x2="6375.46" y2="6367.42" gradientUnits="userSpaceOnUse">
<stop stop-color="#4C4D4F"/>
<stop offset="1" stop-color="#1A1818"/>
</linearGradient>
<linearGradient id="paint78_linear_216_67713" x1="6374.65" y1="6367.6" x2="6374.98" y2="6367.51" gradientUnits="userSpaceOnUse">
<stop stop-color="#4C4D4F"/>
<stop offset="1" stop-color="#1A1818"/>
</linearGradient>
<linearGradient id="paint79_linear_216_67713" x1="6374.15" y1="6367.71" x2="6374.48" y2="6367.63" gradientUnits="userSpaceOnUse">
<stop stop-color="#4C4D4F"/>
<stop offset="1" stop-color="#1A1818"/>
</linearGradient>
<linearGradient id="paint80_linear_216_67713" x1="6373.71" y1="6367.8" x2="6374.02" y2="6367.72" gradientUnits="userSpaceOnUse">
<stop stop-color="#4C4D4F"/>
<stop offset="1" stop-color="#1A1818"/>
</linearGradient>
<linearGradient id="paint81_linear_216_67713" x1="6373.25" y1="6367.9" x2="6373.57" y2="6367.82" gradientUnits="userSpaceOnUse">
<stop stop-color="#4C4D4F"/>
<stop offset="1" stop-color="#1A1818"/>
</linearGradient>
<linearGradient id="paint82_linear_216_67713" x1="6372.8" y1="6368.02" x2="6373.11" y2="6367.93" gradientUnits="userSpaceOnUse">
<stop stop-color="#4C4D4F"/>
<stop offset="1" stop-color="#1A1818"/>
</linearGradient>
<linearGradient id="paint83_linear_216_67713" x1="6372.33" y1="6368.1" x2="6372.64" y2="6368.02" gradientUnits="userSpaceOnUse">
<stop stop-color="#4C4D4F"/>
<stop offset="1" stop-color="#1A1818"/>
</linearGradient>
<linearGradient id="paint84_linear_216_67713" x1="6371.89" y1="6368.19" x2="6372.2" y2="6368.11" gradientUnits="userSpaceOnUse">
<stop stop-color="#4C4D4F"/>
<stop offset="1" stop-color="#1A1818"/>
</linearGradient>
<linearGradient id="paint85_linear_216_67713" x1="6371.45" y1="6368.3" x2="6371.76" y2="6368.22" gradientUnits="userSpaceOnUse">
<stop stop-color="#4C4D4F"/>
<stop offset="1" stop-color="#1A1818"/>
</linearGradient>
<linearGradient id="paint86_linear_216_67713" x1="6370.99" y1="6368.39" x2="6371.3" y2="6368.31" gradientUnits="userSpaceOnUse">
<stop stop-color="#4C4D4F"/>
<stop offset="1" stop-color="#1A1818"/>
</linearGradient>
<linearGradient id="paint87_linear_216_67713" x1="6370.58" y1="6368.49" x2="6370.89" y2="6368.41" gradientUnits="userSpaceOnUse">
<stop stop-color="#4C4D4F"/>
<stop offset="1" stop-color="#1A1818"/>
</linearGradient>
<linearGradient id="paint88_linear_216_67713" x1="6370.17" y1="6368.57" x2="6370.49" y2="6368.49" gradientUnits="userSpaceOnUse">
<stop stop-color="#4C4D4F"/>
<stop offset="1" stop-color="#1A1818"/>
</linearGradient>
<linearGradient id="paint89_linear_216_67713" x1="6369.79" y1="6368.65" x2="6370.09" y2="6368.57" gradientUnits="userSpaceOnUse">
<stop stop-color="#4C4D4F"/>
<stop offset="1" stop-color="#1A1818"/>
</linearGradient>
<linearGradient id="paint90_linear_216_67713" x1="6369.39" y1="6368.75" x2="6369.68" y2="6368.67" gradientUnits="userSpaceOnUse">
<stop stop-color="#4C4D4F"/>
<stop offset="1" stop-color="#1A1818"/>
</linearGradient>
<linearGradient id="paint91_linear_216_67713" x1="6368.98" y1="6368.83" x2="6369.28" y2="6368.75" gradientUnits="userSpaceOnUse">
<stop stop-color="#4C4D4F"/>
<stop offset="1" stop-color="#1A1818"/>
</linearGradient>
<linearGradient id="paint92_linear_216_67713" x1="6368.61" y1="6368.89" x2="6368.9" y2="6368.81" gradientUnits="userSpaceOnUse">
<stop stop-color="#4C4D4F"/>
<stop offset="1" stop-color="#1A1818"/>
</linearGradient>
<linearGradient id="paint93_linear_216_67713" x1="6368.27" y1="6368.93" x2="6368.55" y2="6368.85" gradientUnits="userSpaceOnUse">
<stop stop-color="#4C4D4F"/>
<stop offset="1" stop-color="#1A1818"/>
</linearGradient>
<linearGradient id="paint94_linear_216_67713" x1="6367.92" y1="6368.98" x2="6368.19" y2="6368.91" gradientUnits="userSpaceOnUse">
<stop stop-color="#4C4D4F"/>
<stop offset="1" stop-color="#1A1818"/>
</linearGradient>
<linearGradient id="paint95_linear_216_67713" x1="6367.6" y1="6369.04" x2="6367.87" y2="6368.97" gradientUnits="userSpaceOnUse">
<stop stop-color="#4C4D4F"/>
<stop offset="1" stop-color="#1A1818"/>
</linearGradient>
<linearGradient id="paint96_linear_216_67713" x1="6367.24" y1="6369.12" x2="6367.51" y2="6369.05" gradientUnits="userSpaceOnUse">
<stop stop-color="#4C4D4F"/>
<stop offset="1" stop-color="#1A1818"/>
</linearGradient>
<linearGradient id="paint97_linear_216_67713" x1="6420.05" y1="6393.73" x2="6402.5" y2="6379.79" gradientUnits="userSpaceOnUse">
<stop stop-color="#F0F7FB"/>
<stop offset="0.0454708" stop-color="#DBE3E9"/>
<stop offset="0.12" stop-color="#C0C9D0"/>
<stop offset="0.1857" stop-color="#AFB9C1"/>
<stop offset="0.2348" stop-color="#A9B3BC"/>
<stop offset="0.332" stop-color="#939DA6"/>
<stop offset="0.5187" stop-color="#6F7981"/>
<stop offset="0.6176" stop-color="#616B73"/>
<stop offset="1" stop-color="#5E656C"/>
</linearGradient>
<linearGradient id="paint98_linear_216_67713" x1="6415.63" y1="6370.38" x2="6414.83" y2="6382.62" gradientUnits="userSpaceOnUse">
<stop stop-color="#808C98"/>
<stop offset="1" stop-color="white"/>
</linearGradient>
<linearGradient id="paint99_linear_216_67713" x1="6398.64" y1="6389.68" x2="6401.56" y2="6390.63" gradientUnits="userSpaceOnUse">
<stop stop-color="#394144"/>
<stop offset="0.1136" stop-color="#596369"/>
<stop offset="0.1808" stop-color="#687279"/>
<stop offset="1" stop-color="#676E74"/>
</linearGradient>
<linearGradient id="paint100_linear_216_67713" x1="6400.23" y1="6389.64" x2="6401.35" y2="6390.06" gradientUnits="userSpaceOnUse">
<stop stop-color="#F0F7FB"/>
<stop offset="0.0123379" stop-color="#EBF3F7"/>
<stop offset="0.0999835" stop-color="#D0D9DF"/>
<stop offset="0.1771" stop-color="#BFCAD0"/>
<stop offset="0.2348" stop-color="#B9C4CB"/>
<stop offset="0.3581" stop-color="#9BA5AC"/>
<stop offset="0.5277" stop-color="#768087"/>
<stop offset="0.6176" stop-color="#687279"/>
<stop offset="1" stop-color="#676E74"/>
</linearGradient>
<linearGradient id="paint101_linear_216_67713" x1="6402.98" y1="6389.57" x2="6401.94" y2="6386.63" gradientUnits="userSpaceOnUse">
<stop stop-color="#F0F7FB"/>
<stop offset="0.2348" stop-color="#F0F7FB"/>
<stop offset="0.3797" stop-color="#C2C9CF"/>
<stop offset="0.5348" stop-color="#979FA6"/>
<stop offset="0.6563" stop-color="#7D858C"/>
<stop offset="0.7282" stop-color="#737B83"/>
<stop offset="1" stop-color="#6E777A"/>
</linearGradient>
<linearGradient id="paint102_linear_216_67713" x1="6400.62" y1="6396.77" x2="6399.61" y2="6394.14" gradientUnits="userSpaceOnUse">
<stop stop-color="#F0F7FB"/>
<stop offset="0.2348" stop-color="#F0F7FB"/>
<stop offset="0.3797" stop-color="#C2C9CF"/>
<stop offset="0.5348" stop-color="#979FA6"/>
<stop offset="0.6563" stop-color="#7D858C"/>
<stop offset="0.7282" stop-color="#737B83"/>
<stop offset="1" stop-color="#6E777A"/>
</linearGradient>
<linearGradient id="paint103_linear_216_67713" x1="6416.44" y1="6378.7" x2="6415.24" y2="6374.75" gradientUnits="userSpaceOnUse">
<stop stop-color="#808C98"/>
<stop offset="0.096423" stop-color="#919CA6"/>
<stop offset="0.3885" stop-color="#C0C6CC"/>
<stop offset="0.6471" stop-color="#E3E5E8"/>
<stop offset="0.8597" stop-color="#F7F8F9"/>
<stop offset="1" stop-color="white"/>
</linearGradient>
<linearGradient id="paint104_linear_216_67713" x1="6424.76" y1="6374.97" x2="6426.77" y2="6384.59" gradientUnits="userSpaceOnUse">
<stop stop-color="#F0F7FB"/>
<stop offset="0.2348" stop-color="#F0F7FB"/>
<stop offset="0.328" stop-color="#C9D0D6"/>
<stop offset="0.4433" stop-color="#9FA7AE"/>
<stop offset="0.548" stop-color="#818A92"/>
<stop offset="0.6372" stop-color="#6F7780"/>
<stop offset="0.7004" stop-color="#68717A"/>
<stop offset="1" stop-color="#6E777A"/>
</linearGradient>
<linearGradient id="paint105_linear_216_67713" x1="6425.25" y1="6377.45" x2="6426.86" y2="6384.55" gradientUnits="userSpaceOnUse">
<stop stop-color="#F0F7FB"/>
<stop offset="0.2348" stop-color="#F0F7FB"/>
<stop offset="0.347" stop-color="#E5ECF0"/>
<stop offset="0.5457" stop-color="#C7CED2"/>
<stop offset="0.8056" stop-color="#979FA2"/>
<stop offset="1" stop-color="#6E777A"/>
</linearGradient>
<linearGradient id="paint106_linear_216_67713" x1="6419.98" y1="6383.01" x2="6418.99" y2="6378.01" gradientUnits="userSpaceOnUse">
<stop stop-color="#3A4249"/>
<stop offset="1" stop-color="#70797F"/>
</linearGradient>
<linearGradient id="paint107_linear_216_67713" x1="6413.85" y1="6382.91" x2="6413" y2="6379.65" gradientUnits="userSpaceOnUse">
<stop stop-color="#F0F7FB"/>
<stop offset="0.00810308" stop-color="#EBF3F7"/>
<stop offset="0.0656653" stop-color="#D0D9DF"/>
<stop offset="0.1163" stop-color="#BFCAD0"/>
<stop offset="0.1542" stop-color="#B9C4CB"/>
<stop offset="0.2708" stop-color="#97A2A9"/>
<stop offset="0.3855" stop-color="#7D878E"/>
<stop offset="0.488" stop-color="#6E787F"/>
<stop offset="0.5681" stop-color="#687279"/>
<stop offset="0.7896" stop-color="#616B71"/>
<stop offset="1" stop-color="#575F65"/>
</linearGradient>
<linearGradient id="paint108_linear_216_67713" x1="6415.46" y1="6383.25" x2="6415.52" y2="6380.94" gradientUnits="userSpaceOnUse">
<stop stop-color="#F0F7FB"/>
<stop offset="0.00810308" stop-color="#EBF3F7"/>
<stop offset="0.0656653" stop-color="#D0D9DF"/>
<stop offset="0.1163" stop-color="#BFCAD0"/>
<stop offset="0.1542" stop-color="#B9C4CB"/>
<stop offset="0.293" stop-color="#97A2A9"/>
<stop offset="0.4296" stop-color="#7D878E"/>
<stop offset="0.5516" stop-color="#6E787F"/>
<stop offset="0.647" stop-color="#687279"/>
<stop offset="0.8281" stop-color="#616B71"/>
<stop offset="1" stop-color="#575F65"/>
</linearGradient>
<linearGradient id="paint109_linear_216_67713" x1="6405.42" y1="6359.29" x2="6408.35" y2="6372.89" gradientUnits="userSpaceOnUse">
<stop stop-color="#F0F7FB"/>
<stop offset="0.2031" stop-color="#F0F7FB"/>
<stop offset="0.2845" stop-color="#C3CBD0"/>
<stop offset="0.3727" stop-color="#99A1A8"/>
<stop offset="0.4527" stop-color="#7B848B"/>
<stop offset="0.5208" stop-color="#697179"/>
<stop offset="0.5692" stop-color="#626B73"/>
<stop offset="0.8158" stop-color="#666E76"/>
<stop offset="1" stop-color="#6E777F"/>
</linearGradient>
<linearGradient id="paint110_linear_216_67713" x1="6409.66" y1="6362.8" x2="6410.46" y2="6366.67" gradientUnits="userSpaceOnUse">
<stop stop-color="#808C98"/>
<stop offset="1" stop-color="white"/>
</linearGradient>
<linearGradient id="paint111_linear_216_67713" x1="6408.7" y1="6374.67" x2="6407.39" y2="6368.41" gradientUnits="userSpaceOnUse">
<stop stop-color="#808C98"/>
<stop offset="1" stop-color="white"/>
</linearGradient>
<linearGradient id="paint112_linear_216_67713" x1="6408.27" y1="6369.19" x2="6408.92" y2="6369.06" gradientUnits="userSpaceOnUse">
<stop stop-color="#383C3D"/>
<stop offset="1" stop-color="#262936"/>
</linearGradient>
<linearGradient id="paint113_linear_216_67713" x1="6409.11" y1="6371.74" x2="6409.84" y2="6371.58" gradientUnits="userSpaceOnUse">
<stop stop-color="#383C3D"/>
<stop offset="1" stop-color="#262936"/>
</linearGradient>
<linearGradient id="paint114_linear_216_67713" x1="6340.33" y1="6365.12" x2="6337.13" y2="6370.45" gradientUnits="userSpaceOnUse">
<stop stop-color="#4DA9E6"/>
<stop offset="1" stop-color="#265CA4"/>
</linearGradient>
<linearGradient id="paint115_linear_216_67713" x1="6338.58" y1="6368.04" x2="6335.38" y2="6373.36" gradientUnits="userSpaceOnUse">
<stop stop-color="#4DA9E6"/>
<stop offset="1" stop-color="#265CA4"/>
</linearGradient>
<linearGradient id="paint116_linear_216_67713" x1="6337.26" y1="6363.59" x2="6330.19" y2="6372.78" gradientUnits="userSpaceOnUse">
<stop stop-color="#F0F7FB"/>
<stop offset="0.0123379" stop-color="#EBF3F7"/>
<stop offset="0.0999835" stop-color="#D0D9DF"/>
<stop offset="0.1771" stop-color="#BFCAD0"/>
<stop offset="0.2348" stop-color="#B9C4CB"/>
<stop offset="0.3581" stop-color="#9BA5AC"/>
<stop offset="0.5277" stop-color="#768087"/>
<stop offset="0.6176" stop-color="#687279"/>
<stop offset="1" stop-color="#676E74"/>
</linearGradient>
<linearGradient id="paint117_linear_216_67713" x1="6333.4" y1="6368.6" x2="6327.95" y2="6375.7" gradientUnits="userSpaceOnUse">
<stop stop-color="#F0F7FB"/>
<stop offset="0.0123379" stop-color="#EBF3F7"/>
<stop offset="0.0999835" stop-color="#D0D9DF"/>
<stop offset="0.1771" stop-color="#BFCAD0"/>
<stop offset="0.2348" stop-color="#B9C4CB"/>
<stop offset="0.3581" stop-color="#9BA5AC"/>
<stop offset="0.5277" stop-color="#768087"/>
<stop offset="0.6176" stop-color="#687279"/>
<stop offset="1" stop-color="#676E74"/>
</linearGradient>
<linearGradient id="paint118_linear_216_67713" x1="6338.86" y1="6375.92" x2="6338.02" y2="6371.68" gradientUnits="userSpaceOnUse">
<stop stop-color="#808C98"/>
<stop offset="1" stop-color="white"/>
</linearGradient>
<linearGradient id="paint119_linear_216_67713" x1="6346.08" y1="6390.59" x2="6334.47" y2="6383.8" gradientUnits="userSpaceOnUse">
<stop stop-color="#F0F7FB"/>
<stop offset="0.0123379" stop-color="#EBF3F7"/>
<stop offset="0.0999835" stop-color="#D0D9DF"/>
<stop offset="0.1771" stop-color="#BFCAD0"/>
<stop offset="0.2348" stop-color="#B9C4CB"/>
<stop offset="0.3581" stop-color="#9BA5AC"/>
<stop offset="0.5277" stop-color="#768087"/>
<stop offset="0.6176" stop-color="#687279"/>
<stop offset="1" stop-color="#676E74"/>
</linearGradient>
<linearGradient id="paint120_linear_216_67713" x1="6340.97" y1="6387.6" x2="6331.37" y2="6382" gradientUnits="userSpaceOnUse">
<stop stop-color="#F0F7FB"/>
<stop offset="0.0123379" stop-color="#EBF3F7"/>
<stop offset="0.0999835" stop-color="#D0D9DF"/>
<stop offset="0.1771" stop-color="#BFCAD0"/>
<stop offset="0.2348" stop-color="#B9C4CB"/>
<stop offset="0.3581" stop-color="#9BA5AC"/>
<stop offset="0.5277" stop-color="#768087"/>
<stop offset="0.6176" stop-color="#687279"/>
<stop offset="1" stop-color="#676E74"/>
</linearGradient>
<linearGradient id="paint121_linear_216_67713" x1="6340.66" y1="6380.73" x2="6339.58" y2="6386.53" gradientUnits="userSpaceOnUse">
<stop stop-color="#808C98"/>
<stop offset="0.087957" stop-color="#909AA5"/>
<stop offset="0.3841" stop-color="#BFC5CB"/>
<stop offset="0.6455" stop-color="#E2E5E8"/>
<stop offset="0.8597" stop-color="#F7F8F9"/>
<stop offset="1" stop-color="white"/>
</linearGradient>
<linearGradient id="paint122_linear_216_67713" x1="6401.35" y1="6331.29" x2="6388.53" y2="6348.44" gradientUnits="userSpaceOnUse">
<stop stop-color="#F0F7FB"/>
<stop offset="0.0123379" stop-color="#EBF3F7"/>
<stop offset="0.0999835" stop-color="#D0D9DF"/>
<stop offset="0.1771" stop-color="#BFCAD0"/>
<stop offset="0.2348" stop-color="#B9C4CB"/>
<stop offset="0.3581" stop-color="#9BA5AC"/>
<stop offset="0.5277" stop-color="#768087"/>
<stop offset="0.6176" stop-color="#687279"/>
<stop offset="1" stop-color="#676E74"/>
</linearGradient>
<linearGradient id="paint123_linear_216_67713" x1="6411.31" y1="6362.23" x2="6407.43" y2="6353.03" gradientUnits="userSpaceOnUse">
<stop stop-color="#808C98"/>
<stop offset="1" stop-color="white"/>
</linearGradient>
<linearGradient id="paint124_linear_216_67713" x1="6402.68" y1="6351.38" x2="6400.99" y2="6345.87" gradientUnits="userSpaceOnUse">
<stop stop-color="#808C98"/>
<stop offset="0.5856" stop-color="#CDD2D6"/>
<stop offset="1" stop-color="white"/>
</linearGradient>
<linearGradient id="paint125_linear_216_67713" x1="6383.64" y1="6342.98" x2="6387.32" y2="6340.37" gradientUnits="userSpaceOnUse">
<stop stop-color="#394144"/>
<stop offset="0.0944142" stop-color="#596369"/>
<stop offset="0.1502" stop-color="#687279"/>
<stop offset="1" stop-color="#676E74"/>
</linearGradient>
<linearGradient id="paint126_linear_216_67713" x1="6385.68" y1="6341.93" x2="6386.71" y2="6341.03" gradientUnits="userSpaceOnUse">
<stop stop-color="#F0F7FB"/>
<stop offset="0.0123379" stop-color="#EBF3F7"/>
<stop offset="0.0999835" stop-color="#D0D9DF"/>
<stop offset="0.1771" stop-color="#BFCAD0"/>
<stop offset="0.2348" stop-color="#B9C4CB"/>
<stop offset="0.3581" stop-color="#9BA5AC"/>
<stop offset="0.5277" stop-color="#768087"/>
<stop offset="0.6176" stop-color="#687279"/>
<stop offset="1" stop-color="#676E74"/>
</linearGradient>
<linearGradient id="paint127_linear_216_67713" x1="6371.54" y1="6344.05" x2="6419.59" y2="6334.04" gradientUnits="userSpaceOnUse">
<stop stop-color="#F0F7FB"/>
<stop offset="0.0123379" stop-color="#EBF3F7"/>
<stop offset="0.0999835" stop-color="#D0D9DF"/>
<stop offset="0.1771" stop-color="#BFCAD0"/>
<stop offset="0.2348" stop-color="#B9C4CB"/>
<stop offset="0.3581" stop-color="#9BA5AC"/>
<stop offset="0.5277" stop-color="#768087"/>
<stop offset="0.6176" stop-color="#687279"/>
<stop offset="1" stop-color="#676E74"/>
</linearGradient>
<linearGradient id="paint128_linear_216_67713" x1="6383.95" y1="6339.91" x2="6383.09" y2="6337" gradientUnits="userSpaceOnUse">
<stop stop-color="#F0F7FB"/>
<stop offset="0.2348" stop-color="#F0F7FB"/>
<stop offset="0.3797" stop-color="#C2C9CF"/>
<stop offset="0.5348" stop-color="#979FA6"/>
<stop offset="0.6563" stop-color="#7D858C"/>
<stop offset="0.7282" stop-color="#737B83"/>
<stop offset="1" stop-color="#6E777A"/>
</linearGradient>
<linearGradient id="paint129_linear_216_67713" x1="6391.85" y1="6349.18" x2="6390.82" y2="6345.79" gradientUnits="userSpaceOnUse">
<stop stop-color="#F0F7FB"/>
<stop offset="0.2348" stop-color="#F0F7FB"/>
<stop offset="0.3797" stop-color="#C2C9CF"/>
<stop offset="0.5348" stop-color="#979FA6"/>
<stop offset="0.6563" stop-color="#7D858C"/>
<stop offset="0.7282" stop-color="#737B83"/>
<stop offset="1" stop-color="#6E777A"/>
</linearGradient>
<linearGradient id="paint130_linear_216_67713" x1="6416.95" y1="6345.84" x2="6418.97" y2="6355.53" gradientUnits="userSpaceOnUse">
<stop stop-color="#F0F7FB"/>
<stop offset="0.2348" stop-color="#F0F7FB"/>
<stop offset="0.328" stop-color="#C9D0D6"/>
<stop offset="0.4433" stop-color="#9FA7AE"/>
<stop offset="0.548" stop-color="#818A92"/>
<stop offset="0.6372" stop-color="#6F7780"/>
<stop offset="0.7004" stop-color="#68717A"/>
<stop offset="1" stop-color="#6E777A"/>
</linearGradient>
<linearGradient id="paint131_linear_216_67713" x1="6411.43" y1="6354.55" x2="6409.8" y2="6349.03" gradientUnits="userSpaceOnUse">
<stop stop-color="#3A4249"/>
<stop offset="1" stop-color="#70797F"/>
</linearGradient>
<linearGradient id="paint132_linear_216_67713" x1="6405.18" y1="6354.31" x2="6404.33" y2="6351.1" gradientUnits="userSpaceOnUse">
<stop stop-color="#F0F7FB"/>
<stop offset="0.00810308" stop-color="#EBF3F7"/>
<stop offset="0.0656653" stop-color="#D0D9DF"/>
<stop offset="0.1163" stop-color="#BFCAD0"/>
<stop offset="0.1542" stop-color="#B9C4CB"/>
<stop offset="0.293" stop-color="#97A2A9"/>
<stop offset="0.4296" stop-color="#7D878E"/>
<stop offset="0.5516" stop-color="#6E787F"/>
<stop offset="0.647" stop-color="#687279"/>
<stop offset="0.8281" stop-color="#616B71"/>
<stop offset="1" stop-color="#575F65"/>
</linearGradient>
<linearGradient id="paint133_linear_216_67713" x1="6406.87" y1="6355.12" x2="6406.75" y2="6352.04" gradientUnits="userSpaceOnUse">
<stop stop-color="#F0F7FB"/>
<stop offset="0.00810308" stop-color="#EBF3F7"/>
<stop offset="0.0656653" stop-color="#D0D9DF"/>
<stop offset="0.1163" stop-color="#BFCAD0"/>
<stop offset="0.1542" stop-color="#B9C4CB"/>
<stop offset="0.293" stop-color="#97A2A9"/>
<stop offset="0.4296" stop-color="#7D878E"/>
<stop offset="0.5516" stop-color="#6E787F"/>
<stop offset="0.647" stop-color="#687279"/>
<stop offset="0.8281" stop-color="#616B71"/>
<stop offset="1" stop-color="#575F65"/>
</linearGradient>
<linearGradient id="paint134_linear_216_67713" x1="6417.31" y1="6346.92" x2="6419.11" y2="6355.58" gradientUnits="userSpaceOnUse">
<stop stop-color="#F0F7FB"/>
<stop offset="0.2348" stop-color="#F0F7FB"/>
<stop offset="0.347" stop-color="#E5ECF0"/>
<stop offset="0.5457" stop-color="#C7CED2"/>
<stop offset="0.8056" stop-color="#979FA2"/>
<stop offset="1" stop-color="#6E777A"/>
</linearGradient>
</defs>
</svg>
