<svg width="37" height="37" viewBox="0 0 37 37" fill="none" xmlns="http://www.w3.org/2000/svg">
<rect width="37" height="37" rx="8" fill="#5F833B"/>
<path d="M21.6668 15.833C21.3935 15.833 21.1668 15.6063 21.1668 15.333V12.9997C21.1668 12.2797 20.7202 11.833 20.0002 11.833H18.0002C17.2802 11.833 16.8335 12.2797 16.8335 12.9997V15.333C16.8335 15.6063 16.6068 15.833 16.3335 15.833C16.0602 15.833 15.8335 15.6063 15.8335 15.333V12.9997C15.8335 11.7263 16.7268 10.833 18.0002 10.833H20.0002C21.2735 10.833 22.1668 11.7263 22.1668 12.9997V15.333C22.1668 15.6063 21.9402 15.833 21.6668 15.833Z" fill="white"/>
<path d="M16.3334 21.853C16.0601 21.853 15.8334 21.6263 15.8334 21.353C15.8334 21.073 16.0601 20.853 16.3334 20.853H24.1734C24.3734 20.853 24.5267 20.6797 24.5067 20.4797L24.0534 16.6863C23.8934 15.393 23.6667 14.333 21.4001 14.333H16.6001C14.3334 14.333 14.1067 15.393 13.9534 16.6863L13.3534 21.6863C13.1601 23.3263 13.6667 24.6663 16.0067 24.6663H21.9934C24.1001 24.6663 24.7201 23.5797 24.6867 22.1663C24.6801 21.9863 24.5334 21.853 24.3534 21.853H16.3334Z" fill="white"/>
</svg>
