<svg width="37" height="37" viewBox="0 0 37 37" fill="none" xmlns="http://www.w3.org/2000/svg">
<rect width="37" height="37" rx="8" fill="#5F833B"/>
<path d="M18.3668 19.9663L17.1335 21.1997C16.8735 21.4597 16.4602 21.4597 16.1935 21.2063C16.1202 21.133 16.0468 21.0663 15.9735 20.993C15.2868 20.2997 14.6668 19.573 14.1135 18.813C13.5668 18.053 13.1268 17.293 12.8068 16.5397C12.4935 15.7797 12.3335 15.053 12.3335 14.3597C12.3335 13.9063 12.4135 13.473 12.5735 13.073C12.7335 12.6663 12.9868 12.293 13.3402 11.9597C13.7668 11.5397 14.2335 11.333 14.7268 11.333C14.9135 11.333 15.1002 11.373 15.2668 11.453C15.4402 11.533 15.5935 11.653 15.7135 11.8263L17.2602 14.0063C17.3802 14.173 17.4668 14.3263 17.5268 14.473C17.5868 14.613 17.6202 14.753 17.6202 14.8797C17.6202 15.0397 17.5735 15.1997 17.4802 15.353C17.3935 15.5063 17.2668 15.6663 17.1068 15.8263L16.6002 16.353C16.5268 16.4263 16.4935 16.513 16.4935 16.6197C16.4935 16.673 16.5002 16.7197 16.5135 16.773C16.5335 16.8263 16.5535 16.8663 16.5668 16.9063C16.6868 17.1263 16.8935 17.413 17.1868 17.7597C17.4868 18.1063 17.8068 18.4597 18.1535 18.813C18.2202 18.8797 18.2935 18.9463 18.3602 19.013C18.6268 19.273 18.6335 19.6997 18.3668 19.9663Z" fill="white"/>
<path d="M25.6466 22.2204C25.6466 22.407 25.6132 22.6004 25.5466 22.787C25.5266 22.8404 25.5066 22.8937 25.4799 22.947C25.3666 23.187 25.2199 23.4137 25.0266 23.627C24.6999 23.987 24.3399 24.247 23.9332 24.4137C23.9266 24.4137 23.9199 24.4204 23.9132 24.4204C23.5199 24.5804 23.0932 24.667 22.6332 24.667C21.9532 24.667 21.2266 24.507 20.4599 24.1804C19.6932 23.8537 18.9266 23.4137 18.1666 22.8604C17.9066 22.667 17.6466 22.4737 17.3999 22.267L19.5799 20.087C19.7666 20.227 19.9332 20.3337 20.0732 20.407C20.1066 20.4204 20.1466 20.4404 20.1932 20.4604C20.2466 20.4804 20.2999 20.487 20.3599 20.487C20.4732 20.487 20.5599 20.447 20.6332 20.3737L21.1399 19.8737C21.3066 19.707 21.4666 19.5804 21.6199 19.5004C21.7732 19.407 21.9266 19.3604 22.0932 19.3604C22.2199 19.3604 22.3532 19.387 22.4999 19.447C22.6466 19.507 22.7999 19.5937 22.9666 19.707L25.1732 21.2737C25.3466 21.3937 25.4666 21.5337 25.5399 21.7004C25.6066 21.867 25.6466 22.0337 25.6466 22.2204Z" fill="white"/>
</svg>
