<svg width="37" height="37" viewBox="0 0 37 37" fill="none" xmlns="http://www.w3.org/2000/svg">
<rect width="37" height="37" rx="8" fill="#5F833B"/>
<path d="M19.5 20.6129H19.9333C20.3667 20.6129 20.7267 20.2262 20.7267 19.7596C20.7267 19.1796 20.52 19.0662 20.18 18.9462L19.5067 18.7129V20.6129H19.5Z" fill="white"/>
<path d="M18.9802 11.2666C15.3002 11.2799 12.3202 14.2733 12.3335 17.9533C12.3469 21.6333 15.3402 24.6133 19.0202 24.5999C22.7002 24.5866 25.6802 21.5933 25.6669 17.9133C25.6535 14.2333 22.6602 11.2599 18.9802 11.2666ZM20.5069 17.9999C21.0269 18.1799 21.7269 18.5666 21.7269 19.7599C21.7269 20.7866 20.9202 21.6133 19.9335 21.6133H19.5002V21.9999C19.5002 22.2733 19.2735 22.4999 19.0002 22.4999C18.7269 22.4999 18.5002 22.2733 18.5002 21.9999V21.6133H18.2602C17.1669 21.6133 16.2802 20.6933 16.2802 19.5599C16.2802 19.2866 16.5069 19.0599 16.7802 19.0599C17.0535 19.0599 17.2802 19.2866 17.2802 19.5599C17.2802 20.1399 17.7202 20.6133 18.2602 20.6133H18.5002V18.3599L17.4935 17.9999C16.9735 17.8199 16.2735 17.4333 16.2735 16.2399C16.2735 15.2133 17.0802 14.3866 18.0669 14.3866H18.5002V13.9999C18.5002 13.7266 18.7269 13.4999 19.0002 13.4999C19.2735 13.4999 19.5002 13.7266 19.5002 13.9999V14.3866H19.7402C20.8335 14.3866 21.7202 15.3066 21.7202 16.4399C21.7202 16.7133 21.4935 16.9399 21.2202 16.9399C20.9469 16.9399 20.7202 16.7133 20.7202 16.4399C20.7202 15.8599 20.2802 15.3866 19.7402 15.3866H19.5002V17.6399L20.5069 17.9999Z" fill="white"/>
<path d="M17.2798 16.2467C17.2798 16.8267 17.4865 16.9401 17.8265 17.0601L18.4998 17.2934V15.3867H18.0665C17.6331 15.3867 17.2798 15.7734 17.2798 16.2467Z" fill="white"/>
</svg>
