<svg width="37" height="37" viewBox="0 0 37 37" fill="none" xmlns="http://www.w3.org/2000/svg">
<rect width="37" height="37" rx="8" fill="#5F833B"/>
<g clip-path="url(#clip0_72_8004)">
<path d="M24.0281 15.9288C23.4156 13.2338 21.0648 12.0205 18.9998 12.0205C18.9998 12.0205 18.9998 12.0205 18.994 12.0205C16.9348 12.0205 14.5781 13.228 13.9656 15.923C13.2831 18.933 15.1265 21.4822 16.7948 23.0863C17.4131 23.6813 18.2065 23.9788 18.9998 23.9788C19.7931 23.9788 20.5865 23.6813 21.199 23.0863C22.8673 21.4822 24.7106 18.9388 24.0281 15.9288ZM18.9998 18.8513C17.9848 18.8513 17.1623 18.0288 17.1623 17.0138C17.1623 15.9988 17.9848 15.1763 18.9998 15.1763C20.0148 15.1763 20.8373 15.9988 20.8373 17.0138C20.8373 18.0288 20.0148 18.8513 18.9998 18.8513Z" fill="white"/>
</g>
<defs>
<clipPath id="clip0_72_8004">
<rect width="14" height="14" fill="white" transform="translate(12 11)"/>
</clipPath>
</defs>
</svg>
