<svg width="37" height="37" viewBox="0 0 37 37" fill="none" xmlns="http://www.w3.org/2000/svg">
<rect width="37" height="37" rx="8" fill="#5F833B"/>
<path d="M22.3335 12.333H15.6668C13.6668 12.333 12.3335 13.333 12.3335 15.6663V20.333C12.3335 22.6663 13.6668 23.6663 15.6668 23.6663H22.3335C24.3335 23.6663 25.6668 22.6663 25.6668 20.333V15.6663C25.6668 13.333 24.3335 12.333 22.3335 12.333ZM22.6468 16.393L20.5602 18.0597C20.1202 18.413 19.5602 18.5863 19.0002 18.5863C18.4402 18.5863 17.8735 18.413 17.4402 18.0597L15.3535 16.393C15.1402 16.2197 15.1068 15.8997 15.2735 15.6863C15.4468 15.473 15.7602 15.433 15.9735 15.6063L18.0602 17.273C18.5668 17.6797 19.4268 17.6797 19.9335 17.273L22.0202 15.6063C22.2335 15.433 22.5535 15.4663 22.7202 15.6863C22.8935 15.8997 22.8602 16.2197 22.6468 16.393Z" fill="white"/>
</svg>
