<svg width="37" height="37" viewBox="0 0 37 37" fill="none" xmlns="http://www.w3.org/2000/svg">
<rect width="37" height="37" rx="8" fill="#5F833B"/>
<path d="M25.5 15.3334C25.5 15.6067 25.2733 15.8334 25 15.8334H13C12.7267 15.8334 12.5 15.6067 12.5 15.3334C12.5 15.0601 12.7267 14.8334 13 14.8334H13.68L13.9333 13.6267C14.1733 12.4601 14.6733 11.3867 16.66 11.3867H21.34C23.3267 11.3867 23.8267 12.4601 24.0667 13.6267L24.32 14.8334H25C25.2733 14.8334 25.5 15.0601 25.5 15.3334Z" fill="white"/>
<path d="M25.7869 19.1063C25.6869 18.0063 25.3936 16.833 23.2536 16.833H14.7469C12.6069 16.833 12.3202 18.0063 12.2136 19.1063L11.8402 23.1663C11.7936 23.673 11.9602 24.1797 12.3069 24.5597C12.6602 24.9463 13.1602 25.1663 13.6936 25.1663H14.9469C16.0269 25.1663 16.2336 24.5463 16.3669 24.1397L16.5002 23.7397C16.6536 23.2797 16.6936 23.1663 17.2936 23.1663H20.7069C21.3069 23.1663 21.3269 23.233 21.5002 23.7397L21.6336 24.1397C21.7669 24.5463 21.9736 25.1663 23.0536 25.1663H24.3069C24.8336 25.1663 25.3402 24.9463 25.6936 24.5597C26.0402 24.1797 26.2069 23.673 26.1602 23.1663L25.7869 19.1063ZM17.0002 20.4997H15.0002C14.7269 20.4997 14.5002 20.273 14.5002 19.9997C14.5002 19.7263 14.7269 19.4997 15.0002 19.4997H17.0002C17.2736 19.4997 17.5002 19.7263 17.5002 19.9997C17.5002 20.273 17.2736 20.4997 17.0002 20.4997ZM23.0002 20.4997H21.0002C20.7269 20.4997 20.5002 20.273 20.5002 19.9997C20.5002 19.7263 20.7269 19.4997 21.0002 19.4997H23.0002C23.2736 19.4997 23.5002 19.7263 23.5002 19.9997C23.5002 20.273 23.2736 20.4997 23.0002 20.4997Z" fill="white"/>
</svg>
