<svg width="13" height="14" viewBox="0 0 13 14" fill="none" xmlns="http://www.w3.org/2000/svg">
<path fill-rule="evenodd" clip-rule="evenodd" d="M5.69312 2.45135C5.72887 2.33205 5.79983 2.22785 5.89569 2.15388C5.99156 2.07992 6.10733 2.04004 6.22619 2.04004C6.34506 2.04004 6.46083 2.07992 6.5567 2.15388C6.65256 2.22785 6.72352 2.33205 6.75926 2.45135L7.7219 5.56669H10.8272C10.9503 5.56179 11.0715 5.59945 11.1724 5.6739C11.2733 5.74835 11.3482 5.8555 11.3858 5.97899C11.4233 6.10248 11.4214 6.23551 11.3804 6.35776C11.3393 6.48 11.2613 6.58474 11.1584 6.65597L8.63795 8.57855L9.60058 11.6993C9.63865 11.8182 9.63961 11.9468 9.60332 12.0663C9.56703 12.1858 9.49539 12.2899 9.39886 12.3635C9.30233 12.4371 9.18596 12.4763 9.06676 12.4754C8.94756 12.4745 8.83176 12.4335 8.73628 12.3584L6.21067 10.414L3.69023 12.342C3.59475 12.4171 3.47895 12.4581 3.35975 12.4591C3.24055 12.46 3.12419 12.4208 3.02766 12.3472C2.93113 12.2736 2.85948 12.1694 2.82319 12.0499C2.7869 11.9304 2.78786 11.8019 2.82593 11.683L3.78856 8.56221L1.26812 6.63963C1.16518 6.5684 1.08722 6.46366 1.04616 6.34142C1.0051 6.21917 1.0032 6.08614 1.04075 5.96265C1.0783 5.83916 1.15324 5.73201 1.25411 5.65756C1.35498 5.58311 1.47623 5.54545 1.59935 5.55035H4.70462L5.69312 2.45135Z" fill="#3D5B1E"/>
</svg>
