<svg width="37" height="37" viewBox="0 0 37 37" fill="none" xmlns="http://www.w3.org/2000/svg">
<rect width="37" height="37" rx="8" fill="#5F833B"/>
<path d="M22.1667 12.373V11.333C22.1667 11.0597 21.94 10.833 21.6667 10.833C21.3933 10.833 21.1667 11.0597 21.1667 11.333V12.333H16.8333V11.333C16.8333 11.0597 16.6067 10.833 16.3333 10.833C16.06 10.833 15.8333 11.0597 15.8333 11.333V12.373C14.0333 12.5397 13.16 13.613 13.0267 15.2063C13.0133 15.3997 13.1733 15.5597 13.36 15.5597H24.64C24.8333 15.5597 24.9933 15.393 24.9733 15.2063C24.84 13.613 23.9667 12.5397 22.1667 12.373Z" fill="white"/>
<path d="M24.3333 16.5596H13.6667C13.3 16.5596 13 16.8596 13 17.2262V21.3329C13 23.3329 14 24.6662 16.3333 24.6662H21.6667C24 24.6662 25 23.3329 25 21.3329V17.2262C25 16.8596 24.7 16.5596 24.3333 16.5596ZM17.14 22.1396C17.1067 22.1662 17.0733 22.1996 17.04 22.2196C17 22.2462 16.96 22.2662 16.92 22.2796C16.88 22.2996 16.84 22.3129 16.8 22.3196C16.7533 22.3262 16.7133 22.3329 16.6667 22.3329C16.58 22.3329 16.4933 22.3129 16.4133 22.2796C16.3267 22.2462 16.26 22.1996 16.1933 22.1396C16.0733 22.0129 16 21.8396 16 21.6662C16 21.4929 16.0733 21.3196 16.1933 21.1929C16.26 21.1329 16.3267 21.0862 16.4133 21.0529C16.5333 20.9996 16.6667 20.9862 16.8 21.0129C16.84 21.0196 16.88 21.0329 16.92 21.0529C16.96 21.0662 17 21.0862 17.04 21.1129C17.0733 21.1396 17.1067 21.1662 17.14 21.1929C17.26 21.3196 17.3333 21.4929 17.3333 21.6662C17.3333 21.8396 17.26 22.0129 17.14 22.1396ZM17.14 19.8062C17.0133 19.9262 16.84 19.9996 16.6667 19.9996C16.4933 19.9996 16.32 19.9262 16.1933 19.8062C16.0733 19.6796 16 19.5062 16 19.3329C16 19.1596 16.0733 18.9862 16.1933 18.8596C16.38 18.6729 16.6733 18.6129 16.92 18.7196C17.0067 18.7529 17.08 18.7996 17.14 18.8596C17.26 18.9862 17.3333 19.1596 17.3333 19.3329C17.3333 19.5062 17.26 19.6796 17.14 19.8062ZM19.4733 22.1396C19.3467 22.2596 19.1733 22.3329 19 22.3329C18.8267 22.3329 18.6533 22.2596 18.5267 22.1396C18.4067 22.0129 18.3333 21.8396 18.3333 21.6662C18.3333 21.4929 18.4067 21.3196 18.5267 21.1929C18.7733 20.9462 19.2267 20.9462 19.4733 21.1929C19.5933 21.3196 19.6667 21.4929 19.6667 21.6662C19.6667 21.8396 19.5933 22.0129 19.4733 22.1396ZM19.4733 19.8062C19.44 19.8329 19.4067 19.8596 19.3733 19.8862C19.3333 19.9129 19.2933 19.9329 19.2533 19.9462C19.2133 19.9662 19.1733 19.9796 19.1333 19.9862C19.0867 19.9929 19.0467 19.9996 19 19.9996C18.8267 19.9996 18.6533 19.9262 18.5267 19.8062C18.4067 19.6796 18.3333 19.5062 18.3333 19.3329C18.3333 19.1596 18.4067 18.9862 18.5267 18.8596C18.5867 18.7996 18.66 18.7529 18.7467 18.7196C18.9933 18.6129 19.2867 18.6729 19.4733 18.8596C19.5933 18.9862 19.6667 19.1596 19.6667 19.3329C19.6667 19.5062 19.5933 19.6796 19.4733 19.8062ZM21.8067 22.1396C21.68 22.2596 21.5067 22.3329 21.3333 22.3329C21.16 22.3329 20.9867 22.2596 20.86 22.1396C20.74 22.0129 20.6667 21.8396 20.6667 21.6662C20.6667 21.4929 20.74 21.3196 20.86 21.1929C21.1067 20.9462 21.56 20.9462 21.8067 21.1929C21.9267 21.3196 22 21.4929 22 21.6662C22 21.8396 21.9267 22.0129 21.8067 22.1396ZM21.8067 19.8062C21.7733 19.8329 21.74 19.8596 21.7067 19.8862C21.6667 19.9129 21.6267 19.9329 21.5867 19.9462C21.5467 19.9662 21.5067 19.9796 21.4667 19.9862C21.42 19.9929 21.3733 19.9996 21.3333 19.9996C21.16 19.9996 20.9867 19.9262 20.86 19.8062C20.74 19.6796 20.6667 19.5062 20.6667 19.3329C20.6667 19.1596 20.74 18.9862 20.86 18.8596C20.9267 18.7996 20.9933 18.7529 21.08 18.7196C21.2 18.6662 21.3333 18.6529 21.4667 18.6796C21.5067 18.6862 21.5467 18.6996 21.5867 18.7196C21.6267 18.7329 21.6667 18.7529 21.7067 18.7796C21.74 18.8062 21.7733 18.8329 21.8067 18.8596C21.9267 18.9862 22 19.1596 22 19.3329C22 19.5062 21.9267 19.6796 21.8067 19.8062Z" fill="white"/>
</svg>
