<svg width="37" height="37" viewBox="0 0 37 37" fill="none" xmlns="http://www.w3.org/2000/svg">
<rect width="37" height="37" rx="8" fill="#5F833B"/>
<path d="M24.3669 17.087L21.2535 15.747L20.5602 15.4537C20.4535 15.4004 20.3602 15.2604 20.3602 15.1404V13.1004C20.3602 12.4604 19.8869 11.7004 19.3135 11.407C19.1135 11.307 18.8735 11.307 18.6735 11.407C18.1069 11.7004 17.6335 12.467 17.6335 13.107V15.147C17.6335 15.267 17.5402 15.407 17.4335 15.4604L13.6335 17.0937C13.2135 17.267 12.8735 17.7937 12.8735 18.247V19.127C12.8735 19.6937 13.3002 19.9737 13.8269 19.747L17.1669 18.307C17.4269 18.1937 17.6402 18.3337 17.6402 18.6204V19.3604V20.5604C17.6402 20.7137 17.5535 20.9337 17.4469 21.0404L15.9002 22.5937C15.7402 22.7537 15.6669 23.067 15.7402 23.2937L16.0402 24.2004C16.1602 24.5937 16.6069 24.7804 16.9735 24.5937L18.5602 23.2604C18.8002 23.0537 19.1935 23.0537 19.4335 23.2604L21.0202 24.5937C21.3869 24.7737 21.8335 24.5937 21.9669 24.2004L22.2669 23.2937C22.3402 23.0737 22.2669 22.7537 22.1069 22.5937L20.5602 21.0404C20.4469 20.9337 20.3602 20.7137 20.3602 20.5604V18.6204C20.3602 18.3337 20.5669 18.2004 20.8335 18.307L24.1735 19.747C24.7002 19.9737 25.1269 19.6937 25.1269 19.127V18.247C25.1269 17.7937 24.7869 17.267 24.3669 17.087Z" fill="white"/>
</svg>
