<svg width="37" height="37" viewBox="0 0 37 37" fill="none" xmlns="http://www.w3.org/2000/svg">
<rect width="37" height="37" rx="8" fill="#5F833B"/>
<path d="M22.3335 11.333H15.6668C13.8268 11.333 12.3335 12.8197 12.3335 14.653V18.6397V19.3063C12.3335 21.1397 13.8268 22.6263 15.6668 22.6263H16.6668C16.8468 22.6263 17.0868 22.7463 17.2002 22.893L18.2002 24.2197C18.6402 24.8063 19.3602 24.8063 19.8002 24.2197L20.8002 22.893C20.9268 22.7263 21.1268 22.6263 21.3335 22.6263H22.3335C24.1735 22.6263 25.6668 21.1397 25.6668 19.3063V14.653C25.6668 12.8197 24.1735 11.333 22.3335 11.333ZM16.3335 17.9997C15.9602 17.9997 15.6668 17.6997 15.6668 17.333C15.6668 16.9663 15.9668 16.6663 16.3335 16.6663C16.7002 16.6663 17.0002 16.9663 17.0002 17.333C17.0002 17.6997 16.7068 17.9997 16.3335 17.9997ZM19.0002 17.9997C18.6268 17.9997 18.3335 17.6997 18.3335 17.333C18.3335 16.9663 18.6335 16.6663 19.0002 16.6663C19.3668 16.6663 19.6668 16.9663 19.6668 17.333C19.6668 17.6997 19.3735 17.9997 19.0002 17.9997ZM21.6668 17.9997C21.2935 17.9997 21.0002 17.6997 21.0002 17.333C21.0002 16.9663 21.3002 16.6663 21.6668 16.6663C22.0335 16.6663 22.3335 16.9663 22.3335 17.333C22.3335 17.6997 22.0402 17.9997 21.6668 17.9997Z" fill="white"/>
</svg>
