<svg width="37" height="37" viewBox="0 0 37 37" fill="none" xmlns="http://www.w3.org/2000/svg">
<rect width="37" height="37" rx="8" fill="#5F833B"/>
<g clip-path="url(#clip0_81_19319)">
<path d="M17.1003 14.9932C16.7269 14.9932 16.4336 15.2932 16.4336 15.6598C16.4336 16.0265 16.7336 16.3265 17.1003 16.3265C17.4669 16.3265 17.7669 16.0265 17.7669 15.6598C17.7669 15.2932 17.4669 14.9932 17.1003 14.9932Z" fill="white"/>
<path d="M25.3073 13.3597C24.7473 12.0597 23.514 11.333 21.794 11.333H16.2073C14.0673 11.333 12.334 13.0663 12.334 15.2063V20.793C12.334 22.513 13.0607 23.7463 14.3607 24.3063C14.4873 24.3597 14.634 24.3263 14.7273 24.233L25.234 13.7263C25.334 13.6263 25.3673 13.4797 25.3073 13.3597ZM18.0207 18.1597C17.7607 18.413 17.4207 18.533 17.0807 18.533C16.7407 18.533 16.4007 18.4063 16.1407 18.1597C15.4607 17.5197 14.714 16.4997 15.0007 15.2863C15.254 14.1863 16.2273 13.693 17.0807 13.693C17.934 13.693 18.9073 14.1863 19.1607 15.293C19.4407 16.4997 18.694 17.5197 18.0207 18.1597Z" fill="white"/>
<path d="M23.9793 23.6864C24.1259 23.833 24.1059 24.073 23.9259 24.173C23.3393 24.4997 22.6259 24.6664 21.7926 24.6664H16.2059C16.0126 24.6664 15.9326 24.4397 16.0659 24.3064L20.0926 20.2797C20.2259 20.1464 20.4326 20.1464 20.5659 20.2797L23.9793 23.6864Z" fill="white"/>
<path d="M25.6672 15.2069V20.7936C25.6672 21.6269 25.5005 22.3469 25.1738 22.9269C25.0738 23.1069 24.8338 23.1203 24.6872 22.9803L21.2738 19.5669C21.1405 19.4336 21.1405 19.2269 21.2738 19.0936L25.3005 15.0669C25.4405 14.9336 25.6672 15.0136 25.6672 15.2069Z" fill="white"/>
</g>
<defs>
<clipPath id="clip0_81_19319">
<rect width="16" height="16" fill="white" transform="translate(11 10)"/>
</clipPath>
</defs>
</svg>
