<svg width="37" height="37" viewBox="0 0 37 37" fill="none" xmlns="http://www.w3.org/2000/svg">
<rect width="37" height="37" rx="8" fill="#5F833B"/>
<path d="M22.6867 15.1797C22.64 15.173 22.5934 15.173 22.5467 15.1797C21.5134 15.1463 20.6934 14.2997 20.6934 13.2597C20.6934 12.1997 21.5534 11.333 22.62 11.333C23.68 11.333 24.5467 12.193 24.5467 13.2597C24.54 14.2997 23.72 15.1463 22.6867 15.1797Z" fill="white"/>
<path d="M24.8602 19.8003C24.1136 20.3003 23.0669 20.4869 22.1002 20.3603C22.3536 19.8136 22.4869 19.2069 22.4936 18.5669C22.4936 17.9003 22.3469 17.2669 22.0669 16.7136C23.0536 16.5803 24.1002 16.7669 24.8536 17.2669C25.9069 17.9603 25.9069 19.1003 24.8602 19.8003Z" fill="white"/>
<path d="M15.2933 15.1797C15.3399 15.173 15.3866 15.173 15.4333 15.1797C16.4666 15.1463 17.2866 14.2997 17.2866 13.2597C17.2866 12.193 16.4266 11.333 15.3599 11.333C14.2999 11.333 13.4399 12.193 13.4399 13.2597C13.4399 14.2997 14.2599 15.1463 15.2933 15.1797Z" fill="white"/>
<path d="M15.3667 18.5671C15.3667 19.2137 15.5067 19.8271 15.7601 20.3804C14.8201 20.4804 13.8401 20.2804 13.1201 19.8071C12.0667 19.1071 12.0667 17.9671 13.1201 17.2671C13.8334 16.7871 14.8401 16.5937 15.7867 16.7004C15.5134 17.2604 15.3667 17.8937 15.3667 18.5671Z" fill="white"/>
<path d="M19.0802 20.58C19.0269 20.5733 18.9669 20.5733 18.9069 20.58C17.6802 20.54 16.7002 19.5333 16.7002 18.2933C16.7069 17.0267 17.7269 16 19.0002 16C20.2669 16 21.2935 17.0267 21.2935 18.2933C21.2869 19.5333 20.3135 20.54 19.0802 20.58Z" fill="white"/>
<path d="M16.9132 21.9598C15.9065 22.6331 15.9065 23.7398 16.9132 24.4064C18.0599 25.1731 19.9399 25.1731 21.0865 24.4064C22.0932 23.7331 22.0932 22.6264 21.0865 21.9598C19.9465 21.1931 18.0665 21.1931 16.9132 21.9598Z" fill="white"/>
</svg>
