<svg width="37" height="37" viewBox="0 0 37 37" fill="none" xmlns="http://www.w3.org/2000/svg">
<rect width="37" height="37" rx="8" fill="#5F833B"/>
<path d="M19.0002 11.333C15.3268 11.333 12.3335 14.3263 12.3335 17.9997C12.3335 21.673 15.3268 24.6663 19.0002 24.6663C22.6735 24.6663 25.6668 21.673 25.6668 17.9997C25.6668 14.3263 22.6735 11.333 19.0002 11.333ZM21.9002 20.3797C21.8068 20.5397 21.6402 20.6263 21.4668 20.6263C21.3802 20.6263 21.2935 20.6063 21.2135 20.553L19.1468 19.3197C18.6335 19.013 18.2535 18.3397 18.2535 17.7463V15.013C18.2535 14.7397 18.4802 14.513 18.7535 14.513C19.0268 14.513 19.2535 14.7397 19.2535 15.013V17.7463C19.2535 17.9863 19.4535 18.3397 19.6602 18.4597L21.7268 19.693C21.9668 19.833 22.0468 20.1397 21.9002 20.3797Z" fill="white"/>
</svg>
