<svg width="37" height="37" viewBox="0 0 37 37" fill="none" xmlns="http://www.w3.org/2000/svg">
<rect width="37" height="37" rx="8" fill="#5F833B"/>
<path d="M24.1938 12.8129C22.2204 10.8462 19.0204 10.8462 17.0604 12.8129C15.6804 14.1796 15.2671 16.1462 15.8004 17.8796L12.6671 21.0129C12.4471 21.2396 12.2938 21.6862 12.3404 22.0062L12.5404 23.4596C12.6138 23.9396 13.0604 24.3929 13.5404 24.4596L14.9938 24.6596C15.3138 24.7062 15.7604 24.5596 15.9871 24.3262L16.5338 23.7796C16.6671 23.6529 16.6671 23.4396 16.5338 23.3062L15.2404 22.0129C15.0471 21.8196 15.0471 21.4996 15.2404 21.3062C15.4338 21.1129 15.7538 21.1129 15.9471 21.3062L17.2471 22.6062C17.3738 22.7329 17.5871 22.7329 17.7138 22.6062L19.1271 21.1996C20.8538 21.7396 22.8204 21.3196 24.1938 19.9529C26.1604 17.9862 26.1604 14.7796 24.1938 12.8129ZM20.6671 17.9996C19.7471 17.9996 19.0004 17.2529 19.0004 16.3329C19.0004 15.4129 19.7471 14.6662 20.6671 14.6662C21.5871 14.6662 22.3338 15.4129 22.3338 16.3329C22.3338 17.2529 21.5871 17.9996 20.6671 17.9996Z" fill="white"/>
</svg>
