<svg width="37" height="37" viewBox="0 0 37 37" fill="none" xmlns="http://www.w3.org/2000/svg">
<rect width="37" height="37" rx="8" fill="#5F833B"/>
<path d="M25.6668 24.167C25.6668 24.4403 25.4402 24.667 25.1668 24.667H12.8335C12.5602 24.667 12.3335 24.4403 12.3335 24.167C12.3335 23.8937 12.5602 23.667 12.8335 23.667H25.1668C25.4402 23.667 25.6668 23.8937 25.6668 24.167Z" fill="white"/>
<path d="M21.2601 13.0132L14.1001 20.1732C13.8268 20.4465 13.3868 20.4465 13.1201 20.1732H13.1135C12.1868 19.2398 12.1868 17.7332 13.1135 16.8065L17.8801 12.0398C18.8135 11.1065 20.3201 11.1065 21.2535 12.0398C21.5268 12.2998 21.5268 12.7465 21.2601 13.0132Z" fill="white"/>
<path d="M24.8798 15.6602L22.8465 13.6269C22.5731 13.3535 22.1331 13.3535 21.8665 13.6269L14.7065 20.7869C14.4331 21.0535 14.4331 21.4935 14.7065 21.7669L16.7398 23.8069C17.6731 24.7335 19.1798 24.7335 20.1131 23.8069L24.8731 19.0402C25.8198 18.1069 25.8198 16.5935 24.8798 15.6602ZM19.5065 21.6802L18.6998 22.4935C18.5331 22.6602 18.2598 22.6602 18.0865 22.4935C17.9198 22.3269 17.9198 22.0535 18.0865 21.8802L18.8998 21.0669C19.0598 20.9069 19.3398 20.9069 19.5065 21.0669C19.6731 21.2335 19.6731 21.5202 19.5065 21.6802ZM22.1531 19.0335L20.5265 20.6669C20.3598 20.8269 20.0865 20.8269 19.9131 20.6669C19.7465 20.5002 19.7465 20.2269 19.9131 20.0535L21.5465 18.4202C21.7065 18.2602 21.9865 18.2602 22.1531 18.4202C22.3198 18.5935 22.3198 18.8669 22.1531 19.0335Z" fill="white"/>
</svg>
