<svg width="30" height="30" viewBox="0 0 30 30" fill="none" xmlns="http://www.w3.org/2000/svg">
<path d="M0 6.21818C0 2.78397 2.78397 0 6.21818 0H23.7818C27.216 0 30 2.78397 30 6.21818V23.7818C30 27.216 27.216 30 23.7818 30H6.21818C2.78397 30 0 27.216 0 23.7818V6.21818Z" fill="#E2C529"/>
<path d="M12.0787 8.12109C9.84922 8.12109 8.03516 9.93622 8.03516 12.1663V17.9437C8.03516 20.1734 9.85029 21.9878 12.0803 21.9878H17.8577C20.0875 21.9878 21.9018 20.1726 21.9018 17.9426V12.1646C21.9018 9.93515 20.0867 8.12109 17.8567 8.12109H12.0787ZM19.1285 10.3398C19.4347 10.3398 19.6832 10.5883 19.6832 10.8944C19.6832 11.2006 19.4347 11.4491 19.1285 11.4491C18.8223 11.4491 18.5738 11.2006 18.5738 10.8944C18.5738 10.5883 18.8223 10.3398 19.1285 10.3398ZM14.9685 11.4491C16.957 11.4491 18.5738 13.0659 18.5738 15.0544C18.5738 17.0429 16.9567 18.6598 14.9685 18.6598C12.98 18.6598 11.3632 17.0426 11.3632 15.0544C11.3632 13.0662 12.98 11.4491 14.9685 11.4491ZM14.9685 12.5584C13.5899 12.5584 12.4725 13.6758 12.4725 15.0544C12.4725 16.4331 13.5899 17.5504 14.9685 17.5504C16.3471 17.5504 17.4645 16.4331 17.4645 15.0544C17.4645 13.6758 16.3471 12.5584 14.9685 12.5584Z" fill="white"/>
</svg>
