<svg width="22" height="8" viewBox="0 0 22 8" fill="none" xmlns="http://www.w3.org/2000/svg">
<path d="M1 3.5C0.723858 3.5 0.5 3.72386 0.5 4C0.5 4.27614 0.723858 4.5 1 4.5L1 3.5ZM21.3536 4.35356C21.5488 4.15829 21.5488 3.84171 21.3536 3.64645L18.1716 0.464468C17.9763 0.269205 17.6597 0.269205 17.4645 0.464468C17.2692 0.65973 17.2692 0.976312 17.4645 1.17157L20.2929 4L17.4645 6.82843C17.2692 7.02369 17.2692 7.34027 17.4645 7.53554C17.6597 7.7308 17.9763 7.7308 18.1716 7.53554L21.3536 4.35356ZM1 4.5L21 4.5L21 3.5L1 3.5L1 4.5Z" fill="#5F833B"/>
</svg>
