<svg width="4" height="14" viewBox="0 0 4 14" fill="none" xmlns="http://www.w3.org/2000/svg">
<path d="M3.5 2.09961C3.5 2.92804 2.82843 3.59961 2 3.59961C1.17157 3.59961 0.5 2.92804 0.5 2.09961C0.5 1.27118 1.17157 0.599609 2 0.599609C2.82843 0.599609 3.5 1.27118 3.5 2.09961Z" fill="#F1F3F4"/>
<path d="M3.5 7.09961C3.5 7.92804 2.82843 8.59961 2 8.59961C1.17157 8.59961 0.5 7.92804 0.5 7.09961C0.5 6.27118 1.17157 5.59961 2 5.59961C2.82843 5.59961 3.5 6.27118 3.5 7.09961Z" fill="#F1F3F4"/>
<path d="M3.5 12.0996C3.5 12.928 2.82843 13.5996 2 13.5996C1.17157 13.5996 0.5 12.928 0.5 12.0996C0.5 11.2712 1.17157 10.5996 2 10.5996C2.82843 10.5996 3.5 11.2712 3.5 12.0996Z" fill="#F1F3F4"/>
</svg>
