<svg width="1083" height="178" viewBox="0 0 1083 178" fill="none" xmlns="http://www.w3.org/2000/svg">
<path d="M0.949982 1.90107C-0.00823927 1.43989 0.32023 0 1.38366 0H1058C1071.81 0 1083 11.1929 1083 25V153C1083 166.807 1071.81 178 1058 178H54.3825C40.5754 178 29.3825 166.807 29.3825 153V20.6133C29.3825 17.5396 27.6215 14.7377 24.8519 13.4047L0.949982 1.90107Z" fill="#5F833B"/>
<path d="M1.16682 1.45053C0.68771 1.21995 0.851941 0.5 1.38366 0.5H1058C1071.53 0.5 1082.5 11.469 1082.5 25V153C1082.5 166.531 1071.53 177.5 1058 177.5H54.3825C40.8515 177.5 29.8825 166.531 29.8825 153V20.6133C29.8825 17.3475 28.0115 14.3705 25.0688 12.9542L1.16682 1.45053Z" stroke="black" stroke-opacity="0.47"/>
</svg>
