<svg width="30" height="30" viewBox="0 0 30 30" fill="none" xmlns="http://www.w3.org/2000/svg">
<path d="M23.3879 11.8621C23.2629 11.8621 23.1379 11.8371 23.0129 11.7871C22.5379 11.5746 22.3254 11.0246 22.5254 10.5496C22.7629 10.0121 22.6254 9.22462 22.1879 8.57462C21.7504 7.91212 21.0879 7.47464 20.4754 7.49964C19.9254 7.49964 19.5379 7.08715 19.5254 6.57465C19.5254 6.04965 19.9379 5.63714 20.4504 5.62464C21.7379 5.59964 22.9504 6.33716 23.7379 7.52466C24.5379 8.72466 24.7254 10.1622 24.2379 11.2872C24.1004 11.6497 23.7504 11.8621 23.3879 11.8621Z" fill="#787878"/>
<path d="M27.2752 13.1001C27.1877 13.1001 27.1127 13.0877 27.0252 13.0627C26.5252 12.9252 26.2377 12.4127 26.3752 11.9127C26.8502 10.2127 26.4502 8.18767 25.3127 6.48767C24.1752 4.78767 22.4502 3.65017 20.6877 3.43767C20.1752 3.37517 19.8127 2.91264 19.8752 2.40014C19.9377 1.88764 20.4127 1.51269 20.9127 1.58769C23.2002 1.86269 25.4252 3.31266 26.8627 5.46266C28.3002 7.61266 28.7877 10.2127 28.1752 12.4377C28.0627 12.8252 27.6877 13.1001 27.2752 13.1001Z" fill="#787878"/>
<path opacity="0.4" d="M21.8999 19.7993C21.7624 18.2743 21.3499 16.6367 18.3749 16.6367H6.53736C3.56236 16.6367 3.16237 18.2743 3.01237 19.7993L2.48738 25.4492C2.42488 26.1492 2.66236 26.8617 3.13736 27.3867C3.62486 27.9242 4.32487 28.2368 5.06237 28.2368H6.79987C8.29987 28.2368 8.58738 27.3742 8.77488 26.8117L8.96237 26.2617C9.17487 25.6242 9.22487 25.4617 10.0624 25.4617H14.8124C15.6374 25.4617 15.6749 25.5492 15.9124 26.2617L16.0999 26.8242C16.2874 27.3867 16.5749 28.2492 18.0749 28.2492H19.8124C20.5499 28.2492 21.2499 27.9367 21.7374 27.3992C22.2124 26.8742 22.4499 26.1617 22.3874 25.4617L21.8999 19.7993Z" fill="#787878"/>
<path d="M20.8123 13.8625H19.8873C19.8748 13.8625 19.8748 13.8625 19.8623 13.8625L19.5123 12.175C19.1748 10.55 18.4873 9.0625 15.7248 9.0625H13.1623H11.7748H9.21229C6.44979 9.0625 5.74979 10.55 5.42479 12.175L5.07479 13.8625C5.06229 13.8625 5.06229 13.8625 5.04979 13.8625H4.1248C3.7373 13.8625 3.4248 14.175 3.4248 14.5625C3.4248 14.95 3.7373 15.2625 4.1248 15.2625H4.7873L4.3998 17.1125C4.8998 16.825 5.5998 16.65 6.5623 16.65H18.3998C19.3623 16.65 20.0623 16.825 20.5623 17.1125L20.1748 15.2625H20.8373C21.2248 15.2625 21.5373 14.95 21.5373 14.5625C21.5123 14.175 21.1998 13.8625 20.8123 13.8625Z" fill="#787878"/>
<path d="M9.68769 21.7379H6.90019C6.51269 21.7379 6.2002 21.4254 6.2002 21.0379C6.2002 20.6504 6.51269 20.3379 6.90019 20.3379H9.68769C10.0752 20.3379 10.3877 20.6504 10.3877 21.0379C10.3752 21.4254 10.0752 21.7379 9.68769 21.7379Z" fill="#787878"/>
<path d="M18.0373 21.7379H15.2498C14.8623 21.7379 14.5498 21.4254 14.5498 21.0379C14.5498 20.6504 14.8623 20.3379 15.2498 20.3379H18.0373C18.4248 20.3379 18.7373 20.6504 18.7373 21.0379C18.7248 21.4254 18.4123 21.7379 18.0373 21.7379Z" fill="#787878"/>
</svg>
