<svg width="19" height="23" viewBox="0 0 19 23" fill="none" xmlns="http://www.w3.org/2000/svg">
<path opacity="0.4" d="M16.7901 15.1795C16.6847 14.0103 16.3684 12.7549 14.0876 12.7549H5.01219C2.73136 12.7549 2.4247 14.0103 2.3097 15.1795L1.9072 19.5111C1.85928 20.0478 2.04136 20.594 2.40552 20.9965C2.77927 21.4086 3.31595 21.6482 3.88136 21.6482H5.21345C6.36345 21.6482 6.58387 20.987 6.72762 20.5557L6.87136 20.1341C7.03428 19.6453 7.07261 19.5207 7.7147 19.5207H11.3564C11.9889 19.5207 12.0176 19.5878 12.1997 20.1341L12.3435 20.5653C12.4872 20.9966 12.7076 21.6578 13.8576 21.6578H15.1897C15.7551 21.6578 16.2918 21.4182 16.6655 21.0061C17.0297 20.6036 17.2118 20.0574 17.1639 19.5207L16.7901 15.1795Z" fill="#313131"/>
<path d="M15.9564 10.6273H15.2472C15.2376 10.6273 15.2376 10.6273 15.2281 10.6273L14.9597 9.33351C14.701 8.08767 14.1739 6.94727 12.056 6.94727H10.0914H9.02764H7.06305C4.94513 6.94727 4.40847 8.08767 4.1593 9.33351L3.89097 10.6273C3.88139 10.6273 3.88138 10.6273 3.8718 10.6273H3.16264C2.86556 10.6273 2.62598 10.8669 2.62598 11.164C2.62598 11.461 2.86556 11.7006 3.16264 11.7006H3.67056L3.37348 13.1189C3.75681 12.8985 4.29347 12.7644 5.03139 12.7644H14.1068C14.8447 12.7644 15.3814 12.8985 15.7647 13.1189L15.4676 11.7006H15.9756C16.2726 11.7006 16.5122 11.461 16.5122 11.164C16.4931 10.8669 16.2535 10.6273 15.9564 10.6273Z" fill="#313131"/>
<path d="M7.42716 16.6651H5.29008C4.993 16.6651 4.75342 16.4255 4.75342 16.1285C4.75342 15.8314 4.993 15.5918 5.29008 15.5918H7.42716C7.72425 15.5918 7.96383 15.8314 7.96383 16.1285C7.95424 16.4255 7.72425 16.6651 7.42716 16.6651Z" fill="#313131"/>
<path d="M13.8288 16.6651H11.6917C11.3946 16.6651 11.155 16.4255 11.155 16.1285C11.155 15.8314 11.3946 15.5918 11.6917 15.5918H13.8288C14.1259 15.5918 14.3655 15.8314 14.3655 16.1285C14.3559 16.4255 14.1163 16.6651 13.8288 16.6651Z" fill="#313131"/>
</svg>
