<svg width="40" height="40" viewBox="0 0 40 40" fill="none" xmlns="http://www.w3.org/2000/svg">
<path opacity="0.4" d="M23.334 8.3335V16.6668H21.6673C18.9173 16.6668 16.6673 18.9168 16.6673 21.6668V23.3335H8.33398C5.56732 23.3335 3.33398 21.1002 3.33398 18.3335V8.3335C3.33398 5.56683 5.56732 3.3335 8.33398 3.3335H18.334C21.1007 3.3335 23.334 5.56683 23.334 8.3335Z" fill="#787878"/>
<path d="M8.66716 11.0502C8.28383 11.0502 7.88383 10.8669 7.65049 10.5169C7.25049 9.95022 7.38383 9.16691 7.9505 8.76691C9.25049 7.85024 11.0005 7.83354 12.3172 8.73354C12.8838 9.11688 13.0338 9.90028 12.6505 10.4669C12.2672 11.0336 11.4838 11.1835 10.9172 10.8002C10.4672 10.5002 9.86716 10.5002 9.41716 10.8169C9.16716 10.9835 8.91716 11.0502 8.66716 11.0502Z" fill="#787878"/>
<path d="M15.3332 11.0502C14.9498 11.0502 14.5498 10.8669 14.3165 10.5169C13.9165 9.95022 14.0498 9.16691 14.6165 8.76691C15.9165 7.85024 17.6665 7.83354 18.9832 8.73354C19.5498 9.11688 19.6998 9.90028 19.3165 10.4669C18.9332 11.0336 18.1498 11.1835 17.5832 10.8002C17.1332 10.5002 16.5332 10.5002 16.0832 10.8169C15.8332 10.9835 15.5832 11.0502 15.3332 11.0502Z" fill="#787878"/>
<path d="M13.6007 20.2833H9.73399C8.55065 20.2833 7.58398 19.3167 7.58398 18.1333C7.58398 14.9667 10.1673 12.3833 13.334 12.3833C14.634 12.3833 15.9173 12.8333 16.934 13.65C17.4673 14.0833 17.5673 14.8666 17.134 15.4C16.7007 15.9333 15.9173 16.0333 15.384 15.6C14.8007 15.1333 14.1006 14.8833 13.3506 14.8833C11.684 14.8833 10.3007 16.15 10.1173 17.7833H13.6173C14.3006 17.7833 14.8673 18.35 14.8673 19.0333C14.8673 19.7166 14.284 20.2833 13.6007 20.2833Z" fill="#787878"/>
<path d="M30.3672 27.8001C30.2505 27.6668 30.0838 27.6001 29.9005 27.6001H23.4338C23.2505 27.6001 23.0838 27.6668 22.9672 27.8001C22.8505 27.9334 22.7838 28.1167 22.8172 28.2834C23.0338 30.2501 24.6838 31.7501 26.6672 31.7501C28.6505 31.7501 30.3005 30.2667 30.5172 28.2834C30.5338 28.1001 30.4838 27.9334 30.3672 27.8001Z" fill="#787878"/>
<path d="M31.666 16.6665H21.666C18.916 16.6665 16.666 18.9165 16.666 21.6665V31.6665C16.666 34.4165 18.916 36.6665 21.666 36.6665H31.666C34.416 36.6665 36.666 34.4165 36.666 31.6665V21.6665C36.666 18.9165 34.416 16.6665 31.666 16.6665ZM20.9827 21.9498C21.3827 21.3831 22.166 21.2498 22.7327 21.6498C23.1827 21.9665 23.7827 21.9665 24.2327 21.6665C24.7994 21.2665 25.5827 21.4165 25.966 21.9999C26.3494 22.5665 26.216 23.3498 25.6327 23.7332C24.9827 24.1665 24.2327 24.3999 23.4827 24.3999C22.6993 24.3999 21.9327 24.1665 21.2827 23.6998C20.716 23.2831 20.5827 22.4998 20.9827 21.9498ZM26.666 33.6165C23.4993 33.6165 20.916 31.0331 20.916 27.8665C20.916 26.6831 21.8827 25.7165 23.066 25.7165H30.266C31.4493 25.7165 32.416 26.6831 32.416 27.8665C32.416 31.0331 29.8327 33.6165 26.666 33.6165ZM32.2994 23.7165C31.6494 24.1498 30.8993 24.3832 30.1493 24.3832C29.366 24.3832 28.5993 24.1499 27.9493 23.6832C27.3827 23.2832 27.2493 22.4998 27.6493 21.9331C28.0493 21.3665 28.8327 21.2331 29.3993 21.6331C29.8493 21.9498 30.4494 21.9498 30.8994 21.6498C31.466 21.2498 32.2494 21.3998 32.6327 21.9832C33.016 22.5665 32.866 23.3331 32.2994 23.7165Z" fill="#787878"/>
</svg>
