<svg width="40" height="40" viewBox="0 0 40 40" fill="none" xmlns="http://www.w3.org/2000/svg">
<path opacity="0.4" d="M23.3333 8.33301V16.6663H21.6666C18.9166 16.6663 16.6666 18.9163 16.6666 21.6663V23.333H8.33331C5.56665 23.333 3.33331 21.0997 3.33331 18.333V8.33301C3.33331 5.56634 5.56665 3.33301 8.33331 3.33301H18.3333C21.1 3.33301 23.3333 5.56634 23.3333 8.33301Z" fill="#787878"/>
<path d="M8.66667 11.0497C8.28334 11.0497 7.88334 10.8664 7.65001 10.5164C7.25001 9.94973 7.38334 9.16642 7.95001 8.76642C9.25001 7.84976 11 7.83306 12.3167 8.73306C12.8833 9.11639 13.0333 9.89979 12.65 10.4665C12.2667 11.0331 11.4833 11.183 10.9167 10.7997C10.4667 10.4997 9.86668 10.4997 9.41668 10.8164C9.16668 10.9831 8.91667 11.0497 8.66667 11.0497Z" fill="#787878"/>
<path d="M15.3334 11.0497C14.95 11.0497 14.55 10.8664 14.3167 10.5164C13.9167 9.94973 14.05 9.16642 14.6167 8.76642C15.9167 7.84976 17.6667 7.83306 18.9834 8.73306C19.55 9.11639 19.7 9.89979 19.3167 10.4665C18.9334 11.0331 18.15 11.183 17.5834 10.7997C17.1334 10.4997 16.5334 10.4997 16.0834 10.8164C15.8334 10.9831 15.5834 11.0497 15.3334 11.0497Z" fill="#787878"/>
<path d="M13.6 20.2838H9.73331C8.54998 20.2838 7.58331 19.3171 7.58331 18.1338C7.58331 14.9671 10.1666 12.3838 13.3333 12.3838C14.6333 12.3838 15.9166 12.8338 16.9333 13.6505C17.4666 14.0838 17.5666 14.8671 17.1333 15.4005C16.7 15.9338 15.9166 16.0338 15.3833 15.6004C14.8 15.1338 14.1 14.8838 13.35 14.8838C11.6833 14.8838 10.3 16.1504 10.1166 17.7838H13.6166C14.3 17.7838 14.8666 18.3504 14.8666 19.0338C14.8666 19.7171 14.2833 20.2838 13.6 20.2838Z" fill="#787878"/>
<path d="M30.3667 27.7996C30.25 27.6663 30.0834 27.5996 29.9 27.5996H23.4334C23.25 27.5996 23.0834 27.6663 22.9667 27.7996C22.85 27.9329 22.7834 28.1162 22.8167 28.2829C23.0334 30.2496 24.6834 31.7496 26.6667 31.7496C28.65 31.7496 30.3 30.2662 30.5167 28.2829C30.5334 28.0996 30.4834 27.9329 30.3667 27.7996Z" fill="#787878"/>
<path d="M31.6667 16.667H21.6667C18.9167 16.667 16.6667 18.917 16.6667 21.667V31.667C16.6667 34.417 18.9167 36.667 21.6667 36.667H31.6667C34.4167 36.667 36.6667 34.417 36.6667 31.667V21.667C36.6667 18.917 34.4167 16.667 31.6667 16.667ZM20.9834 21.9503C21.3834 21.3836 22.1667 21.2503 22.7334 21.6503C23.1834 21.967 23.7834 21.967 24.2334 21.667C24.8 21.267 25.5834 21.417 25.9667 22.0003C26.35 22.567 26.2167 23.3503 25.6334 23.7336C24.9834 24.167 24.2334 24.4003 23.4834 24.4003C22.7 24.4003 21.9334 24.1669 21.2834 23.7003C20.7167 23.2836 20.5834 22.5003 20.9834 21.9503ZM26.6667 33.617C23.5 33.617 20.9167 31.0336 20.9167 27.8669C20.9167 26.6836 21.8834 25.717 23.0667 25.717H30.2667C31.45 25.717 32.4167 26.6836 32.4167 27.8669C32.4167 31.0336 29.8334 33.617 26.6667 33.617ZM32.3 23.717C31.65 24.1503 30.9 24.3837 30.15 24.3837C29.3667 24.3837 28.6 24.1504 27.95 23.6837C27.3834 23.2837 27.25 22.5003 27.65 21.9336C28.05 21.3669 28.8334 21.2336 29.4 21.6336C29.85 21.9503 30.45 21.9503 30.9 21.6503C31.4667 21.2503 32.25 21.4003 32.6334 21.9837C33.0167 22.567 32.8667 23.3336 32.3 23.717Z" fill="#787878"/>
</svg>
