<svg width="30" height="30" viewBox="0 0 30 30" fill="none" xmlns="http://www.w3.org/2000/svg">
<path opacity="0.4" d="M17.5 6.25V12.5H16.25C14.1875 12.5 12.5 14.1875 12.5 16.25V17.5H6.25C4.175 17.5 2.5 15.825 2.5 13.75V6.25C2.5 4.175 4.175 2.5 6.25 2.5H13.75C15.825 2.5 17.5 4.175 17.5 6.25Z" fill="#787878"/>
<path d="M6.49988 8.2878C6.21238 8.2878 5.91238 8.15029 5.73738 7.88779C5.43738 7.46279 5.53738 6.8753 5.96238 6.5753C6.93738 5.8878 8.24988 5.87528 9.23738 6.55028C9.66238 6.83778 9.77488 7.42533 9.48738 7.85033C9.19988 8.27533 8.61238 8.38777 8.18738 8.10027C7.84988 7.87527 7.39988 7.87528 7.06238 8.11278C6.87488 8.23778 6.68738 8.2878 6.49988 8.2878Z" fill="#787878"/>
<path d="M11.4999 8.2878C11.2124 8.2878 10.9124 8.15029 10.7374 7.88779C10.4374 7.46279 10.5374 6.8753 10.9624 6.5753C11.9374 5.8878 13.2499 5.87528 14.2374 6.55028C14.6624 6.83778 14.7749 7.42533 14.4874 7.85033C14.1999 8.27533 13.6124 8.38777 13.1874 8.10027C12.8499 7.87527 12.3999 7.87528 12.0624 8.11278C11.8749 8.23778 11.6874 8.2878 11.4999 8.2878Z" fill="#787878"/>
<path d="M10.2 15.2121H7.3C6.4125 15.2121 5.6875 14.4871 5.6875 13.5996C5.6875 11.2246 7.625 9.28711 10 9.28711C10.975 9.28711 11.9375 9.62462 12.7 10.2371C13.1 10.5621 13.175 11.1496 12.85 11.5496C12.525 11.9496 11.9375 12.0246 11.5375 11.6996C11.1 11.3496 10.575 11.1621 10.0125 11.1621C8.7625 11.1621 7.725 12.1121 7.5875 13.3371H10.2125C10.725 13.3371 11.15 13.7621 11.15 14.2746C11.15 14.7871 10.7125 15.2121 10.2 15.2121Z" fill="#787878"/>
<path d="M22.7754 20.8502C22.6879 20.7502 22.5629 20.7002 22.4254 20.7002H17.5754C17.4379 20.7002 17.3129 20.7502 17.2254 20.8502C17.1379 20.9502 17.0879 21.0877 17.1129 21.2127C17.2754 22.6877 18.5129 23.8127 20.0004 23.8127C21.4879 23.8127 22.7254 22.7002 22.8879 21.2127C22.9004 21.0752 22.8629 20.9502 22.7754 20.8502Z" fill="#787878"/>
<path d="M23.75 12.5H16.25C14.1875 12.5 12.5 14.1875 12.5 16.25V23.75C12.5 25.8125 14.1875 27.5 16.25 27.5H23.75C25.8125 27.5 27.5 25.8125 27.5 23.75V16.25C27.5 14.1875 25.8125 12.5 23.75 12.5ZM15.7375 16.4625C16.0375 16.0375 16.625 15.9375 17.05 16.2375C17.3875 16.475 17.8375 16.475 18.175 16.25C18.6 15.95 19.1875 16.0625 19.475 16.5C19.7625 16.925 19.6625 17.5125 19.225 17.8C18.7375 18.125 18.175 18.3 17.6125 18.3C17.025 18.3 16.45 18.125 15.9625 17.775C15.5375 17.4625 15.4375 16.875 15.7375 16.4625ZM20 25.2125C17.625 25.2125 15.6875 23.275 15.6875 20.9C15.6875 20.0125 16.4125 19.2875 17.3 19.2875H22.7C23.5875 19.2875 24.3125 20.0125 24.3125 20.9C24.3125 23.275 22.375 25.2125 20 25.2125ZM24.225 17.7875C23.7375 18.1125 23.175 18.2875 22.6125 18.2875C22.025 18.2875 21.45 18.1125 20.9625 17.7625C20.5375 17.4625 20.4375 16.875 20.7375 16.45C21.0375 16.025 21.625 15.925 22.05 16.225C22.3875 16.4625 22.8375 16.4625 23.175 16.2375C23.6 15.9375 24.1875 16.05 24.475 16.4875C24.7625 16.925 24.65 17.5 24.225 17.7875Z" fill="#787878"/>
</svg>
