<svg width="40" height="40" viewBox="0 0 40 40" fill="none" xmlns="http://www.w3.org/2000/svg">
<path opacity="0.4" d="M31.8333 33.833C31.5 33.833 31.1667 33.6663 31 33.4997C30.5 32.9997 30.5 32.1663 31 31.6663C33.8333 28.833 35.3333 24.9997 35.3333 20.833C35.3333 12.333 28.5 5.49967 20 5.49967C11.5 5.49967 4.66667 12.333 4.66667 20.833C4.66667 24.833 6.16667 28.6663 9 31.6663C9.5 32.1663 9.5 32.9997 9 33.4997C8.5 33.9997 7.66667 33.9997 7.16667 33.4997C3.83333 30.1663 2 25.6663 2 20.9997C2 10.9997 10.1667 2.83301 20 2.83301C29.8333 2.83301 38 10.833 38 20.833C38 25.4997 36.1667 29.9997 32.8333 33.333C32.5 33.6663 32.1667 33.833 31.8333 33.833Z" fill="#787878"/>
<path d="M20 36.667C23.5899 36.667 26.5 33.7568 26.5 30.167C26.5 26.5771 23.5899 23.667 20 23.667C16.4101 23.667 13.5 26.5771 13.5 30.167C13.5 33.7568 16.4101 36.667 20 36.667Z" fill="#787878"/>
<path d="M26.6667 14.167C24.8334 14.167 23.3334 15.667 23.3334 17.5003V18.8337C23.3334 20.0003 24.3334 20.8337 25.3334 20.8337H26.6667C28.5 20.8337 30 19.3337 30 17.5003C30 15.667 28.5 14.167 26.6667 14.167Z" fill="#787878"/>
</svg>
