<svg width="21" height="21" viewBox="0 0 21 21" fill="none" xmlns="http://www.w3.org/2000/svg">
<g opacity="0.5" clip-path="url(#clip0_261_195440)">
<path d="M20.9922 3.98869C20.2113 4.33125 19.3791 4.55831 18.5116 4.66856C19.4041 4.13569 20.0853 3.29831 20.4055 2.289C19.5734 2.78512 18.6546 3.13556 17.6755 3.33113C16.8854 2.48981 15.7592 1.96875 14.5307 1.96875C12.1472 1.96875 10.2284 3.90337 10.2284 6.27506C10.2284 6.61631 10.2572 6.94444 10.3281 7.25681C6.74894 7.08225 3.58188 5.36681 1.45431 2.75362C1.08288 3.39806 0.865 4.13569 0.865 4.92975C0.865 6.42075 1.63281 7.74244 2.77731 8.50762C2.08562 8.4945 1.40706 8.29369 0.832187 7.97737C0.832187 7.9905 0.832187 8.00756 0.832187 8.02462C0.832187 10.1167 2.3245 11.8545 4.28144 12.2548C3.931 12.3506 3.54906 12.3966 3.15269 12.3966C2.87706 12.3966 2.59881 12.3808 2.33763 12.3231C2.89544 14.028 4.47831 15.2814 6.36044 15.3221C4.89569 16.4679 3.03588 17.1583 1.0225 17.1583C0.669438 17.1583 0.330812 17.1426 -0.0078125 17.0992C1.89925 18.3291 4.15938 19.0312 6.59669 19.0312C14.5189 19.0312 18.8502 12.4687 18.8502 6.78037C18.8502 6.59006 18.8436 6.40631 18.8344 6.22387C19.6889 5.6175 20.4068 4.86019 20.9922 3.98869Z" fill="#11112B"/>
</g>
<defs>
<clipPath id="clip0_261_195440">
<rect width="21" height="21" fill="white"/>
</clipPath>
</defs>
</svg>
