<svg width="40" height="40" viewBox="0 0 40 40" fill="none" xmlns="http://www.w3.org/2000/svg">
<path opacity="0.4" d="M30 31.4329H28.7333C27.4 31.4329 26.1333 31.9496 25.2 32.8829L22.35 35.6996C21.05 36.9829 18.9334 36.9829 17.6334 35.6996L14.7833 32.8829C13.85 31.9496 12.5667 31.4329 11.25 31.4329H10C7.23333 31.4329 5 29.2163 5 26.483V8.29956C5 5.56623 7.23333 3.34961 10 3.34961H30C32.7667 3.34961 35 5.56623 35 8.29956V26.483C35 29.1996 32.7667 31.4329 30 31.4329Z" fill="white"/>
<path d="M20 17.3496C22.1447 17.3496 23.8834 15.6111 23.8834 13.4664C23.8834 11.3217 22.1447 9.58301 20 9.58301C17.8553 9.58301 16.1166 11.3217 16.1166 13.4664C16.1166 15.6111 17.8553 17.3496 20 17.3496Z" fill="white"/>
<path d="M24.4667 25.0994C25.8167 25.0994 26.6 23.5994 25.85 22.4827C24.7167 20.7994 22.5167 19.666 20 19.666C17.4833 19.666 15.2833 20.7994 14.15 22.4827C13.4 23.5994 14.1833 25.0994 15.5333 25.0994H24.4667Z" fill="white"/>
</svg>
