<svg width="846" height="54" viewBox="0 0 846 54" fill="none" xmlns="http://www.w3.org/2000/svg">
<path d="M230.631 0H214.734H140.634C127.727 0 117.264 10.4633 117.264 23.3705C117.264 31.9753 110.288 38.9508 101.683 38.9508H54.5578L27.4639 39.5058C18.611 39.6871 11.3367 32.5602 11.3367 23.7054V8.29513C11.3367 3.71386 7.62282 0 3.04155 0C1.36175 0 0 1.36175 0 3.04155V43C0 49.0751 4.92484 54 11 54H835C841.075 54 846 49.0751 846 43V11C846 4.92487 841.075 0 835 0H325.785H300.068H230.631Z" fill="#BFBFBF" fill-opacity="0.35"/>
</svg>
