<svg width="21" height="22" viewBox="0 0 21 22" fill="none" xmlns="http://www.w3.org/2000/svg">
<path opacity="0.4" d="M7.58625 12.75H3.5C2.5375 12.75 1.75 13.5375 1.75 14.5V19.75H7.58625V12.75Z" fill="#313131"/>
<path d="M11.6639 9.25H9.32764C8.36514 9.25 7.57764 10.0375 7.57764 11V19.75H13.4139V11C13.4139 10.0375 12.6351 9.25 11.6639 9.25Z" fill="#313131"/>
<path opacity="0.4" d="M17.5003 15.375H13.4141V19.75H19.2503V17.125C19.2503 16.1625 18.4628 15.375 17.5003 15.375Z" fill="#313131"/>
<path d="M13.1337 4.74368C13.405 4.47243 13.51 4.14868 13.4225 3.86868C13.335 3.58868 13.0637 3.38744 12.6787 3.32619L11.8387 3.18618C11.8037 3.17743 11.725 3.12492 11.7075 3.08992L11.2437 2.16242C10.8937 1.45367 10.0975 1.45367 9.74747 2.16242L9.28372 3.08992C9.26622 3.12492 9.18747 3.17743 9.15247 3.18618L8.31247 3.32619C7.92747 3.38744 7.66497 3.58868 7.56872 3.86868C7.48122 4.14868 7.58622 4.47243 7.85747 4.74368L8.50497 5.39993C8.53122 5.42618 8.56622 5.53118 8.55747 5.56618L8.37372 6.37117C8.23372 6.96617 8.46122 7.23742 8.60997 7.35117C8.75872 7.45617 9.08247 7.59618 9.61622 7.28118L10.4037 6.81743C10.4387 6.79118 10.5525 6.79118 10.5875 6.81743L11.375 7.28118C11.62 7.42993 11.8212 7.47368 11.9787 7.47368C12.1625 7.47368 12.2937 7.40367 12.3725 7.35117C12.5212 7.24617 12.7487 6.97492 12.6087 6.37117L12.425 5.56618C12.4162 5.52243 12.4425 5.42618 12.4775 5.39993L13.1337 4.74368Z" fill="#313131"/>
</svg>
