<svg width="26" height="26" viewBox="0 0 26 26" fill="none" xmlns="http://www.w3.org/2000/svg">
<path opacity="0.4" d="M17.5391 2.1665L8.46079 2.1665C4.51746 2.1665 2.16663 4.51734 2.16663 8.46067L2.16663 17.5282C2.16663 21.4823 4.51746 23.8332 8.46079 23.8332L17.5283 23.8332C21.4716 23.8332 23.8225 21.4823 23.8225 17.539L23.8225 8.46067C23.8333 4.51734 21.4825 2.1665 17.5391 2.1665Z" fill="#5F833B"/>
<path d="M14.3649 17.6368C14.1591 17.6368 13.9532 17.561 13.7907 17.3985L9.96658 13.5743C9.65242 13.2602 9.65242 12.7402 9.96658 12.426L13.7907 8.60184C14.1049 8.28767 14.6249 8.28767 14.9391 8.60184C15.2532 8.916 15.2532 9.436 14.9391 9.75017L11.6891 13.0002L14.9391 16.2502C15.2532 16.5643 15.2532 17.0843 14.9391 17.3985C14.7874 17.561 14.5816 17.6368 14.3649 17.6368Z" fill="#5F833B"/>
</svg>
