<svg width="26" height="26" viewBox="0 0 26 26" fill="none" xmlns="http://www.w3.org/2000/svg">
<path opacity="0.4" d="M17.5385 2.1665L8.46018 2.1665C4.51685 2.1665 2.16602 4.51734 2.16602 8.46067L2.16602 17.5282C2.16602 21.4823 4.51685 23.8332 8.46018 23.8332L17.5277 23.8332C21.471 23.8332 23.8218 21.4823 23.8218 17.539L23.8218 8.46067C23.8327 4.51734 21.4818 2.1665 17.5385 2.1665Z" fill="#E2C529"/>
<path d="M14.3644 17.6368C14.1586 17.6368 13.9528 17.561 13.7903 17.3985L9.96609 13.5743C9.65193 13.2602 9.65193 12.7402 9.96609 12.426L13.7903 8.60184C14.1044 8.28767 14.6244 8.28767 14.9386 8.60184C15.2528 8.916 15.2528 9.436 14.9386 9.75017L11.6886 13.0002L14.9386 16.2502C15.2528 16.5643 15.2528 17.0843 14.9386 17.3985C14.7869 17.561 14.5811 17.6368 14.3644 17.6368Z" fill="#E2C529"/>
</svg>
