<svg width="40" height="40" viewBox="0 0 40 40" fill="none" xmlns="http://www.w3.org/2000/svg">
<path opacity="0.4" d="M16.65 29.9663C24.0046 29.9663 29.9667 24.0043 29.9667 16.6497C29.9667 9.29508 24.0046 3.33301 16.65 3.33301C9.29545 3.33301 3.33337 9.29508 3.33337 16.6497C3.33337 24.0043 9.29545 29.9663 16.65 29.9663Z" fill="white"/>
<path d="M36.6167 26.6501C36.6167 32.1501 32.15 36.6168 26.65 36.6168C23.25 36.6168 20.2667 34.9168 18.4667 32.3335C25.7333 31.5168 31.5167 25.7335 32.3333 18.4668C34.9167 20.2668 36.6167 23.2501 36.6167 26.6501Z" fill="white"/>
<path d="M19.0834 16.1836L15.0834 14.7836C14.6834 14.6503 14.6 14.6169 14.6 14.0336C14.6 13.6003 14.9 13.2503 15.2834 13.2503H17.7834C18.3167 13.2503 18.75 13.7336 18.75 14.3336C18.75 15.0169 19.3167 15.5836 20 15.5836C20.6834 15.5836 21.25 15.0169 21.25 14.3336C21.25 12.4169 19.7667 10.8503 17.9167 10.7669V10.6836C17.9167 10.0003 17.35 9.43359 16.6667 9.43359C15.9834 9.43359 15.4167 9.98359 15.4167 10.6836V10.7669H15.2667C13.5167 10.7669 12.0834 12.2336 12.0834 14.0503C12.0834 15.6336 12.7834 16.6503 14.2334 17.1503L18.25 18.5503C18.65 18.6836 18.7334 18.7169 18.7334 19.3003C18.7334 19.7336 18.4334 20.0836 18.05 20.0836H15.55C15.0167 20.0836 14.5834 19.6003 14.5834 19.0003C14.5834 18.3169 14.0167 17.7503 13.3334 17.7503C12.65 17.7503 12.0834 18.3169 12.0834 19.0003C12.0834 20.9169 13.5667 22.4836 15.4167 22.5669V22.6669C15.4167 23.3503 15.9834 23.9169 16.6667 23.9169C17.35 23.9169 17.9167 23.3503 17.9167 22.6669V22.5836H18.0667C19.8167 22.5836 21.25 21.1169 21.25 19.3003C21.25 17.7169 20.5334 16.7003 19.0834 16.1836Z" fill="white"/>
</svg>
