<svg width="40" height="40" viewBox="0 0 40 40" fill="none" xmlns="http://www.w3.org/2000/svg">
<path d="M31.1833 15.8165C31.0167 15.8165 30.85 15.7832 30.6833 15.7165C30.05 15.4332 29.7667 14.6998 30.0333 14.0665C30.35 13.3498 30.1667 12.2998 29.5833 11.4332C29 10.5498 28.1167 9.96651 27.3 9.99985C26.5667 9.99985 26.05 9.44986 26.0333 8.76653C26.0333 8.06653 26.5833 7.51651 27.2667 7.49984C28.9833 7.46651 30.6 8.44988 31.65 10.0332C32.7167 11.6332 32.9667 13.5499 32.3167 15.0499C32.1333 15.5332 31.6667 15.8165 31.1833 15.8165Z" fill="white"/>
<path d="M36.3666 17.4662C36.25 17.4662 36.1499 17.4496 36.0333 17.4163C35.3666 17.2329 34.9833 16.5496 35.1666 15.883C35.8 13.6163 35.2666 10.9162 33.75 8.64957C32.2333 6.38291 29.9333 4.86624 27.5833 4.5829C26.9 4.49957 26.4166 3.88287 26.4999 3.19954C26.5833 2.51621 27.2166 2.01627 27.8833 2.11627C30.9333 2.48294 33.9 4.41623 35.8166 7.2829C37.7333 10.1496 38.3833 13.6163 37.5666 16.5829C37.4166 17.0996 36.9166 17.4662 36.3666 17.4662Z" fill="white"/>
<path opacity="0.4" d="M29.2 26.3993C29.0167 24.366 28.4667 22.1826 24.5 22.1826H8.71669C4.75002 22.1826 4.2167 24.366 4.0167 26.3993L3.31671 33.9326C3.23337 34.8659 3.55002 35.8159 4.18335 36.5159C4.83335 37.2326 5.7667 37.6493 6.75004 37.6493H9.0667C11.0667 37.6493 11.45 36.4993 11.7 35.7493L11.95 35.016C12.2334 34.166 12.3 33.9493 13.4167 33.9493H19.75C20.85 33.9493 20.9 34.066 21.2167 35.016L21.4667 35.766C21.7167 36.516 22.1 37.6659 24.1 37.6659H26.4167C27.4 37.6659 28.3334 37.2493 28.9834 36.5326C29.6167 35.8326 29.9334 34.8826 29.85 33.9493L29.2 26.3993Z" fill="white"/>
<path d="M27.75 18.4831H26.5166C26.5 18.4831 26.5 18.4831 26.4833 18.4831L26.0166 16.233C25.5666 14.0663 24.65 12.083 20.9666 12.083H17.55H15.7H12.2833C8.59997 12.083 7.66664 14.0663 7.2333 16.233L6.76664 18.4831C6.74997 18.4831 6.74996 18.4831 6.7333 18.4831H5.49998C4.98331 18.4831 4.56665 18.8997 4.56665 19.4164C4.56665 19.933 4.98331 20.3497 5.49998 20.3497H6.38331L5.86665 22.8163C6.53332 22.433 7.46664 22.1997 8.74997 22.1997H24.5333C25.8166 22.1997 26.75 22.433 27.4166 22.8163L26.9 20.3497H27.7833C28.3 20.3497 28.7166 19.933 28.7166 19.4164C28.6833 18.8997 28.2666 18.4831 27.75 18.4831Z" fill="white"/>
<path d="M12.9167 28.9829H9.20005C8.68339 28.9829 8.26672 28.5662 8.26672 28.0495C8.26672 27.5329 8.68339 27.1162 9.20005 27.1162H12.9167C13.4334 27.1162 13.85 27.5329 13.85 28.0495C13.8334 28.5662 13.4334 28.9829 12.9167 28.9829Z" fill="white"/>
<path d="M24.05 28.9829H20.3334C19.8167 28.9829 19.4 28.5662 19.4 28.0495C19.4 27.5329 19.8167 27.1162 20.3334 27.1162H24.05C24.5667 27.1162 24.9834 27.5329 24.9834 28.0495C24.9667 28.5662 24.55 28.9829 24.05 28.9829Z" fill="white"/>
</svg>
